<?xml version="1.0" encoding="UTF-8"?>
<!DOCTYPE svg PUBLIC "-//W3C//DTD SVG 1.1//EN" "http://www.w3.org/Graphics/SVG/1.1/DTD/svg11.dtd">
<!-- Creator: CorelDRAW X7 -->
<svg xmlns="http://www.w3.org/2000/svg" xml:space="preserve" width="73.6695mm" height="73.6695mm" version="1.1" style="shape-rendering:geometricPrecision; text-rendering:geometricPrecision; image-rendering:optimizeQuality; fill-rule:evenodd; clip-rule:evenodd"
viewBox="0 0 1006 1006"
 xmlns:xlink="http://www.w3.org/1999/xlink">
 <defs>
  <style type="text/css">
   <![CDATA[
    .fil0 {fill:#F08519}
    .fil1 {fill:#A85B32}
    .fil2 {fill:white}
   ]]>
  </style>
 </defs>
 <g id="Layer_x0020_1">
  <metadata id="CorelCorpID_0Corel-Layer"/>
  <rect class="fil0" width="1006" height="1006" rx="84" ry="84"/>
  <g id="_2042070905024">
   <g>
    <polygon class="fil1" points="697,481 712,492 711,491 709,490 708,489 707,488 705,487 704,486 702,485 701,484 699,483 698,483 696,482 695,481 693,480 692,480 690,479 688,479 687,478 685,478 683,477 682,477 680,476 678,476 676,476 675,476 673,475 671,475 669,475 667,475 665,475 663,475 661,475 659,475 657,475 654,475 652,476 650,476 648,476 646,477 644,477 642,478 640,478 638,479 636,479 634,480 633,481 631,482 629,483 627,483 625,484 624,485 622,487 620,488 619,489 617,490 615,491 614,493 612,494 611,496 609,497 607,499 606,500 605,502 603,504 602,505 600,507 599,509 598,511 597,513 596,514 594,516 593,518 592,520 591,522 590,524 590,526 589,528 588,530 587,532 586,535 586,537 585,539 585,541 584,543 584,546 583,548 583,550 582,553 582,555 582,558 582,560 582,562 581,565 581,567 581,570 581,572 581,574 582,576 582,578 582,579 582,581 582,583 583,585 583,586 583,588 584,590 584,592 585,593 585,595 586,596 586,598 587,600 588,601 588,603 589,604 590,606 591,607 591,608 592,610 593,611 594,612 595,614 596,615 597,616 598,618 600,619 601,620 602,621 603,622 605,623 606,624 607,625 609,626 610,627 595,617 594,616 592,615 591,614 590,613 589,612 587,610 586,609 585,608 584,607 583,606 582,604 581,603 580,602 579,600 578,599 577,598 576,596 575,595 574,593 574,592 573,590 572,589 572,587 571,586 570,584 570,583 569,581 569,579 569,578 568,576 568,574 568,572 567,571 567,569 567,567 567,565 567,563 567,561 567,559 567,557 567,554 567,552 567,549 567,547 567,544 568,542 568,540 568,537 569,535 569,533 570,531 570,528 571,526 572,524 572,522 573,520 574,518 575,516 576,514 577,512 578,510 579,508 580,506 581,504 582,502 583,500 584,498 586,497 587,495 588,493 590,491 591,490 593,488 594,486 596,485 597,484 599,482 601,481 602,479 604,478 606,477 607,476 609,475 611,474 612,473 614,472 616,471 618,470 620,469 622,469 624,468 626,467 627,467 629,466 631,466 633,466 636,465 638,465 640,465 642,464 644,464 646,464 648,464 650,464 652,464 654,464 656,465 658,465 660,465 662,465 663,465 665,466 667,466 669,467 670,467 672,467 674,468 675,469 677,469 679,470 680,470 682,471 683,472 685,473 686,473 688,474 689,475 691,476 692,477 693,478 695,479 696,480 "/>
    <polygon class="fil1" points="535,169 549,180 552,183 554,186 556,189 558,192 560,195 562,199 563,202 564,206 565,209 565,213 565,217 565,221 564,224 563,228 562,232 560,236 558,240 555,244 552,248 548,252 544,256 542,258 539,260 537,262 535,264 532,265 530,267 528,268 526,269 523,270 521,271 519,272 517,273 515,273 512,274 510,274 508,275 506,275 504,275 501,275 499,275 497,275 495,275 492,275 490,275 488,274 486,274 483,274 481,273 479,273 476,273 474,272 471,272 470,272 469,271 468,271 467,271 466,271 465,271 464,270 462,270 461,270 460,270 459,270 458,270 457,270 456,270 455,269 454,269 452,269 451,269 450,269 449,269 448,269 447,269 446,269 445,269 443,269 442,269 441,269 440,269 439,269 438,268 437,268 435,268 432,269 428,269 424,269 421,269 417,270 414,270 410,270 407,271 403,272 400,273 397,273 393,274 390,275 387,276 384,278 381,279 378,280 375,282 372,283 369,285 366,287 363,288 360,290 357,292 355,294 352,296 349,298 347,301 344,303 341,305 339,308 337,310 334,313 332,316 330,318 327,321 325,324 323,327 321,330 320,333 318,336 316,339 314,342 313,345 311,348 310,351 309,355 307,358 306,361 305,365 304,368 303,372 302,375 302,379 301,382 300,386 300,390 299,394 299,397 298,401 298,405 298,409 298,413 298,417 298,421 298,424 298,428 298,431 299,435 299,438 299,441 300,445 300,448 301,451 302,454 302,457 303,460 304,463 305,466 306,469 307,472 308,475 309,477 310,480 312,483 313,485 315,488 316,490 318,492 319,495 321,497 323,499 325,502 326,504 328,506 330,508 332,510 335,512 337,514 339,515 341,517 344,519 346,520 348,522 334,511 331,510 329,508 326,506 324,505 322,503 320,501 318,499 316,497 314,495 312,493 310,491 308,489 306,486 305,484 303,482 301,479 300,477 298,474 297,472 296,469 295,467 293,464 292,461 291,458 290,455 289,453 288,450 288,447 287,443 286,440 286,437 285,434 285,431 284,427 284,424 284,421 283,417 283,414 283,410 283,406 283,402 283,398 283,394 284,390 284,387 284,383 285,379 285,375 286,372 287,368 288,364 288,361 289,357 290,354 292,351 293,347 294,344 295,341 297,337 298,334 300,331 301,328 303,325 305,322 307,319 309,316 311,313 313,310 315,308 317,305 319,302 322,300 324,297 327,295 329,292 332,290 335,288 337,285 340,283 343,281 345,279 348,278 351,276 354,274 357,273 360,271 363,270 366,268 369,267 372,266 376,265 379,264 382,263 385,262 389,261 392,260 396,260 399,259 403,259 406,258 410,258 413,258 417,258 421,258 422,258 423,258 424,258 425,258 426,258 428,258 429,258 430,258 431,258 432,258 433,258 434,258 435,258 437,258 438,259 439,259 440,259 441,259 442,259 443,259 444,259 446,259 447,260 448,260 449,260 450,260 451,260 452,260 453,261 454,261 456,261 457,261 459,262 461,262 464,262 466,263 469,263 471,263 473,264 476,264 478,264 480,264 482,264 484,265 487,264 489,264 491,264 493,264 495,264 498,263 500,263 502,262 504,261 506,260 509,259 511,258 513,257 515,256 518,255 520,253 522,251 525,249 527,247 530,245 534,241 537,237 540,233 543,229 545,225 547,221 548,218 549,214 550,210 550,206 550,202 550,199 549,195 548,191 547,188 545,185 544,181 542,178 540,175 537,172 "/>
    <polygon class="fil1" points="799,403 813,414 818,419 820,422 823,425 825,428 827,430 829,433 831,436 832,439 834,442 836,446 838,449 839,452 841,455 842,459 843,462 844,465 846,469 847,472 848,476 849,479 850,483 850,487 851,491 852,494 852,498 853,502 853,506 854,510 854,514 854,518 855,522 855,527 855,531 855,536 855,542 854,547 854,552 854,557 853,562 852,567 852,572 851,577 850,582 849,587 848,592 847,596 845,601 844,606 842,610 841,614 839,619 837,623 835,627 833,632 831,636 829,640 827,644 824,648 822,652 819,656 817,660 814,663 811,667 808,671 805,674 802,678 799,681 796,685 792,688 789,691 786,694 782,697 779,699 775,702 772,704 768,707 764,709 761,711 757,713 753,715 749,717 745,719 741,721 737,722 733,723 729,725 725,726 721,727 716,728 712,729 708,729 703,730 699,731 694,731 690,731 685,731 681,731 678,731 676,731 674,731 672,731 670,731 668,731 666,731 664,731 662,730 660,730 658,730 656,729 654,729 652,729 650,728 649,728 647,727 645,727 643,726 641,726 639,725 637,725 636,724 634,723 632,723 630,722 628,721 627,721 625,720 623,719 621,718 620,717 619,717 618,716 617,715 616,715 615,714 614,714 599,703 600,704 601,704 602,705 603,705 604,706 605,706 607,707 608,708 610,709 612,710 614,711 615,711 617,712 619,713 621,713 623,714 625,715 626,715 628,716 630,716 632,717 634,717 636,718 638,718 640,718 642,719 644,719 646,719 648,720 649,720 652,720 654,720 656,720 658,721 660,721 662,721 664,721 666,721 671,721 675,721 680,720 684,720 689,719 693,719 697,718 702,717 706,716 710,715 714,714 719,713 723,711 727,710 731,708 735,707 738,705 742,703 746,701 750,698 753,696 757,694 761,691 764,689 768,686 771,683 774,680 778,677 781,674 784,671 787,667 790,664 794,660 796,656 799,653 802,649 805,645 807,641 810,637 812,633 814,629 817,625 819,621 821,617 823,613 824,608 826,604 828,599 829,595 831,590 832,586 833,581 834,576 835,571 836,567 837,562 838,557 838,552 839,547 839,541 840,536 840,531 840,526 840,520 840,516 840,512 840,508 840,504 839,499 839,495 838,491 838,488 837,484 837,480 836,476 835,472 834,469 833,465 832,462 831,458 830,455 829,451 827,448 826,445 824,441 823,438 821,435 820,432 818,429 816,426 814,423 812,420 810,417 808,414 806,411 804,409 "/>
    <polygon class="fil1" points="571,682 586,692 585,692 585,692 585,692 584,692 584,691 583,691 583,691 583,691 582,691 582,691 581,691 581,691 581,691 580,691 580,691 579,691 579,691 579,691 578,691 578,691 577,691 577,691 576,691 576,691 576,691 575,692 575,692 574,692 574,692 574,692 573,693 573,693 573,693 572,693 572,694 572,694 571,694 571,694 571,695 570,695 570,695 570,696 570,696 569,696 569,697 569,697 569,697 569,698 568,698 568,699 568,699 568,699 568,700 568,700 568,701 568,701 568,702 568,702 568,702 568,702 568,702 568,702 568,703 568,704 567,704 567,705 567,706 567,707 567,708 567,708 567,709 567,710 567,711 567,711 567,712 567,713 567,714 567,714 566,715 566,716 566,717 566,717 566,718 566,719 566,719 566,720 566,721 566,721 566,722 566,723 565,723 565,724 565,725 565,725 551,817 551,820 550,822 550,824 549,827 548,829 548,831 547,834 546,836 545,838 544,840 543,842 541,844 540,846 539,848 537,850 536,852 534,853 532,855 530,857 529,858 527,859 524,861 522,862 520,863 518,864 515,865 512,865 510,866 507,867 504,867 501,867 498,867 472,867 468,867 465,867 463,866 460,866 458,865 443,854 445,855 448,856 451,856 454,856 457,856 483,856 486,856 489,856 492,856 495,855 498,855 500,854 503,853 505,852 508,851 510,850 512,849 514,847 516,846 518,844 519,843 521,841 523,839 524,837 525,836 527,834 528,831 529,829 530,827 531,825 532,823 533,821 534,818 534,816 535,814 536,811 536,809 536,806 550,714 551,714 551,713 551,713 551,712 551,711 551,711 551,710 551,709 551,709 551,708 551,707 552,707 552,706 552,705 552,704 552,704 552,703 552,702 552,702 552,701 552,700 552,699 552,699 552,698 553,697 553,696 553,695 553,695 553,694 553,693 553,692 553,691 553,691 553,691 553,691 553,691 553,691 553,690 553,690 553,690 553,689 553,689 553,688 554,688 554,688 554,687 554,687 554,686 554,686 555,686 555,685 555,685 555,685 556,684 556,684 556,684 557,683 557,683 557,683 557,683 558,682 558,682 559,682 559,682 559,681 560,681 560,681 561,681 561,681 561,681 562,680 562,680 563,680 563,680 563,680 564,680 564,680 565,680 565,680 566,680 566,680 566,680 567,680 567,680 568,680 568,680 568,681 569,681 569,681 570,681 570,681 570,681 571,682 "/>
    <polygon class="fil1" points="444,639 459,650 458,650 458,650 457,650 456,651 456,651 455,651 454,651 454,651 453,651 452,652 451,652 451,652 450,652 449,652 449,652 448,653 447,653 447,653 446,653 445,653 444,653 444,653 443,653 442,654 442,654 441,654 440,654 439,654 439,654 438,654 437,654 436,654 435,654 434,654 433,655 431,655 430,655 429,655 427,655 426,655 425,655 423,655 422,655 421,655 419,655 418,655 417,656 415,656 414,656 413,656 411,656 410,656 409,656 407,656 406,656 405,656 403,656 402,656 400,656 399,656 398,656 396,656 395,656 393,656 387,656 381,656 374,655 368,655 362,654 356,654 350,653 344,652 339,651 333,650 327,648 322,647 316,645 311,644 306,642 301,640 295,638 290,636 285,634 281,631 266,620 271,623 276,625 281,627 286,629 291,631 296,633 302,635 307,636 313,638 318,639 324,640 330,641 336,642 342,643 348,644 354,644 360,645 366,645 372,645 379,645 380,645 382,645 383,645 384,645 386,645 387,645 389,645 390,645 391,645 393,645 394,645 395,645 397,645 398,645 399,645 401,645 402,645 403,645 405,645 406,645 407,645 409,645 410,644 411,644 413,644 414,644 415,644 417,644 418,644 419,644 420,644 422,644 423,644 423,643 424,643 425,643 425,643 426,643 427,643 428,643 428,643 429,643 430,643 430,642 431,642 432,642 433,642 433,642 434,642 435,642 435,641 436,641 437,641 437,641 438,641 439,641 440,640 440,640 441,640 442,640 442,640 443,639 444,639 "/>
   </g>
   <path class="fil2" d="M719 535c0,-21 -6,-38 -19,-51 -13,-13 -31,-20 -52,-20 -23,0 -43,9 -58,27 -16,18 -23,41 -23,68 0,21 6,38 19,50 13,13 30,19 51,19 24,0 44,-8 59,-26 15,-17 23,-40 23,-67zm-189 -290c-26,24 -47,21 -73,16 -12,-2 -24,-3 -36,-3 -40,0 -73,14 -99,42 -26,28 -39,63 -39,106 0,39 11,70 33,91 21,22 52,32 92,32 17,0 35,-2 53,-6 3,-1 6,-2 9,-2 22,-66 58,-114 130,-145 63,-26 153,-26 204,33 24,28 36,66 36,111 0,58 -16,106 -50,144 -33,38 -74,57 -124,57 -22,0 -43,-5 -61,-15 -11,-5 -22,-13 -32,-23 -3,-3 -8,-4 -12,-2 -5,2 -8,6 -8,10 0,0 0,0 0,0 -1,9 -2,17 -3,23l-14 92c-4,26 -19,50 -53,50l-26 0c-34,0 -39,-34 -36,-52 10,-60 16,-116 23,-165 -7,2 -14,4 -22,5 -14,1 -28,1 -43,1 -69,0 -124,-21 -166,-64 -41,-42 -62,-99 -62,-169 0,-34 6,-67 16,-98 11,-31 27,-59 47,-84 24,-29 55,-52 91,-68 36,-15 76,-23 121,-23 26,0 51,1 74,9 35,10 76,55 30,97z"/>
  </g>
 </g>
</svg>
