<?xml version="1.0" encoding="UTF-8"?>
<!DOCTYPE svg PUBLIC "-//W3C//DTD SVG 1.1//EN" "http://www.w3.org/Graphics/SVG/1.1/DTD/svg11.dtd">
<!-- Creator: CorelDRAW X7 -->
<svg xmlns="http://www.w3.org/2000/svg" xml:space="preserve" width="15.8613mm" height="15.8613mm" version="1.1" style="shape-rendering:geometricPrecision; text-rendering:geometricPrecision; image-rendering:optimizeQuality; fill-rule:evenodd; clip-rule:evenodd"
viewBox="0 0 90 90"
 xmlns:xlink="http://www.w3.org/1999/xlink">
 <defs>
  <style type="text/css">
   <![CDATA[
    .fil0 {fill:#E74C3C}
    .fil1 {fill:white}
   ]]>
  </style>
 </defs>
 <g id="Layer_x0020_1">
  <metadata id="CorelCorpID_0Corel-Layer"/>
  <rect class="fil0" width="89.5617" height="89.5617"/>
  <path class="fil1" d="M54 30c1,1 3,2 4,3 8,7 9,20 2,28 -8,8 -20,9 -28,2 -8,-7 -9,-19 -3,-28 1,0 1,0 1,0l0 0 10 -12c2,-2 5,-2 7,0l0 0c2,1 2,4 2,5 0,0 0,2 -2,3 -1,2 -7,9 -9,11 0,0 0,0 0,0 -3,4 -3,9 1,13 4,3 9,3 13,-1 3,-4 2,-9 -1,-13 -1,-1 -3,-1 -4,-2 1,-1 4,-4 5,-5 1,-1 1,-3 2,-4z"/>
 </g>
</svg>
