<?xml version="1.0" encoding="UTF-8"?>
<!DOCTYPE svg PUBLIC "-//W3C//DTD SVG 1.1//EN" "http://www.w3.org/Graphics/SVG/1.1/DTD/svg11.dtd">
<!-- Creator: CorelDRAW X7 -->
<svg xmlns="http://www.w3.org/2000/svg" xml:space="preserve" width="46.1278mm" height="10.4122mm" version="1.1" style="shape-rendering:geometricPrecision; text-rendering:geometricPrecision; image-rendering:optimizeQuality; fill-rule:evenodd; clip-rule:evenodd"
viewBox="0 0 3421 772"
 xmlns:xlink="http://www.w3.org/1999/xlink">
 <defs>
  <style type="text/css">
   <![CDATA[
    .fil0 {fill:#E74C3C}
    .fil2 {fill:#5F5D5D;fill-rule:nonzero}
    .fil1 {fill:#E74C3C;fill-rule:nonzero}
   ]]>
  </style>
 </defs>
 <g id="Layer_x0020_1">
  <metadata id="CorelCorpID_0Corel-Layer"/>
  <path class="fil0" d="M483 142c25,13 49,29 70,48 138,122 151,333 29,470 -122,138 -332,150 -470,29 -134,-119 -149,-322 -37,-460 1,-2 3,-4 4,-5l5 -5 169 -191c30,-34 83,-38 117,-7l0 0c27,23 41,58 33,91 0,0 -7,28 -27,51 -19,21 -119,135 -153,172 -1,1 -2,3 -3,4 -56,63 -50,158 12,214 63,55 159,49 214,-13 55,-63 50,-158 -13,-214 -18,-15 -38,-26 -59,-32 15,-16 58,-64 82,-92 14,-17 22,-40 27,-60z"/>
  <g id="_2262883249696">
   <path class="fil1" d="M1106 192c-4,-10 -10,-20 -19,-29 -8,-9 -19,-16 -31,-23 -12,-6 -26,-10 -40,-13 -15,-3 -29,-4 -44,-3 -15,1 -30,4 -44,10 -14,5 -26,13 -37,24 -13,13 -22,26 -28,41 -5,15 -8,31 -8,46 1,15 4,30 10,45 6,14 14,27 25,38 11,12 25,21 40,27 16,7 33,11 53,11 23,0 43,-5 59,-15 16,-10 28,-25 34,-46l-94 0c-9,0 -17,-2 -24,-6 -7,-4 -12,-8 -17,-14 -4,-6 -7,-13 -9,-21 -2,-7 -3,-15 -2,-23l222 0c3,31 -1,59 -10,82 -10,24 -23,44 -40,60 -18,16 -37,28 -60,36 -22,9 -45,13 -68,12 -16,0 -31,-2 -47,-6 -15,-4 -30,-10 -44,-18 -15,-7 -28,-17 -40,-28 -12,-12 -22,-26 -31,-41 -10,-18 -17,-36 -21,-55 -4,-19 -5,-38 -4,-56 2,-18 6,-36 13,-53 7,-17 16,-33 27,-47 16,-21 37,-38 63,-51 26,-13 55,-19 88,-19 25,0 48,3 70,10 22,7 40,17 54,29 14,13 21,27 24,43 2,17 -5,34 -20,53z"/>
   <path id="1" class="fil1" d="M1178 156l58 0 0 34c5,-12 13,-21 22,-28 9,-7 19,-11 30,-12 14,-1 26,2 35,8 9,6 15,14 18,23 4,9 5,18 3,28 -2,9 -6,17 -14,22 -3,-8 -9,-14 -17,-17 -9,-2 -18,-2 -28,1 -9,4 -18,10 -26,19 -7,8 -12,20 -13,34 -1,9 -1,17 -1,25 0,8 0,15 0,22l0 108 -67 0 0 -267z"/>
   <path id="2" class="fil1" d="M1552 393c-13,13 -28,22 -43,28 -15,6 -30,8 -46,8 -15,-1 -30,-4 -44,-11 -15,-6 -28,-15 -39,-27 -11,-13 -20,-27 -26,-44 -7,-17 -10,-36 -10,-58 0,-20 3,-39 10,-56 8,-18 17,-33 29,-45 12,-12 26,-22 42,-28 15,-7 31,-10 48,-9 17,0 30,4 40,11 9,6 17,14 21,23 5,9 7,18 8,27 0,9 -2,16 -5,22 -6,-9 -14,-15 -24,-18 -11,-3 -21,-4 -31,-4 -16,0 -29,3 -40,11 -10,8 -18,18 -24,29 -5,12 -8,24 -8,38 0,13 2,26 8,38 5,11 13,21 24,29 10,7 24,11 40,11 14,0 25,-3 34,-9 9,-6 16,-14 21,-24 5,-9 9,-20 11,-33 2,-12 4,-24 4,-36l0 -109 66 0 0 266 -66 0 0 -30z"/>
   <path id="3" class="fil1" d="M1713 64l0 130c3,-6 7,-11 12,-16 6,-4 12,-8 18,-11 7,-3 14,-5 21,-7 7,-1 13,-2 19,-3 13,0 26,1 38,5 12,5 23,12 34,22 15,16 22,39 22,68l0 171 -64 0c0,-6 0,-14 0,-23 1,-10 1,-21 1,-32 0,-11 0,-23 0,-36 0,-12 -1,-24 -1,-35 0,-11 -1,-21 -1,-30 -1,-8 -2,-14 -3,-19 -3,-10 -8,-18 -15,-23 -7,-6 -15,-8 -24,-8 -11,0 -20,3 -27,9 -6,6 -9,14 -9,24 -4,-1 -8,-4 -12,-8 -5,-4 -8,-8 -9,-13l0 194 -65 0 0 -307c0,-16 6,-29 18,-38 11,-10 27,-14 47,-14z"/>
   <path id="4" class="fil1" d="M2105 393c-13,13 -27,22 -42,28 -15,6 -31,8 -46,8 -15,-1 -30,-4 -45,-11 -14,-6 -27,-15 -38,-27 -11,-13 -20,-27 -27,-44 -7,-17 -10,-36 -10,-58 0,-20 4,-39 11,-56 7,-18 17,-33 29,-45 12,-12 26,-22 41,-28 16,-7 32,-10 49,-9 16,0 29,4 39,11 10,6 17,14 22,23 4,9 7,18 7,27 0,9 -1,16 -4,22 -6,-9 -14,-15 -25,-18 -11,-3 -21,-4 -31,-4 -15,0 -29,3 -39,11 -11,8 -19,18 -24,29 -6,12 -8,24 -9,38 0,13 3,26 8,38 5,11 13,21 24,29 11,7 24,11 40,11 14,0 25,-3 34,-9 9,-6 16,-14 21,-24 6,-9 9,-20 12,-33 2,-12 3,-24 3,-36l0 -109 67 0 0 266 -67 0 0 -30z"/>
   <path class="fil2" d="M2321 240c-3,-6 -6,-11 -11,-15 -5,-4 -10,-7 -15,-9 -6,-2 -11,-3 -16,-3 -5,0 -10,0 -13,2 -6,2 -10,5 -12,10 -1,5 0,9 3,14 3,3 8,6 14,9 7,4 14,7 22,11 8,4 16,8 25,13 8,5 16,10 23,17 7,7 12,14 17,23 4,9 7,20 7,32 0,14 -4,27 -10,38 -6,10 -14,19 -25,26 -10,6 -22,11 -35,14 -13,2 -27,2 -40,0 -13,-2 -26,-6 -39,-13 -13,-8 -24,-17 -33,-30l40 -42c8,10 17,17 26,21 9,4 18,7 25,7 8,1 15,0 20,-3 5,-3 9,-7 10,-12 1,-4 -1,-10 -5,-16 -3,-5 -11,-11 -22,-17 -11,-5 -21,-10 -31,-16 -11,-6 -20,-12 -27,-19 -8,-7 -14,-15 -19,-23 -5,-9 -7,-19 -7,-31 0,-12 2,-22 7,-32 5,-9 12,-17 20,-23 8,-6 18,-11 28,-14 11,-3 22,-4 33,-4 19,1 34,5 44,13 10,7 17,16 19,25 2,10 2,19 -2,28 -5,9 -12,15 -21,19z"/>
   <path id="1" class="fil2" d="M2403 121c0,-9 2,-17 5,-23 4,-7 9,-12 14,-16 6,-4 13,-7 21,-9 7,-2 15,-2 23,-2l0 92 58 0c0,7 -1,13 -2,19 -1,7 -4,12 -7,18 -3,5 -8,9 -13,12 -6,3 -13,5 -22,5l-14 0 0 141c0,5 2,9 6,11 4,2 9,3 14,3 5,0 10,-2 16,-4 5,-2 9,-5 11,-9 4,11 5,20 1,29 -4,8 -10,15 -18,20 -8,5 -18,9 -28,10 -11,2 -21,1 -31,-2 -9,-4 -17,-9 -24,-17 -6,-8 -10,-20 -10,-33l0 -149 -32 0 0 -54 32 0 0 -42z"/>
   <path id="2" class="fil2" d="M2601 162l0 123c0,6 0,12 0,19 0,7 1,14 2,20 1,6 3,13 6,18 3,6 7,11 12,15 4,2 8,4 13,6 5,1 10,2 15,2 5,0 10,-1 14,-2 5,-2 9,-4 13,-6 6,-4 10,-9 13,-14 3,-6 5,-11 6,-18 1,-6 2,-13 2,-19 0,-7 0,-13 0,-19l0 -74c-1,-18 5,-31 17,-40 12,-9 27,-13 47,-12l0 109c0,23 -1,41 -3,56 -1,16 -4,27 -8,36 -9,22 -23,38 -41,48 -17,9 -38,14 -61,14 -26,0 -48,-5 -66,-17 -18,-11 -31,-29 -39,-54 -2,-8 -4,-18 -6,-31 -1,-13 -2,-27 -2,-43l0 -117 66 0z"/>
   <path id="3" class="fil2" d="M2969 391c-12,12 -25,21 -40,26 -14,6 -29,8 -43,8 -15,-1 -29,-4 -42,-10 -14,-7 -26,-15 -36,-27 -11,-11 -19,-25 -26,-41 -6,-16 -9,-34 -9,-54 0,-20 3,-38 10,-54 7,-16 16,-30 28,-42 11,-12 24,-21 39,-27 14,-6 29,-9 45,-8 17,0 30,4 39,10 10,6 17,14 21,22 4,8 6,17 6,25 0,8 -2,15 -5,21 -6,-8 -13,-14 -24,-16 -10,-3 -19,-5 -28,-5 -15,0 -28,4 -38,11 -10,8 -18,17 -23,28 -5,11 -7,22 -7,35 0,13 2,25 7,36 5,11 13,20 22,27 10,7 23,11 38,11 13,0 24,-3 32,-9 9,-5 16,-13 21,-22 5,-10 8,-20 10,-31 2,-12 3,-23 3,-34l0 -200c20,1 35,6 46,16 12,10 17,22 17,35l0 296 -63 0 0 -27z"/>
   <path id="4" class="fil2" d="M3064 213c0,-10 2,-18 6,-25 3,-6 8,-11 14,-15 5,-4 12,-7 19,-9 8,-2 16,-3 25,-3l0 258 -64 0 0 -206zm32 -158c11,0 21,4 29,13 8,8 12,17 12,29 0,12 -4,21 -12,30 -4,4 -10,8 -16,9 -6,2 -12,4 -18,6 -6,2 -12,4 -17,6 -5,3 -9,7 -11,13 -1,-6 -3,-13 -5,-21 -2,-8 -3,-17 -3,-26 -1,-9 0,-17 1,-26 2,-8 5,-15 11,-21 8,-8 17,-12 29,-12z"/>
   <path id="5" class="fil2" d="M3284 155c26,0 49,6 70,19 20,13 36,29 48,48 11,20 18,42 19,65 0,24 -6,48 -19,71 -11,18 -25,34 -42,45 -18,11 -37,18 -57,21 -20,3 -40,1 -60,-5 -20,-6 -38,-17 -54,-33 -17,-18 -29,-39 -35,-63 -6,-24 -6,-48 1,-72 3,-9 8,-17 15,-24 7,-6 14,-11 23,-14 9,-3 17,-4 27,-4 9,1 18,3 26,6 8,4 14,9 20,15 5,6 8,14 9,24 -4,-4 -10,-6 -17,-6 -7,0 -14,1 -21,4 -6,4 -12,8 -16,15 -4,6 -7,14 -7,24 0,17 4,30 11,41 7,11 15,19 26,25 10,5 22,8 34,8 12,0 23,-3 34,-8 10,-6 19,-14 26,-26 7,-11 10,-24 10,-41 0,-13 -2,-24 -7,-34 -5,-10 -11,-19 -19,-25 -7,-6 -16,-11 -27,-13 -10,-3 -21,-3 -32,-1 -5,-6 -12,-10 -19,-14 -7,-3 -14,-6 -23,-7 -8,-1 -16,-1 -25,1 -8,1 -16,4 -23,8 13,-16 29,-28 46,-37 18,-8 37,-13 58,-13z"/>
   <path class="fil2" d="M846 665l51 0c39,0 81,-26 81,-77 0,-51 -42,-77 -81,-77l-51 0 0 154zm16 -140l30 0c47,0 69,31 69,63 0,32 -22,63 -69,63l-30 0 0 -126z"/>
   <path id="1" class="fil2" d="M1022 563l-15 0 0 102 15 0 0 -102zm3 -39c0,-6 -5,-10 -10,-10 -6,0 -11,4 -11,10 0,6 5,10 11,10 5,0 10,-4 10,-10z"/>
   <path id="2" class="fil2" d="M1054 697c13,14 28,20 49,20 45,0 54,-31 54,-53l0 -101 -14 0 0 17 -1 0c-11,-16 -27,-19 -39,-19 -30,0 -52,23 -52,52 0,30 24,52 53,52 15,0 29,-5 38,-19l1 0 0 18c0,22 -11,40 -40,40 -16,0 -30,-7 -39,-19l-10 12zm13 -84c0,-22 16,-39 38,-39 24,0 38,17 38,39 1,23 -17,39 -38,39 -22,0 -38,-18 -38,-39z"/>
   <path id="3" class="fil2" d="M1207 563l-14 0 0 102 14 0 0 -102zm3 -39c0,-6 -5,-10 -10,-10 -5,0 -11,4 -11,10 0,6 6,10 11,10 5,0 10,-4 10,-10z"/>
   <path id="4" class="fil2" d="M1294 563l-29 0 0 -29 -15 0 0 29 -21 0 0 13 21 0 0 64c0,23 15,28 26,28 7,0 14,-2 19,-4l-1 -13c-4,2 -9,4 -14,4 -9,0 -15,-4 -15,-19l0 -60 29 0 0 -13z"/>
   <path id="5" class="fil2" d="M1372 603c-24,0 -63,2 -63,35 0,20 17,30 35,30 16,0 27,-6 35,-20l1 0c0,6 0,12 1,17l14 0c-1,-5 -2,-15 -2,-23l0 -45c0,-25 -17,-36 -37,-36 -19,0 -34,5 -43,14l9 11c9,-8 19,-12 31,-12 18,0 26,8 26,26l0 3 -7 0zm7 11l0 8c0,18 -10,33 -31,33 -11,0 -24,-6 -24,-19 0,-21 33,-22 48,-22l7 0z"/>
   <polygon id="6" class="fil2" points="1444,501 1430,501 1430,665 1444,665 "/>
   <path id="7" class="fil2" d="M1559 625l79 0 17 40 18 0 -67 -154 -15 0 -67 154 18 0 17 -40zm39 -96l34 81 -67 0 33 -81z"/>
   <path id="8" class="fil2" d="M1790 501l-14 0 0 79 -1 0c-9,-14 -26,-19 -39,-19 -32,0 -54,22 -54,53 0,31 22,54 54,54 13,0 30,-6 39,-20l1 0 0 17 14 0 0 -164zm-93 113c0,-23 15,-40 39,-40 23,0 40,17 40,40 0,23 -17,41 -40,41 -24,0 -39,-18 -39,-41z"/>
   <polygon id="9" class="fil2" points="1908,563 1891,563 1859,649 1859,649 1826,563 1809,563 1850,665 1866,665 "/>
   <path id="10" class="fil2" d="M2021 618l0 -7c0,-27 -18,-50 -48,-50 -29,0 -52,22 -52,53 0,31 23,54 53,54 17,0 32,-7 44,-22l-12 -9c-5,9 -17,18 -32,18 -20,0 -36,-17 -38,-37l85 0zm-84 -12c0,-17 17,-32 36,-32 20,0 33,13 33,32l-69 0z"/>
   <path id="11" class="fil2" d="M2049 665l14 0 0 -57c0,-14 10,-33 32,-33 4,0 6,0 8,1l3 -14c-3,-1 -7,-1 -11,-1 -18,0 -28,10 -32,21l-1 0 0 -19 -14 0c0,15 1,23 1,32l0 70z"/>
   <path id="12" class="fil2" d="M2172 563l-29 0 0 -29 -15 0 0 29 -21 0 0 13 21 0 0 64c0,23 15,28 26,28 7,0 14,-2 19,-4l-1 -13c-4,2 -9,4 -14,4 -9,0 -15,-4 -15,-19l0 -60 29 0 0 -13z"/>
   <path id="13" class="fil2" d="M2209 563l-14 0 0 102 14 0 0 -102zm4 -39c0,-6 -6,-10 -11,-10 -5,0 -10,4 -10,10 0,6 5,10 10,10 5,0 11,-4 11,-10z"/>
   <path id="14" class="fil2" d="M2311 579c-7,-13 -20,-18 -34,-18 -19,0 -38,9 -38,30 0,20 19,25 26,27l14 3c11,3 20,6 20,17 0,11 -13,17 -24,17 -12,0 -21,-7 -27,-16l-12 9c9,14 23,20 39,20 19,0 39,-10 39,-32 0,-14 -10,-24 -25,-28l-14 -3c-13,-3 -20,-7 -20,-16 0,-11 11,-15 21,-15 10,0 18,5 22,13l13 -8z"/>
   <path id="15" class="fil2" d="M2354 563l-14 0 0 102 14 0 0 -102zm4 -39c0,-6 -6,-10 -11,-10 -5,0 -10,4 -10,10 0,6 5,10 10,10 5,0 11,-4 11,-10z"/>
   <path id="16" class="fil2" d="M2388 563c0,8 1,17 1,23l0 79 14 0 0 -52c0,-37 28,-39 31,-39 21,0 28,12 28,35l0 56 14 0 0 -65c0,-25 -12,-39 -38,-39 -14,0 -28,7 -34,18l-1 0c0,-5 0,-10 0,-16l-15 0z"/>
   <path id="17" class="fil2" d="M2507 697c13,14 29,20 49,20 46,0 55,-31 55,-53l0 -101 -15 0 0 17 0 0c-12,-16 -27,-19 -40,-19 -30,0 -51,23 -51,52 0,30 23,52 53,52 14,0 29,-5 38,-19l0 0 0 18c0,22 -10,40 -39,40 -17,0 -31,-7 -39,-19l-11 12zm13 -84c0,-22 17,-39 38,-39 24,0 39,17 39,39 1,23 -18,39 -39,39 -21,0 -38,-18 -38,-39z"/>
   <path id="18" class="fil2" d="M2723 625l79 0 17 40 18 0 -67 -154 -15 0 -67 154 18 0 17 -40zm39 -96l33 81 -66 0 33 -81z"/>
   <path id="19" class="fil2" d="M2850 697c13,14 28,20 49,20 45,0 54,-31 54,-53l0 -101 -14 0 0 17 -1 0c-11,-16 -27,-19 -39,-19 -30,0 -52,23 -52,52 0,30 24,52 53,52 15,0 29,-5 38,-19l1 0 0 18c0,22 -11,40 -40,40 -16,0 -30,-7 -39,-19l-10 12zm13 -84c0,-22 16,-39 38,-39 24,0 38,17 38,39 1,23 -17,39 -38,39 -22,0 -38,-18 -38,-39z"/>
   <path id="20" class="fil2" d="M3080 618l0 -7c0,-27 -18,-50 -48,-50 -29,0 -52,22 -52,53 0,31 23,54 53,54 17,0 32,-7 44,-22l-12 -9c-5,9 -17,18 -32,18 -20,0 -36,-17 -38,-37l85 0zm-84 -12c0,-17 17,-32 36,-32 20,0 33,13 33,32l-69 0z"/>
   <path id="21" class="fil2" d="M3105 563c1,8 1,17 1,23l0 79 15 0 0 -52c0,-37 28,-39 31,-39 21,0 27,12 27,35l0 56 15 0 0 -65c0,-25 -13,-39 -39,-39 -13,0 -28,7 -34,18l0 0c0,-5 0,-10 -1,-16l-15 0z"/>
   <path id="22" class="fil2" d="M3313 578c-10,-12 -23,-17 -37,-17 -33,-1 -54,22 -54,53 0,31 21,54 54,54 14,-1 27,-6 37,-18l-12 -9c-4,7 -14,14 -25,14 -24,0 -38,-18 -38,-41 0,-23 14,-41 38,-40 11,0 21,6 25,13l12 -9z"/>
   <path id="23" class="fil2" d="M3338 563l-18 0 42 103 -8 20c-4,11 -9,18 -19,18 -4,0 -8,-1 -11,-2l-2 14c5,1 9,1 14,1 17,0 26,-10 32,-25l51 -129 -18 0 -31 84 -32 -84z"/>
  </g>
 </g>
</svg>
