<?xml version="1.0" encoding="UTF-8"?>
<!DOCTYPE svg PUBLIC "-//W3C//DTD SVG 1.1//EN" "http://www.w3.org/Graphics/SVG/1.1/DTD/svg11.dtd">
<!-- Creator: CorelDRAW X7 -->
<svg xmlns="http://www.w3.org/2000/svg" xml:space="preserve" width="228.741mm" height="141.111mm" version="1.1" style="shape-rendering:geometricPrecision; text-rendering:geometricPrecision; image-rendering:optimizeQuality; fill-rule:evenodd; clip-rule:evenodd"
viewBox="0 0 3781 2333"
 xmlns:xlink="http://www.w3.org/1999/xlink">
 <defs>
  <style type="text/css">
   <![CDATA[
    .str0 {stroke:#2A2C41;stroke-width:1.25971}
    .fil3 {fill:#FEFEFE}
    .fil37 {fill:#F9C779}
    .fil28 {fill:#F7B961}
    .fil19 {fill:#F3A782}
    .fil20 {fill:#EF876D}
    .fil16 {fill:#EA5D57}
    .fil5 {fill:#E74384}
    .fil24 {fill:#F0ECEE}
    .fil36 {fill:#EAA855}
    .fil9 {fill:#E4E0E7}
    .fil29 {fill:#DB943F}
    .fil2 {fill:#E0DEE4}
    .fil0 {fill:#DCE3F1}
    .fil4 {fill:#CF3169}
    .fil25 {fill:#D3CCD2}
    .fil15 {fill:#CFC7CD}
    .fil27 {fill:#CBD1D3}
    .fil1 {fill:#B7C6E4}
    .fil8 {fill:#ACC2E1}
    .fil31 {fill:#AAADD6}
    .fil6 {fill:#ACACBA}
    .fil22 {fill:#ABA8B5}
    .fil30 {fill:#92A2B2}
    .fil23 {fill:#9995A2}
    .fil7 {fill:#7CA2CE}
    .fil32 {fill:#8188C1}
    .fil33 {fill:#7079B8}
    .fil18 {fill:#545B6E}
    .fil17 {fill:#42455B}
    .fil26 {fill:#282429}
    .fil35 {fill:#3F477F}
    .fil10 {fill:#3E4161}
    .fil21 {fill:#28252D}
    .fil14 {fill:#2B2B3F}
    .fil12 {fill:#0074B6}
    .fil11 {fill:#2A2C41}
    .fil34 {fill:#2C3665}
    .fil13 {fill:#214B80}
   ]]>
  </style>
 </defs>
 <g id="Layer_x0020_1">
  <metadata id="CorelCorpID_0Corel-Layer"/>
  <path class="fil0" d="M3373 118c-33,0 -59,-26 -59,-59 0,-33 26,-59 59,-59 33,0 59,26 59,59 0,33 -26,59 -59,59zm-2509 1417l-308 0 -8 0c-169,0 -308,139 -308,309l0 0c0,170 139,309 308,309l902 0 156 0 1612 0c275,0 500,-226 500,-501l0 0c0,-275 -225,-500 -500,-500l0 0c-117,0 -212,-95 -212,-211l0 0c0,-117 95,-212 212,-212l254 0c121,0 220,-99 220,-220l0 0c0,-121 -99,-220 -220,-220l-322 0c-47,0 -85,-38 -85,-85l0 0c0,-47 38,-86 85,-86l57 0c33,0 59,-26 59,-59l0 0c0,-32 -26,-59 -59,-59l-212 0c0,0 -82,0 -160,0 -79,0 -87,93 -285,93 -307,0 -265,0 -571,0 -42,0 -77,34 -77,77l0 0c0,42 35,77 77,77l74 0c61,0 112,50 112,112l0 0c0,61 -51,111 -112,111l-111 0c-301,0 -344,79 -396,235 -53,157 -327,169 -327,169l-374 0c-93,0 -168,76 -168,169l0 0c0,92 75,168 168,168l19 0c89,0 162,73 162,162l0 0c0,89 -73,162 -162,162l0 0z"/>
  <path class="fil1" d="M498 1236c-6,1 -10,3 -15,6 -5,3 -9,6 -13,10 -1,0 -2,0 -3,0l-17 -10 0 0c-1,-1 -2,-1 -3,0 -1,0 -2,0 -3,2l0 0 -12 21c-1,1 -1,2 0,3 0,1 1,2 2,3l0 0 17 10c1,0 1,1 1,2l0 0c-1,3 -1,5 -1,8 -1,3 -1,5 -1,8 0,3 0,5 1,8 0,3 0,5 1,8 0,1 0,2 -1,3l-17 9 0 0c-1,1 -2,2 -2,3 -1,1 -1,2 0,3l12 22c1,1 2,1 3,2 1,0 2,0 3,-1l0 0 17 -10c1,0 2,0 3,0 4,4 8,7 13,10 5,3 10,5 15,6 1,1 1,2 1,3l0 20c0,1 1,2 2,3 0,0 1,1 3,1l24 0c1,0 2,-1 3,-1 1,-1 1,-2 1,-3l0 -20c0,-2 1,-2 2,-3 5,-1 10,-3 15,-6 4,-3 9,-6 13,-10 0,0 2,0 2,0l18 10c1,1 2,1 3,1 1,-1 2,-1 3,-2l0 -1 12 -21c0,-1 1,-2 0,-3 0,-1 -1,-2 -2,-3l-17 -10c-1,0 -1,-1 -1,-2l0 0c0,-3 1,-5 1,-8 1,-3 1,-5 1,-8 0,-3 0,-5 -1,-8 0,-3 -1,-5 -1,-8 0,-1 0,-2 1,-2l17 -10c1,-1 2,-2 2,-3 1,-1 0,-2 0,-3l0 0 -12 -21 0 0c-1,-2 -2,-2 -3,-2 -1,-1 -2,-1 -3,0l0 0 -18 10c-1,0 -2,0 -2,0 -4,-4 -9,-7 -13,-10 -5,-3 -10,-5 -15,-6 -1,-1 -2,-2 -2,-3l0 -19c0,-2 0,-3 -1,-4 -1,0 -2,-1 -3,-1l-24 0c-2,0 -3,1 -3,1 -1,1 -2,2 -2,4l0 19c0,2 0,2 -1,3zm-8 37c6,-7 16,-11 26,-11 10,0 20,4 26,11 7,6 11,16 11,26 0,10 -4,20 -11,26 -6,7 -16,11 -26,11 -10,0 -20,-4 -26,-11 -7,-6 -11,-16 -11,-26 0,-10 4,-20 11,-26l0 0zm-20 73l0 0z"/>
  <path class="fil1" d="M1272 723c0,-4 -3,-7 -7,-7 -3,0 -6,3 -6,7l0 15 -15 0c-4,0 -7,3 -7,6 0,4 3,7 7,7l15 0 0 15c0,3 3,6 6,6 4,0 7,-3 7,-6l0 -15 15 0c3,0 6,-3 6,-7 0,-3 -3,-6 -6,-6l-15 0 0 -15z"/>
  <path class="fil1" d="M1691 197c-5,1 -10,3 -14,6 -5,3 -9,6 -13,10 -1,0 -2,0 -3,0l-17 -10 0 0c-1,-1 -2,-1 -3,-1 -1,1 -2,1 -3,2l0 1 -12 21c-1,1 -1,2 -1,3 1,1 1,2 2,3l0 0 18 9c1,1 1,2 1,3l0 0c-1,3 -1,5 -2,8 0,3 0,5 0,8 0,3 0,5 0,8 1,3 1,5 2,8 0,1 -1,2 -1,2l-18 10 0 0c-1,1 -1,2 -2,3 0,1 0,2 1,3l12 21 0 0c1,1 2,2 3,2 1,1 2,1 3,0l0 0 17 -10c1,-1 2,0 3,0 4,4 8,7 13,10 4,3 9,5 14,6 1,1 2,1 2,2l0 20c0,2 1,3 1,3 1,1 2,2 3,2l25 0c1,0 2,-1 3,-2 1,0 1,-1 1,-3l0 -20c0,-1 1,-2 2,-2 5,-1 10,-3 15,-6 4,-3 9,-6 12,-10 1,0 2,0 3,0l17 10c1,1 3,1 4,0 1,0 2,-1 2,-2l0 0 13 -21c0,-1 0,-2 0,-3 0,-1 -1,-2 -2,-3l-17 -10c-1,0 -2,-1 -1,-2l0 0c0,-3 1,-5 1,-8 0,-3 1,-5 1,-8 0,-3 -1,-5 -1,-8 0,-3 -1,-5 -1,-8 -1,-1 0,-2 1,-3l17 -9c1,-1 2,-2 2,-3 0,-1 0,-2 0,-3l-1 0 -12 -22 0 0c0,-1 -1,-1 -2,-2 -1,0 -3,0 -4,1l0 0 -17 10c-1,0 -2,0 -3,-1 -3,-3 -8,-6 -12,-9 -5,-3 -10,-5 -15,-6 -1,-1 -2,-2 -2,-3l0 -20c0,-1 0,-2 -1,-3 -1,0 -2,-1 -3,-1l-25 0c-1,0 -2,1 -3,1 0,1 -1,2 -1,3l0 20c0,1 -1,2 -2,3zm-8 37c7,-7 16,-11 27,-11 10,0 19,4 26,11 7,6 11,16 11,26 0,10 -4,20 -11,26 -7,7 -16,11 -26,11 -11,0 -20,-4 -27,-11 -6,-6 -11,-16 -11,-26 0,-10 5,-20 11,-26l0 0zm-19 73l0 0z"/>
  <path class="fil1" d="M3760 139c0,-4 -3,-6 -6,-6 -4,0 -7,2 -7,6l0 15 -15 0c-3,0 -6,3 -6,6 0,4 3,7 6,7l15 0 0 15c0,3 3,6 7,6 3,0 6,-3 6,-6l0 -15 15 0c4,0 6,-3 6,-7 0,-3 -2,-6 -6,-6l-15 0 0 -15z"/>
  <path class="fil1" d="M34 1806c0,-3 -3,-6 -6,-6 -4,0 -7,3 -7,6l0 15 -15 0c-3,0 -6,3 -6,7 0,3 3,6 6,6l15 0 0 15c0,4 3,7 7,7 3,0 6,-3 6,-7l0 -15 15 0c4,0 7,-3 7,-6 0,-4 -3,-7 -7,-7l-15 0 0 -15z"/>
  <path class="fil1" d="M2099 535c-5,1 -10,3 -14,6 -5,3 -9,6 -13,10 -1,0 -2,0 -3,0l-17 -10 0 0c-1,-1 -2,-1 -3,0 -1,0 -2,0 -3,2l0 0 -12 21c-1,1 -1,2 -1,3 1,1 1,2 2,3l0 0 18 10c1,0 1,1 1,2l0 0c-1,3 -1,5 -2,8 0,3 0,5 0,8 0,3 0,5 0,8 1,3 1,5 2,8 0,1 -1,2 -1,3l-18 9 0 0c-1,1 -1,2 -2,3 0,1 0,2 1,3l12 22 0 0c1,1 2,1 3,2 1,0 2,0 3,-1l0 0 17 -10c1,0 2,0 3,0 4,4 8,7 13,10 4,3 9,5 14,6 1,1 2,2 2,3l0 20c0,1 1,2 1,3 1,0 2,1 3,1l25 0c1,0 2,-1 3,-1 1,-1 1,-2 1,-3l0 -20c0,-2 1,-2 2,-3 5,-1 10,-3 15,-6 4,-3 9,-6 12,-10 1,0 2,0 3,0l17 10c1,1 3,1 4,1 1,-1 2,-1 2,-2l0 -1 13 -21c0,-1 0,-2 0,-3 0,-1 -1,-2 -2,-3l-17 -10c-1,0 -2,-1 -1,-2l0 0c0,-3 1,-5 1,-8 0,-3 1,-5 1,-8 0,-3 -1,-5 -1,-8 0,-3 -1,-5 -1,-8 -1,-1 0,-2 1,-2l17 -10c1,-1 2,-2 2,-3 0,-1 0,-2 0,-3l-1 0 -12 -21c0,-2 -1,-2 -2,-2 -1,-1 -3,-1 -4,0l0 0 -17 10c-1,0 -2,0 -3,0 -4,-4 -8,-7 -12,-10 -5,-3 -10,-5 -15,-6 -1,-1 -2,-2 -2,-3l0 -19c0,-2 0,-3 -1,-4 -1,0 -2,-1 -3,-1l-25 0c-1,0 -2,1 -3,1 0,1 -1,2 -1,4l0 19c0,2 -1,2 -2,3zm-8 37c7,-7 16,-11 27,-11 10,0 19,4 26,11 7,6 11,16 11,26 0,10 -4,20 -11,26 -7,7 -16,11 -26,11 -11,0 -20,-4 -27,-11 -6,-6 -11,-16 -11,-26 0,-10 5,-20 11,-26l0 0zm-19 73l0 0z"/>
  <path class="fil1" d="M1839 550c0,-3 -3,-6 -6,-6 -4,0 -6,3 -6,6l0 15 -15 0c-4,0 -7,3 -7,7 0,3 3,6 7,6l15 0 0 15c0,4 2,6 6,6 3,0 6,-2 6,-6l0 -15 15 0c4,0 7,-3 7,-6 0,-4 -3,-7 -7,-7l-15 0 0 -15z"/>
  <path class="fil1" d="M1305 941c0,-4 -3,-6 -6,-6 -4,0 -7,2 -7,6l0 15 -15 0c-3,0 -6,3 -6,6 0,4 3,7 6,7l15 0 0 15c0,3 3,6 7,6 3,0 6,-3 6,-6l0 -15 15 0c4,0 7,-3 7,-7 0,-3 -3,-6 -7,-6l-15 0 0 -15z"/>
  <path class="fil1" d="M3430 903c0,-3 -3,-6 -6,-6 -4,0 -7,3 -7,6l0 15 -15 0c-3,0 -6,3 -6,7 0,3 3,6 6,6l15 0 0 15c0,4 3,6 7,6 3,0 6,-2 6,-6l0 -15 15 0c4,0 6,-3 6,-6 0,-4 -2,-7 -6,-7l-15 0 0 -15z"/>
  <g id="_2353542568256">
   <path class="fil2" d="M2912 2053l289 0c14,0 25,-11 25,-25l0 -496c0,-14 -11,-26 -25,-26l-289 0c-14,0 -25,12 -25,26l0 496c0,14 11,25 25,25z"/>
   <path class="fil3" d="M3207 2053l234 0c11,0 21,-9 21,-21l0 -504c0,-12 -10,-22 -21,-22l-234 0c-12,0 -21,10 -21,22l0 504c0,12 9,21 21,21z"/>
   <path class="fil3" d="M2829 1714l299 0c0,-53 58,-59 58,-59l-299 0c0,0 -58,6 -58,59z"/>
   <path class="fil4" d="M2887 1965l309 0c9,0 17,8 17,17l0 109c0,9 -8,16 -17,16l-309 0c-10,0 -17,-7 -17,-16l0 -109c0,-9 7,-17 17,-17z"/>
   <path class="fil5" d="M3187 1965l67 0 0 0 0 0 0 0c2,0 19,1 28,21 10,22 9,43 37,43 28,0 -12,0 13,0 29,0 28,-22 38,-43 9,-20 25,-21 27,-21l0 0 0 0 0 0 64 0c10,0 17,8 17,17l0 109c0,9 -7,16 -17,16l-274 0c-10,0 -17,-7 -17,-16l0 -109c0,-9 7,-17 17,-17z"/>
   <path class="fil3" d="M2829 1902l299 0c0,-54 58,-60 58,-60l-299 0c0,0 -58,6 -58,60z"/>
   <path class="fil6" d="M3511 1812l-272 0c0,-53 -53,-59 -53,-59l272 0c0,0 53,6 53,59z"/>
   <path class="fil2" d="M3229 1566l209 0c5,0 9,4 9,9l0 0c0,5 -4,9 -9,9l-209 0c-5,0 -9,-4 -9,-9l0 0c0,-5 4,-9 9,-9z"/>
   <path class="fil2" d="M3229 1667l209 0c5,0 9,4 9,9l0 0c0,5 -4,9 -9,9l-209 0c-5,0 -9,-4 -9,-9l0 0c0,-5 4,-9 9,-9z"/>
   <path class="fil2" d="M3229 1879l209 0c5,0 9,4 9,9l0 0c0,5 -4,9 -9,9l-209 0c-5,0 -9,-4 -9,-9l0 0c0,-5 4,-9 9,-9z"/>
   <path class="fil6" d="M2931 1558l201 0c5,0 10,4 10,9l0 0c0,6 -5,10 -10,10l-201 0c-5,0 -9,-4 -9,-10l0 0c0,-5 4,-9 9,-9z"/>
   <path class="fil6" d="M2931 1786l201 0c5,0 10,5 10,10l0 0c0,5 -5,9 -10,9l-201 0c-5,0 -9,-4 -9,-9l0 0c0,-5 4,-10 9,-10z"/>
   <path class="fil6" d="M2931 1932l201 0c5,0 10,5 10,10l0 0c0,5 -5,9 -10,9l-201 0c-5,0 -9,-4 -9,-9l0 0c0,-5 4,-10 9,-10z"/>
   <path class="fil2" d="M2764 2075l175 0c8,0 15,-7 15,-16l0 -300c0,-8 -7,-15 -15,-15l-175 0c-8,0 -15,7 -15,15l0 300c0,9 7,16 15,16z"/>
   <path class="fil3" d="M2943 2075l141 0c7,0 13,-6 13,-13l0 -305c0,-8 -6,-13 -13,-13l-141 0c-7,0 -13,5 -13,13l0 305c0,7 6,13 13,13z"/>
   <path class="fil3" d="M2714 1869l181 0c0,-32 35,-36 35,-36l-181 0c0,0 -35,4 -35,36z"/>
   <path class="fil4" d="M2749 2021l187 0c6,0 10,5 10,11l0 65c0,6 -4,10 -10,10l-187 0c-6,0 -10,-4 -10,-10l0 -65c0,-6 4,-11 10,-11z"/>
   <path class="fil5" d="M2930 2021l41 0 0 0 0 0c1,0 11,1 17,13 6,13 5,26 23,26 16,0 -8,0 7,0 18,0 17,-13 23,-26 6,-12 16,-13 17,-13l0 0 0 0 0 0 39 0c5,0 10,5 10,11l0 65c0,6 -5,10 -10,10l-167 0c-5,0 -10,-4 -10,-10l0 -65c0,-6 5,-11 10,-11z"/>
   <path class="fil3" d="M2714 1983l181 0c0,-33 35,-36 35,-36l-181 0c0,0 -35,3 -35,36z"/>
   <path class="fil6" d="M3126 1929l-164 0c0,-33 -32,-36 -32,-36l164 0c0,0 32,3 32,36z"/>
   <path class="fil2" d="M2956 1780l126 0c3,0 6,2 6,5l0 0c0,3 -3,6 -6,6l-126 0c-3,0 -6,-3 -6,-6l0 0c0,-3 3,-5 6,-5z"/>
   <path class="fil2" d="M2956 1841l126 0c3,0 6,2 6,5l0 0c0,4 -3,6 -6,6l-126 0c-3,0 -6,-2 -6,-6l0 0c0,-3 3,-5 6,-5z"/>
   <path class="fil2" d="M2956 1969l126 0c3,0 6,2 6,5l0 0c0,4 -3,6 -6,6l-126 0c-3,0 -6,-2 -6,-6l0 0c0,-3 3,-5 6,-5z"/>
   <path class="fil6" d="M2776 1775l121 0c3,0 6,3 6,6l0 0c0,3 -3,5 -6,5l-121 0c-4,0 -6,-2 -6,-5l0 0c0,-3 2,-6 6,-6z"/>
   <path class="fil6" d="M2776 1913l121 0c3,0 6,3 6,6l0 0c0,3 -3,5 -6,5l-121 0c-4,0 -6,-2 -6,-5l0 0c0,-3 2,-6 6,-6z"/>
   <path class="fil6" d="M2776 2002l121 0c3,0 6,2 6,5l0 0c0,3 -3,6 -6,6l-121 0c-4,0 -6,-3 -6,-6l0 0c0,-3 2,-5 6,-5z"/>
  </g>
  <path class="fil1" d="M3734 2136c0,-3 -3,-6 -6,-6 -4,0 -7,3 -7,6l0 15 -15 0c-3,0 -6,3 -6,7 0,3 3,6 6,6l15 0 0 15c0,4 3,7 7,7 3,0 6,-3 6,-7l0 -15 15 0c4,0 6,-3 6,-6 0,-4 -2,-7 -6,-7l-15 0 0 -15z"/>
  <g id="_2353551918368">
   <path class="fil7" d="M1008 1661l-271 0c-11,0 -20,9 -20,20l0 192c0,11 9,20 20,20l271 0c11,0 20,-9 20,-20l0 -192c0,-11 -9,-20 -20,-20z"/>
   <path class="fil8" d="M1186 1661l-271 0c-11,0 -20,9 -20,20l0 192c0,11 9,20 20,20l271 0c12,0 20,-9 20,-20l0 -192c0,-11 -8,-20 -20,-20z"/>
   <path class="fil7" d="M1151 1737l-201 0c-6,0 -11,6 -11,12l0 56c0,6 5,11 11,11l201 0c7,0 12,-5 12,-11l0 -56c0,-6 -5,-12 -12,-12z"/>
   <path class="fil9" d="M1063 1751l-99 0c-1,0 -2,1 -2,2l0 12c0,2 1,3 2,3l99 0c2,0 3,-1 3,-3l0 -12c0,-1 -1,-2 -3,-2z"/>
   <path class="fil9" d="M1013 1778l-49 0c-1,0 -2,1 -2,2l0 13c0,1 1,2 2,2l49 0c2,0 3,-1 3,-2l0 -13c0,-1 -1,-2 -3,-2z"/>
   <path class="fil7" d="M914 1893l326 0c13,0 24,10 24,24l0 229c0,13 -11,24 -24,24l-326 0c-13,0 -24,-11 -24,-24l0 -229c0,-14 11,-24 24,-24z"/>
   <path class="fil8" d="M701 1893l325 0c14,0 24,10 24,24l0 229c0,13 -10,24 -24,24l-325 0c-13,0 -24,-11 -24,-24l0 -229c0,-14 11,-24 24,-24z"/>
   <path class="fil7" d="M743 1984l241 0c8,0 14,6 14,14l0 67c0,7 -6,13 -14,13l-241 0c-7,0 -14,-6 -14,-13l0 -67c0,-8 7,-14 14,-14z"/>
   <path class="fil9" d="M848 2000l119 0c1,0 3,2 3,3l0 15c0,1 -2,3 -3,3l-119 0c-1,0 -3,-2 -3,-3l0 -15c0,-1 2,-3 3,-3z"/>
   <path class="fil9" d="M908 2033l59 0c1,0 3,1 3,3l0 14c0,2 -2,3 -3,3l-59 0c-1,0 -3,-1 -3,-3l0 -14c0,-2 2,-3 3,-3z"/>
   <path class="fil10" d="M712 2087c16,6 34,-2 41,-19 6,-16 -2,-34 -19,-41 -16,-6 -35,2 -41,19 -6,16 2,35 19,41z"/>
   <path class="fil10" d="M437 2140l444 0c22,0 40,-18 40,-40l0 0c0,-22 -18,-40 -40,-40l-444 0c-22,0 -40,18 -40,40l0 0c0,22 18,40 40,40z"/>
   <path class="fil11" d="M595 2140l444 0c22,0 40,-18 40,-40l0 0c0,-22 -18,-40 -40,-40l-444 0c-22,0 -40,18 -40,40l0 0c0,22 18,40 40,40z"/>
   <path class="fil12" d="M1239 2035l-217 0c-9,0 -17,4 -23,10 -6,6 -9,14 -9,23 0,9 3,17 9,23 6,5 14,9 23,9l217 0c9,0 17,-4 22,-9 6,-6 10,-14 10,-23 0,-9 -4,-17 -10,-23 -5,-6 -13,-10 -22,-10z"/>
   <path class="fil3" d="M754 2039l277 0c16,0 29,13 29,29l0 0c0,15 -13,28 -29,28l-277 0 0 -57z"/>
   <path class="fil13" d="M754 2035c-2,0 -4,2 -4,4 0,2 2,4 4,4l277 0c7,0 13,3 18,7 4,5 7,11 7,18 0,6 -3,13 -7,17 -5,5 -11,7 -18,7l-277 0c-2,0 -4,2 -4,4 0,2 2,4 4,4l277 0c9,0 17,-4 23,-9 6,-6 10,-14 10,-23 0,-9 -4,-17 -10,-23 -6,-6 -14,-10 -23,-10l-277 0z"/>
   <path class="fil13" d="M1229 2068c0,-9 -4,-17 -10,-23 -6,-6 -14,-10 -23,-10l28 0c9,0 17,4 23,10 6,6 10,14 10,23 0,9 -4,17 -10,23 -6,5 -14,9 -23,9l-28 0c9,0 17,-4 23,-9 6,-6 10,-14 10,-23z"/>
   <path class="fil13" d="M1188 2068c0,-9 -4,-17 -10,-23 -6,-6 -14,-10 -23,-10l29 0c9,0 17,4 22,10 6,6 10,14 10,23 0,9 -4,17 -10,23 -5,5 -13,9 -22,9l-29 0c9,0 17,-4 23,-9 6,-6 10,-14 10,-23z"/>
   <path class="fil5" d="M811 1979l190 0c8,0 15,3 20,8 5,5 8,12 8,20 0,8 -3,15 -8,20 -5,5 -12,8 -20,8l-190 0c-8,0 -15,-3 -20,-8 -5,-5 -8,-12 -8,-20 0,-8 3,-15 8,-20 5,-5 12,-8 20,-8z"/>
   <path class="fil3" d="M1235 1982l-242 0c-14,0 -25,11 -25,25l0 0c0,14 11,25 25,25l242 0 0 -50z"/>
   <path class="fil4" d="M1235 1979c2,0 4,1 4,3 0,2 -2,3 -4,3l-242 0c-6,0 -12,3 -16,7 -3,4 -6,9 -6,15 0,6 3,11 6,15 4,4 10,7 16,7l242 0c2,0 4,1 4,3 0,2 -2,3 -4,3l-242 0c-8,0 -15,-3 -20,-8 -5,-5 -9,-12 -9,-20 0,-8 4,-15 9,-20 5,-5 12,-8 20,-8l242 0z"/>
   <path class="fil4" d="M820 2007c0,-8 3,-15 8,-20 5,-5 12,-8 20,-8l-24 0c-8,0 -15,3 -20,8 -6,5 -9,12 -9,20 0,8 3,15 9,20 5,5 12,8 20,8l24 0c-8,0 -15,-3 -20,-8 -5,-5 -8,-12 -8,-20z"/>
   <path class="fil4" d="M856 2007c0,-8 3,-15 8,-20 5,-5 12,-8 20,-8l-25 0c-8,0 -15,3 -20,8 -5,5 -8,12 -8,20 0,8 3,15 8,20 5,5 12,8 20,8l25 0c-8,0 -15,-3 -20,-8 -5,-5 -8,-12 -8,-20z"/>
  </g>
  <path class="fil3" d="M1761 2107l-169 0c-16,0 -30,-13 -31,-29l0 0c-1,-16 11,-30 27,-30l170 0c16,0 30,14 31,30l0 0c1,16 -11,29 -28,29z"/>
  <g id="_2317299615872">
   <path class="fil1" d="M1865 1258c0,-4 -2,-6 -6,-6 -4,0 -6,2 -6,6l0 15 -15 0c-4,0 -7,3 -7,6 0,4 3,7 7,7l15 0 0 15c0,3 2,6 6,6 4,0 6,-3 6,-6l0 -15 15 0c4,0 7,-3 7,-7 0,-3 -3,-6 -7,-6l-15 0 0 -15z"/>
   <path class="fil14 str0" d="M2492 1375c0,0 39,12 69,49 17,20 224,419 238,444 13,26 13,92 -18,132 -13,16 -48,60 -86,107l-125 0c46,-67 105,-156 109,-163 7,-12 10,-23 -2,-43 -13,-20 -179,-222 -179,-222 0,0 -82,-229 -6,-304z"/>
   <path class="fil15" d="M2274 1343c0,0 209,29 218,32 10,2 25,23 33,37 8,14 18,219 23,276 4,57 -14,307 -9,374 1,11 3,27 5,45l-627 0c-8,-74 -64,-306 -68,-362 -5,-57 -29,-260 -23,-276 6,-15 18,-38 26,-42 9,-4 213,-67 213,-67l105 11 104 -28z"/>
   <path class="fil3" d="M2274 1343c0,0 14,2 35,5 -1,5 -4,9 -8,14 -81,93 -164,100 -260,21 -4,-4 -7,-8 -9,-13 20,-6 33,-10 33,-10l105 11 104 -28z"/>
   <path class="fil16" d="M2237 1141l2 52c0,0 9,106 10,123 1,7 10,18 25,27 -69,78 -128,83 -209,17 14,-11 21,-23 20,-31 -1,-16 -10,-123 -10,-123l-7 -51c0,0 43,3 86,9 42,-13 83,-23 83,-23z"/>
   <path class="fil14" d="M2291 1345c0,0 -24,105 -26,126 -2,21 -30,236 -27,272 1,17 34,184 70,364l285 0c-7,-43 -13,-81 -16,-103 -12,-76 -19,-236 -17,-335 3,-98 -22,-246 -25,-260 -3,-15 -31,-32 -39,-35l-205 -29z"/>
   <path class="fil17" d="M2260 1516c-9,71 -24,200 -22,227 0,0 139,-151 137,-166 -2,-15 -59,-126 -59,-126 0,0 -24,28 -56,65z"/>
   <path class="fil18" d="M2284 1344c0,0 6,-5 9,-6 2,0 39,13 39,13 0,0 55,86 56,97 1,11 -135,123 -135,123l12 -102c0,0 20,-99 26,-124l-7 -1z"/>
   <path class="fil14" d="M1855 1427c0,0 -36,19 -59,59 -14,24 -154,450 -163,478 -9,28 2,92 39,127 4,4 11,9 18,16l156 0c-41,-44 -79,-84 -82,-88 -9,-11 -14,-21 -5,-43 9,-21 140,-248 140,-248 0,0 44,-239 -44,-301z"/>
   <path class="fil14" d="M2048 1365c0,0 41,99 47,120 5,21 68,228 71,264 1,16 -4,180 -9,358l-283 0c0,-18 0,-34 0,-45 -1,-78 -20,-237 -38,-333 -19,-97 -19,-247 -18,-262 1,-14 25,-36 33,-41l197 -61z"/>
   <path class="fil17" d="M2107 1528c20,69 57,194 59,221 0,0 -162,-126 -162,-141 0,-16 37,-134 37,-134 0,0 29,23 66,54z"/>
   <path class="fil18" d="M2055 1363c0,0 -7,-5 -9,-4 -2,0 -37,19 -37,19 0,0 -40,94 -40,105 1,11 154,98 154,98l-29 -98c0,0 -35,-95 -46,-118l7 -2z"/>
   <path class="fil16" d="M1978 1173c-1,0 -2,0 -3,0l0 0 0 0c-19,6 -32,24 -30,45 1,23 22,41 46,40 24,-2 41,-23 40,-46 -1,-14 -9,-26 -19,-33 2,12 1,28 -15,31l-1 -25c-1,-10 -11,-13 -18,-12z"/>
   <path class="fil16" d="M2288 1144c1,0 2,0 3,1l0 0 0 0c20,2 36,17 38,38 3,23 -14,45 -38,47 -24,3 -45,-14 -48,-38 -1,-14 4,-27 13,-36 0,13 4,29 20,29l-3 -25c-1,-10 8,-15 15,-16z"/>
   <path class="fil19" d="M2114 944l0 0c-81,7 -141,80 -134,160l12 134c8,81 80,141 161,134l0 0c80,-8 141,-80 133,-161l-12 -133c-7,-81 -80,-141 -160,-134z"/>
   <path class="fil20" d="M1989 1039c-8,20 -11,42 -9,65l12 134c7,76 72,134 147,134 -86,-6 -102,-107 -108,-160 -7,-54 13,-66 21,-68 8,-3 132,-23 160,-27 27,-3 41,12 41,12l11 -16 -11 -36c0,0 10,0 21,0 -1,-10 -3,-19 -6,-28 -15,-6 -33,-12 -48,-22 -33,-21 -189,5 -214,5 -4,0 -10,3 -17,7z"/>
   <path class="fil11" d="M2265 1148c0,0 1,10 2,19 0,10 10,19 17,18l-2 -20c0,0 1,-16 20,-18 52,-71 35,-176 -32,-225 -67,-50 -200,-41 -222,-31 -23,10 -43,51 -43,51 0,0 -21,-16 -38,-5 -18,11 -68,132 -66,160 3,29 64,81 64,81 19,-2 23,13 23,13l2 21c7,0 14,-11 14,-21 -1,-9 -2,-19 -2,-19 0,0 1,0 2,-1 18,-11 14,-47 14,-47l-16 -23 32 -42 38 -13 85 3c0,0 100,13 92,42 -9,29 16,57 16,57z"/>
   <path class="fil21" d="M1905 1072c-3,11 -4,20 -4,25 2,23 76,130 92,154 9,-1 10,-64 9,-79 0,0 1,0 2,-1 18,-11 14,-47 14,-47l-16 -23 32 -42 36 -12c-18,-7 -23,-15 -23,-15 -74,75 -117,71 -142,40zm360 76c1,12 8,62 22,61 39,-82 75,-168 16,-253 -6,54 -60,88 -115,99 29,6 66,18 61,36 -9,29 16,57 16,57l0 0z"/>
   <path class="fil11" d="M1966 1151c0,0 -62,-134 62,-157 0,0 33,-65 99,-49 66,16 108,16 137,-13 0,0 17,32 -3,60 62,48 40,110 15,144 -10,-70 -194,8 -217,-59 -3,64 -70,48 -93,74z"/>
   <path class="fil21" d="M1966 1151c0,0 -12,-27 -15,-59 24,-2 55,-19 96,-60 0,0 16,24 93,27 46,2 105,-15 138,-51 40,46 20,98 -2,128 -10,-70 -194,8 -217,-59 -3,64 -70,48 -93,74z"/>
   <path class="fil22" d="M2523 2107l-931 0c-16,0 -30,-13 -31,-29l0 0c-1,-16 11,-30 27,-30l932 0c16,0 30,14 31,30l0 0c1,16 -11,29 -28,29z"/>
   <path class="fil23" d="M2523 2107l-931 0c-10,0 -20,-5 -26,-14 5,-8 14,-13 24,-13l932 0c10,0 20,5 26,13 -5,9 -14,14 -25,14z"/>
   <path class="fil23" d="M2543 2048l-745 0c-21,0 -38,-17 -36,-38l30 -483c2,-21 20,-39 41,-39l745 0c21,0 38,18 36,39l-30 483c-1,21 -20,38 -41,38z"/>
   <path class="fil3" d="M2543 2048l-723 0c-21,0 -38,-17 -36,-38l30 -483c1,-21 20,-39 41,-39l723 0c21,0 38,18 36,39l-30 483c-1,21 -20,38 -41,38z"/>
   <path class="fil24" d="M1906 1488l673 538c3,-5 5,-11 5,-16l5 -75 -559 -447 -124 0zm597 560l-74 0 -617 -493 2 -28c1,-8 4,-16 9,-23l680 544z"/>
   <path class="fil25" d="M2535 2063l-774 0c-9,0 -16,-7 -16,-15l0 0c-1,-8 6,-15 14,-15l775 0c8,0 15,7 15,15l0 0c1,8 -5,15 -14,15z"/>
  </g>
  <path class="fil26" d="M147 2100c15,0 28,12 28,27 0,15 -13,28 -28,28 -15,0 -27,-13 -27,-28 0,-15 12,-27 27,-27zm152 124l48 0c19,0 34,-16 34,-35l0 0c0,-19 -15,-34 -34,-34l-126 0c-15,0 -27,-13 -27,-28l0 0c0,-15 12,-27 27,-27l3315 0c15,0 27,12 27,27l0 0c0,15 -12,28 -27,28l-172 0c-19,0 -34,15 -34,34l0 0c0,19 15,35 34,35l40 0c30,0 55,24 55,54l0 0c0,30 -25,55 -55,55l-3105 0c-30,0 -55,-25 -55,-55l0 0c0,-30 25,-54 55,-54l0 0z"/>
  <g id="_2317300128640">
   <path class="fil27" d="M1421 2104c-66,0 -119,-15 -119,-33 0,-18 53,-33 119,-33 65,0 118,15 118,33 0,18 -53,33 -118,33z"/>
   <polygon class="fil28" points="1334,1840 1344,2063 1534,2060 1550,1841 "/>
   <path class="fil29" d="M1339 1841c0,15 48,26 106,26 58,0 100,-11 100,-26 0,-14 -42,-26 -100,-26 -58,0 -106,12 -106,26z"/>
   <path class="fil28" d="M1339 1841l-5 0c0,4 2,6 4,9 3,4 8,7 15,9 10,4 23,8 39,10 15,2 34,3 53,3 29,0 55,-3 73,-7 10,-3 17,-6 23,-9 2,-2 5,-4 7,-6 1,-3 3,-6 3,-9 0,-3 -2,-6 -3,-8 -4,-4 -8,-7 -14,-10 -10,-4 -22,-7 -37,-9 -15,-3 -33,-4 -52,-4 -30,0 -56,3 -76,8 -10,2 -18,5 -24,9 -3,1 -5,3 -7,6 -2,2 -4,5 -4,8l5 0 6 0c0,0 0,-1 1,-2 1,-1 5,-4 11,-6 8,-4 21,-7 36,-9 15,-2 33,-3 52,-3 29,0 53,3 71,7 8,2 15,5 19,8 2,1 4,2 4,3 1,1 1,2 1,2 0,1 0,1 -1,2 -1,2 -4,5 -10,7 -7,3 -19,6 -34,8 -14,3 -31,4 -50,4 -29,0 -55,-3 -73,-8 -10,-2 -17,-5 -22,-7 -2,-2 -4,-3 -4,-4 -1,-1 -1,-1 -1,-2l-6 0z"/>
   <path class="fil28" d="M1344 2062c0,14 49,30 99,30 50,0 91,-18 91,-32 0,-15 -40,-26 -89,-26 -50,0 -101,13 -101,28z"/>
   <path class="fil28" d="M1280 1944l-13 0c0,39 32,70 70,70 39,0 70,-31 70,-70 0,-38 -31,-70 -70,-70 -38,0 -70,32 -70,70l13 0 12 0c0,-12 5,-23 14,-32 8,-8 19,-13 31,-13 13,0 24,5 32,13 8,9 13,20 13,32 0,12 -5,24 -13,32 -8,8 -19,13 -32,13 -12,0 -23,-5 -31,-13 -9,-8 -14,-20 -14,-32l-12 0z"/>
   <path class="fil30" d="M1493 1857l0 85c0,2 1,4 3,4 2,0 3,-2 3,-4l0 -85c0,-2 -1,-4 -3,-4 -2,0 -3,2 -3,4z"/>
   <polygon class="fil3" points="1496,1921 1468,1950 1472,1995 1526,1993 1529,1941 "/>
  </g>
  <g id="_2317300132960">
   <path class="fil31" d="M1604 1016l-456 0c-33,0 -60,27 -60,59l0 280c0,33 27,60 60,60l205 0 -33 120 33 0 130 -120 121 0c33,0 59,-27 59,-60l0 -280c0,-32 -26,-59 -59,-59z"/>
   <path class="fil3" d="M1571 1016l-456 0c-33,0 -59,27 -59,59l0 280c0,33 26,60 59,60l205 0 0 120 130 -120 121 0c33,0 60,-27 60,-60l0 -280c0,-32 -27,-59 -60,-59z"/>
   <path class="fil32" d="M1213 1178c-8,0 -15,3 -19,10 -5,7 -7,16 -7,28 0,25 9,38 28,38 6,0 11,-1 17,-2 5,-2 11,-4 16,-6l0 29c-11,5 -23,8 -37,8 -19,0 -34,-6 -45,-17 -10,-12 -15,-28 -15,-50 0,-13 2,-25 7,-35 5,-10 12,-18 22,-24 9,-5 21,-8 33,-8 14,0 28,3 41,9l-11 28c-5,-2 -10,-4 -14,-6 -5,-1 -10,-2 -16,-2z"/>
   <path class="fil32" d="M1330 1281l-27 -94 -1 0c2,16 2,29 2,37l0 57 -31 0 0 -130 47 0 27 92 1 0 26 -92 47 0 0 130 -32 0 0 -57c0,-3 0,-6 0,-10 0,-4 0,-12 1,-26l-1 0 -26 93 -33 0z"/>
   <path class="fil32" d="M1534 1241c0,8 -2,16 -6,22 -4,6 -10,11 -18,14 -8,4 -17,6 -27,6 -9,0 -16,-1 -22,-2 -6,-1 -12,-4 -18,-7l0 -31c7,4 14,6 21,8 7,2 14,3 20,3 5,0 9,-1 11,-3 2,-1 4,-4 4,-7 0,-1 -1,-3 -2,-4 -1,-2 -2,-3 -4,-4 -3,-2 -8,-4 -18,-9 -8,-3 -15,-7 -19,-11 -4,-3 -7,-8 -9,-12 -2,-5 -3,-10 -3,-17 0,-12 4,-21 13,-28 9,-6 20,-10 36,-10 13,0 27,3 41,10l-11 27c-12,-6 -23,-9 -31,-9 -5,0 -8,1 -10,3 -2,1 -3,3 -3,6 0,2 1,4 3,6 3,2 10,6 22,11 11,5 19,11 23,17 5,5 7,13 7,21z"/>
  </g>
  <g id="_2317300132640">
   <path class="fil31" d="M3165 348l-403 0c-29,0 -53,24 -53,53l0 248c0,27 22,50 50,52l-29 99 29 0 106 -99 300 0c30,0 53,-23 53,-52l0 -248c0,-29 -24,-53 -53,-53z"/>
   <path class="fil3" d="M3137 348l-404 0c-29,0 -52,24 -52,53l0 248c0,27 21,50 49,52l0 99 106 -99 301 0c29,0 52,-23 52,-52l0 -248c0,-29 -23,-53 -52,-53z"/>
   <path class="fil32" d="M2835 467c-10,0 -18,4 -24,12 -6,9 -9,20 -9,35 0,31 12,46 35,46 8,0 14,0 21,-2 7,-2 13,-5 20,-8l0 37c-13,6 -28,9 -45,9 -24,0 -43,-7 -56,-21 -13,-14 -19,-34 -19,-61 0,-17 3,-31 9,-44 6,-12 15,-22 27,-29 12,-6 26,-10 41,-10 18,0 34,4 50,11l-13 35c-6,-3 -12,-6 -18,-7 -6,-2 -12,-3 -19,-3z"/>
   <polygon class="fil32" points="2941,529 2900,529 2900,500 2941,500 2941,460 2970,460 2970,500 3011,500 3011,529 2970,529 2970,569 2941,569 "/>
   <polygon class="fil32" points="3068,529 3027,529 3027,500 3068,500 3068,460 3097,460 3097,500 3138,500 3138,529 3097,529 3097,569 3068,569 "/>
  </g>
  <g id="_2317300135072">
   <path class="fil33" d="M2558 1104c0,89 72,162 161,162 90,0 162,-73 162,-162 0,-89 -72,-162 -162,-162 -89,0 -161,73 -161,162z"/>
   <path class="fil32" d="M2523 1104c0,89 72,162 162,162 89,0 161,-73 161,-162 0,-89 -72,-162 -161,-162 -90,0 -162,73 -162,162z"/>
   <path class="fil3" d="M2607 1073c-7,0 -12,3 -16,9 -4,5 -6,13 -6,23 0,20 8,31 23,31 5,0 10,-1 14,-2 5,-2 9,-3 13,-5l0 24c-8,4 -18,6 -30,6 -16,0 -28,-5 -37,-14 -8,-9 -13,-23 -13,-40 0,-11 3,-21 7,-29 4,-9 10,-15 18,-20 7,-4 17,-6 27,-6 12,0 23,2 33,7l-9 23c-4,-2 -8,-4 -12,-5 -3,-1 -8,-2 -12,-2z"/>
   <path class="fil3" d="M2726 1125c0,7 -2,13 -5,18 -4,5 -8,9 -15,12 -6,3 -13,4 -22,4 -7,0 -13,0 -18,-1 -5,-1 -10,-3 -15,-6l0 -25c6,3 11,5 17,6 6,2 12,3 17,3 4,0 7,-1 9,-3 2,-1 3,-3 3,-5 0,-2 0,-3 -1,-4 -1,-1 -2,-2 -4,-3 -2,-1 -7,-4 -14,-7 -7,-3 -12,-6 -16,-9 -3,-3 -6,-7 -8,-11 -1,-3 -2,-8 -2,-13 0,-10 4,-18 11,-23 7,-6 17,-8 29,-8 11,0 22,2 34,7l-9 22c-10,-4 -19,-6 -26,-6 -4,0 -6,0 -8,2 -2,1 -3,3 -3,4 0,3 2,4 4,6 2,2 8,5 17,9 9,4 16,9 19,13 4,5 6,11 6,18z"/>
   <path class="fil3" d="M2812 1125c0,7 -2,13 -5,18 -4,5 -8,9 -15,12 -6,3 -13,4 -22,4 -7,0 -13,0 -18,-1 -5,-1 -10,-3 -15,-6l0 -25c6,3 11,5 17,6 6,2 12,3 17,3 4,0 7,-1 9,-3 2,-1 3,-3 3,-5 0,-2 0,-3 -1,-4 -1,-1 -2,-2 -4,-3 -2,-1 -6,-4 -14,-7 -7,-3 -12,-6 -16,-9 -3,-3 -6,-7 -7,-11 -2,-3 -3,-8 -3,-13 0,-10 4,-18 11,-23 7,-6 17,-8 29,-8 11,0 22,2 34,7l-9 22c-10,-4 -19,-6 -26,-6 -3,0 -6,0 -8,2 -2,1 -2,3 -2,4 0,3 1,4 3,6 2,2 8,5 17,9 10,4 16,9 19,13 4,5 6,11 6,18z"/>
  </g>
  <g id="_2353548144176">
   <path class="fil33" d="M2508 294c0,-120 -98,-218 -218,-218 -120,0 -218,98 -218,218 0,120 98,218 218,218 29,0 58,-6 83,-17l27 63 36 0 0 -102c44,-40 72,-98 72,-162z"/>
   <path class="fil32" d="M2472 294c0,-120 -98,-218 -218,-218 -120,0 -218,98 -218,218 0,120 98,218 218,218 29,0 58,-6 83,-17l63 63 0 -102c44,-40 72,-98 72,-162z"/>
   <path class="fil3" d="M2177 399c-9,0 -17,0 -24,-2l0 -36c2,0 5,1 8,1 2,1 6,1 9,1 8,0 13,-2 16,-7 4,-4 5,-12 5,-24l0 -159 47 0 0 155c0,24 -5,41 -15,53 -10,12 -26,18 -46,18z"/>
   <path class="fil3" d="M2376 304c0,14 -5,25 -15,33 -9,7 -23,11 -42,11 -10,0 -18,-1 -25,-2 -8,-1 -15,-3 -23,-6l0 -37c7,3 15,6 24,8 8,2 16,3 22,3 10,0 15,-2 15,-7 0,-2 -1,-4 -4,-6 -3,-2 -11,-6 -24,-11 -12,-5 -21,-11 -26,-17 -5,-6 -7,-15 -7,-24 0,-13 5,-23 14,-29 10,-7 23,-11 41,-11 9,0 17,1 25,3 8,2 16,5 24,8l-13 30c-6,-3 -12,-5 -19,-7 -7,-2 -12,-3 -17,-3 -7,0 -11,2 -11,6 0,2 1,4 4,6 2,1 10,5 23,10 9,3 16,7 21,11 4,4 8,8 10,13 2,5 3,11 3,18z"/>
  </g>
  <g id="_2353548144016">
   <path class="fil34" d="M3352 951l-322 0c-25,0 -45,20 -45,45l0 322c0,25 20,45 45,45l189 0 74 89 30 0 0 -89 29 0c25,0 45,-20 45,-45l0 -322c0,-25 -20,-45 -45,-45z"/>
   <path class="fil35" d="M3322 951l-321 0c-26,0 -46,20 -46,45l0 322c0,25 20,45 46,45l188 0 104 89 0 -89 29 0c25,0 45,-20 45,-45l0 -322c0,-25 -20,-45 -45,-45z"/>
   <polygon class="fil3" points="3118,1209 3012,1162 3012,1144 3118,1090 3118,1122 3053,1151 3118,1178 "/>
   <polygon class="fil3" points="3221,1072 3164,1230 3127,1230 3185,1072 "/>
   <polygon class="fil3" points="3229,1178 3295,1151 3229,1122 3229,1090 3336,1144 3336,1162 3229,1209 "/>
  </g>
  <g id="_2353548145424">
   <path class="fil34" d="M2098 562l-283 0c-22,0 -40,18 -40,40l0 170c0,22 18,40 40,40l-17 80 30 0 86 -80 184 0c22,0 40,-18 40,-40l0 -170c0,-22 -18,-40 -40,-40z"/>
   <path class="fil35" d="M2068 562l-283 0c-22,0 -40,18 -40,40l0 170c0,22 18,40 40,40l13 0 0 80 86 -80 184 0c22,0 40,-18 40,-40l0 -170c0,-22 -18,-40 -40,-40z"/>
   <polygon class="fil3" points="1863,732 1850,732 1850,697 1815,697 1815,732 1802,732 1802,655 1815,655 1815,686 1850,686 1850,655 1863,655 "/>
   <polygon class="fil3" points="1910,732 1897,732 1897,666 1875,666 1875,655 1932,655 1932,666 1910,666 "/>
   <path class="fil3" d="M1978 732l-23 -64 0 0c0,9 1,18 1,26l0 38 -12 0 0 -77 18 0 21 61 1 0 22 -61 18 0 0 77 -13 0 0 -38c0,-4 1,-9 1,-15 0,-6 0,-10 0,-11l0 0 -23 64 -11 0z"/>
   <polygon class="fil3" points="2044,732 2044,655 2056,655 2056,721 2089,721 2089,732 "/>
  </g>
  <g id="_2353548147696">
   <path class="fil36" d="M788 818c0,60 49,109 109,109 60,0 109,-49 109,-109 0,-60 -49,-108 -109,-108 -60,0 -109,48 -109,108z"/>
   <path class="fil37" d="M768 818c0,60 48,109 108,109 61,0 109,-49 109,-109 0,-60 -48,-108 -109,-108 -60,0 -108,48 -108,108z"/>
   <path class="fil35" d="M844 816c0,-13 2,-26 6,-37 4,-12 10,-22 17,-31l15 0c-7,10 -12,20 -16,32 -3,12 -5,23 -5,36 0,12 2,24 5,35 4,12 9,22 16,31l-15 0c-7,-8 -13,-18 -17,-30 -4,-11 -6,-23 -6,-36z"/>
   <path class="fil35" d="M897 849c0,-4 1,-7 3,-9 2,-2 4,-3 8,-3 4,0 6,1 8,3 2,2 3,5 3,9 0,3 -1,6 -3,8 -2,2 -4,3 -8,3 -4,0 -6,-1 -8,-3 -2,-2 -3,-5 -3,-8zm0 -65c0,-7 4,-11 11,-11 4,0 7,1 8,3 2,2 3,5 3,8 0,4 -1,7 -3,9 -2,2 -4,3 -8,3 -4,0 -6,-1 -8,-3 -2,-2 -3,-5 -3,-9z"/>
  </g>
  <g id="_2353548150480">
   <path class="fil36" d="M1622 647c0,-95 -78,-173 -174,-173 -95,0 -173,78 -173,173 0,89 66,161 151,172l24 74 27 0 23 -80c70,-22 122,-88 122,-166z"/>
   <path class="fil37" d="M1595 647c0,-95 -78,-173 -174,-173 -95,0 -173,78 -173,173 0,89 66,161 151,172l51 74 23 -80c70,-22 122,-88 122,-166z"/>
   <path class="fil35" d="M1336 636l4 0c4,0 7,-1 9,-3 2,-2 3,-5 3,-8 0,-6 -3,-10 -10,-10l-6 0 0 21zm41 -11c0,10 -3,18 -9,23 -6,6 -14,8 -25,8l-7 0 0 31 -25 0 0 -91 32 0c11,0 20,2 26,7 5,5 8,12 8,22z"/>
   <polygon class="fil35" points="1470,687 1445,687 1445,650 1417,650 1417,687 1392,687 1392,596 1417,596 1417,629 1445,629 1445,596 1470,596 "/>
   <path class="fil35" d="M1514 636l5 0c3,0 6,-1 8,-3 3,-2 4,-5 4,-8 0,-6 -4,-10 -11,-10l-6 0 0 21zm41 -11c0,10 -3,18 -9,23 -6,6 -14,8 -25,8l-7 0 0 31 -25 0 0 -91 32 0c11,0 20,2 26,7 6,5 8,12 8,22z"/>
  </g>
  <g id="_2353548150352">
   <path class="fil36" d="M928 1065l-197 0c-15,0 -28,12 -28,27l0 197c0,16 13,28 28,28l98 0 54 72 29 0 0 -72 16 0c15,0 28,-12 28,-28l0 -197c0,-15 -13,-27 -28,-27z"/>
   <path class="fil37" d="M900 1065l-197 0c-16,0 -28,12 -28,27l0 197c0,16 12,28 28,28l98 0 82 72 0 -72 17 0c15,0 27,-12 27,-28l0 -197c0,-15 -12,-27 -27,-27z"/>
   <path class="fil35" d="M890 1259c6,6 6,15 0,21 -6,6 -15,6 -21,0l-42 -42c-6,-5 -6,-15 0,-21 6,-6 16,-6 21,0l42 42z"/>
   <path class="fil35" d="M739 1129c-17,18 -17,47 0,65 18,17 47,17 65,0 17,-18 17,-47 0,-65 -18,-18 -47,-18 -65,0zm74 74c-23,23 -60,23 -83,0 -23,-23 -23,-60 0,-83 23,-23 60,-23 83,0 23,23 23,60 0,83z"/>
   <polygon class="fil35" points="859,1239 849,1249 804,1203 813,1194 "/>
  </g>
 </g>
</svg>
