<?xml version="1.0" encoding="UTF-8"?>
<!DOCTYPE svg PUBLIC "-//W3C//DTD SVG 1.1//EN" "http://www.w3.org/Graphics/SVG/1.1/DTD/svg11.dtd">
<!-- Creator: CorelDRAW X7 -->
<svg xmlns="http://www.w3.org/2000/svg" xml:space="preserve" width="228.741mm" height="146.954mm" version="1.1" style="shape-rendering:geometricPrecision; text-rendering:geometricPrecision; image-rendering:optimizeQuality; fill-rule:evenodd; clip-rule:evenodd"
viewBox="0 0 2063 1325"
 xmlns:xlink="http://www.w3.org/1999/xlink">
 <defs>
  <style type="text/css">
   <![CDATA[
    .fil2 {fill:#FEFEFE}
    .fil14 {fill:#FCE3BB}
    .fil9 {fill:#F9C779}
    .fil15 {fill:#F6BDAC}
    .fil19 {fill:#F7B961}
    .fil16 {fill:#F4AB98}
    .fil31 {fill:#E74384}
    .fil8 {fill:#EAA855}
    .fil21 {fill:#EAAF58}
    .fil10 {fill:#E5E9EB}
    .fil34 {fill:#DB943F}
    .fil29 {fill:#E0DEE4}
    .fil0 {fill:#DCE3F1}
    .fil30 {fill:#CF3169}
    .fil33 {fill:#CBD1D3}
    .fil12 {fill:#C3C4E2}
    .fil1 {fill:#B7C6E4}
    .fil25 {fill:#907448}
    .fil3 {fill:#AAADD6}
    .fil32 {fill:#ACACBA}
    .fil13 {fill:#A6A6D2}
    .fil22 {fill:#9AA8AC}
    .fil35 {fill:#92A2B2}
    .fil4 {fill:#8188C1}
    .fil26 {fill:#6C7E8E}
    .fil5 {fill:#7079B8}
    .fil28 {fill:#546A7C}
    .fil7 {fill:#3F477F}
    .fil20 {fill:#344377}
    .fil11 {fill:#2A345C}
    .fil6 {fill:#2C3665}
    .fil18 {fill:#1C2E41}
    .fil17 {fill:#1D232F}
    .fil23 {fill:#23385F}
    .fil27 {fill:#223454}
    .fil24 {fill:#212E49}
   ]]>
  </style>
 </defs>
 <g id="Layer_x0020_1">
  <metadata id="CorelCorpID_0Corel-Layer"/>
  <path class="fil0" d="M1840 64c-18,0 -32,-14 -32,-32 0,-18 14,-32 32,-32 18,0 32,14 32,32 0,18 -14,32 -32,32zm-1369 773l-167 0 -5 0c-92,0 -168,76 -168,169l0 0c0,92 76,168 168,168l492 0 85 0 879 0c150,0 273,-123 273,-273l0 0c0,-150 -123,-273 -273,-273l0 0c-63,0 -115,-51 -115,-115l0 0c0,-63 52,-115 115,-115l139 0c66,0 120,-54 120,-120l0 0c0,-66 -54,-120 -120,-120l-175 0c-26,0 -47,-21 -47,-47l0 0c0,-26 21,-47 47,-47l30 0c18,0 33,-14 33,-32l0 0c0,-17 -15,-32 -33,-32l-116 0c0,0 -44,0 -87,0 -42,0 -47,51 -155,51 -167,0 -144,0 -311,0 -24,0 -43,18 -43,42l0 0c0,23 19,42 43,42l40 0c33,0 61,27 61,61l0 0c0,33 -28,61 -61,61l-61 0c-164,0 -187,42 -216,128 -29,85 -178,92 -178,92l-204 0c-51,0 -92,41 -92,92l0 0c0,50 41,92 92,92l10 0c49,0 89,39 89,88l0 0c0,48 -40,88 -89,88l0 0z"/>
  <path class="fil1" d="M271 674c-2,1 -5,2 -8,3 -2,2 -4,4 -7,6 0,0 -1,0 -1,0l-9 -6 -1 0c0,0 -1,0 -1,0 -1,0 -1,1 -2,1l0 0 -6 12c-1,0 -1,1 -1,2 1,0 1,1 2,1l0 0 9 6c0,0 1,0 1,1l0 0c-1,1 -1,3 -1,4 0,2 -1,3 -1,5 0,1 1,3 1,4 0,1 0,3 1,4 0,1 -1,1 -1,2l-9 5 0 0c-1,0 -1,1 -2,2 0,0 0,1 1,1l6 12c1,0 1,1 2,1 0,0 1,0 2,0l0 0 9 -6c0,0 1,0 1,0 3,2 5,4 7,6 3,1 6,2 8,3 1,0 1,1 1,1l0 11c0,1 1,1 1,2 1,0 1,1 2,1l13 0c1,0 1,-1 2,-1 0,-1 0,-1 0,-2l0 -11c0,0 1,-1 1,-1 3,-1 6,-2 8,-3 3,-2 5,-4 7,-6 1,0 1,0 2,0l9 6c1,0 1,0 2,0 1,0 1,-1 2,-1l0 0 6 -12c1,0 1,-1 0,-1 0,-1 0,-2 -1,-2l-9 -5c-1,-1 -1,-1 -1,-2l0 0c1,-1 1,-3 1,-4 0,-1 0,-3 0,-4 0,-2 0,-3 0,-5 0,-1 0,-3 -1,-4 0,-1 0,-1 1,-1l9 -6c1,0 1,-1 1,-1 1,-1 1,-2 0,-2l0 0 -6 -12 0 0c-1,0 -1,-1 -2,-1 -1,0 -1,0 -2,0l0 0 -9 6c-1,0 -1,0 -2,0 -2,-2 -4,-4 -7,-6 -2,-1 -5,-2 -8,-3 0,0 -1,-1 -1,-1l0 -11c0,-1 0,-1 0,-2 -1,0 -1,0 -2,0l-13 0c-1,0 -1,0 -2,0 0,1 -1,1 -1,2l0 11c0,0 0,1 -1,1zm-4 20c4,-3 9,-6 14,-6 6,0 11,3 15,6 3,4 6,9 6,15 0,5 -3,10 -6,14 -4,4 -9,6 -15,6 -5,0 -10,-2 -14,-6 -4,-4 -6,-9 -6,-14 0,-6 2,-11 6,-15l0 0zm-11 40l0 0z"/>
  <path class="fil1" d="M694 394c0,-2 -2,-3 -4,-3 -2,0 -3,1 -3,3l0 8 -9 0c-1,0 -3,2 -3,4 0,2 2,3 3,3l9 0 0 9c0,2 1,3 3,3 2,0 4,-1 4,-3l0 -9 8 0c2,0 3,-1 3,-3 0,-2 -1,-4 -3,-4l-8 0 0 -8z"/>
  <path class="fil1" d="M923 107c-3,1 -6,2 -8,4 -3,1 -5,3 -7,5 -1,0 -1,0 -2,0l-9 -5 0 0c-1,-1 -1,-1 -2,-1 -1,1 -1,1 -1,2l-1 0 -6 11c0,1 -1,1 0,2 0,0 0,1 1,1l0 0 9 6c1,0 1,1 1,1l0 0c-1,2 -1,3 -1,4 0,2 0,3 0,5 0,1 0,3 0,4 0,2 0,3 1,4 0,1 0,2 -1,2l-9 5 0 0c-1,1 -1,1 -1,2 -1,0 0,1 0,1l7 12 0 0c0,1 0,1 1,1 1,0 1,0 2,0l0 0 9 -6c1,0 1,0 2,1 2,2 4,3 7,5 2,1 5,3 8,3 0,0 1,1 1,2l0 10c0,1 0,2 0,2 1,0 1,1 2,1l13 0c1,0 2,-1 2,-1 0,0 1,-1 1,-2l0 -10c0,-1 0,-2 1,-2 2,-1 5,-2 8,-3 2,-2 4,-3 7,-5 0,-1 1,-1 1,0l9 5c1,0 2,0 2,0 1,0 1,0 2,-1l0 0 6 -12c1,0 1,-1 1,-1 -1,-1 -1,-1 -1,-2l-10 -5c0,0 -1,-1 -1,-2l0 0c1,-1 1,-2 1,-4 0,-1 1,-3 1,-4 0,-2 -1,-3 -1,-5 0,-1 0,-2 -1,-4 0,0 1,-1 1,-1l10 -6c0,0 0,-1 1,-1 0,-1 0,-1 -1,-2l0 0 -6 -11 0 0c-1,-1 -1,-1 -2,-2 0,0 -1,0 -2,1l0 0 -9 5c0,0 -1,0 -1,0 -3,-2 -5,-4 -7,-5 -3,-2 -6,-3 -8,-4 -1,0 -1,0 -1,-1l0 -11c0,0 -1,-1 -1,-1 0,-1 -1,-1 -2,-1l-13 0c-1,0 -1,0 -2,1 0,0 0,1 0,1l0 11c0,1 -1,1 -1,1zm-5 20c4,-3 9,-6 15,-6 5,0 10,3 14,6 4,4 6,9 6,15 0,5 -2,10 -6,14 -4,4 -9,6 -14,6 -6,0 -11,-2 -15,-6 -3,-4 -6,-9 -6,-14 0,-6 3,-11 6,-15l0 0zm-10 41l0 0z"/>
  <path class="fil1" d="M2051 76c0,-2 -1,-4 -3,-4 -2,0 -4,2 -4,4l0 8 -8 0c-2,0 -4,2 -4,3 0,2 2,4 4,4l8 0 0 8c0,2 2,4 4,4 2,0 3,-2 3,-4l0 -8 8 0c2,0 4,-2 4,-4 0,-1 -2,-3 -4,-3l-8 0 0 -8z"/>
  <path class="fil1" d="M19 985c0,-2 -2,-3 -4,-3 -2,0 -3,1 -3,3l0 9 -9 0c-1,0 -3,1 -3,3 0,2 2,4 3,4l9 0 0 8c0,2 1,3 3,3 2,0 4,-1 4,-3l0 -8 8 0c2,0 3,-2 3,-4 0,-2 -1,-3 -3,-3l-8 0 0 -9z"/>
  <path class="fil1" d="M1145 292c-3,0 -5,2 -8,3 -2,2 -5,3 -7,5 0,1 -1,1 -1,1l-10 -6 0 0c0,0 -1,0 -1,0 -1,0 -2,0 -2,1l0 0 -7 12c0,0 0,1 0,1 0,1 1,1 1,2l0 0 10 5c0,0 0,1 0,2l0 0c0,1 0,2 -1,4 0,1 0,3 0,4 0,2 0,3 0,5 1,1 1,2 1,4 0,0 0,1 0,1l-10 6 0 0c0,0 -1,1 -1,1 0,1 0,1 0,2l7 11 0 0c0,1 1,1 2,2 0,0 1,0 1,-1l0 0 10 -5c0,0 1,0 1,0 2,2 5,4 7,5 3,2 5,3 8,4 1,0 1,0 1,1l0 11c0,0 0,1 1,1 0,1 1,1 1,1l14 0c0,0 1,0 2,-1 0,0 0,-1 0,-1l0 -11c0,-1 1,-1 1,-1 3,-1 6,-2 8,-4 3,-1 5,-3 7,-5 1,0 1,0 2,0l9 5c1,1 1,1 2,1 0,-1 1,-1 1,-2l0 0 7 -11c0,-1 0,-1 0,-2 0,0 0,-1 -1,-1l-9 -6c-1,0 -1,-1 -1,-1l0 0c0,-2 1,-3 1,-4 0,-2 0,-3 0,-5 0,-1 0,-3 0,-4 0,-2 -1,-3 -1,-4 0,-1 0,-2 1,-2l9 -5c1,-1 1,-1 1,-2 0,0 0,-1 0,-1l0 -1 -7 -11c0,-1 -1,-1 -1,-1 -1,0 -1,0 -2,0l0 0 -9 6c-1,0 -2,0 -2,-1 -2,-2 -4,-3 -7,-5 -2,-1 -5,-3 -8,-3 0,0 -1,-1 -1,-2l0 -10c0,-1 0,-2 0,-2 -1,-1 -2,-1 -2,-1l-14 0c0,0 -1,0 -1,1 -1,0 -1,1 -1,2l0 10c0,1 0,2 -1,2zm-4 20c3,-4 9,-6 14,-6 6,0 11,2 15,6 3,4 5,9 5,14 0,6 -2,11 -5,15 -4,3 -9,6 -15,6 -5,0 -11,-3 -14,-6 -4,-4 -6,-9 -6,-15 0,-5 2,-10 6,-14l0 0zm-11 40l0 0z"/>
  <path class="fil1" d="M1003 300c0,-2 -1,-3 -3,-3 -2,0 -4,1 -4,3l0 8 -8 0c-2,0 -3,2 -3,4 0,2 1,3 3,3l8 0 0 9c0,1 2,3 4,3 2,0 3,-2 3,-3l0 -9 9 0c1,0 3,-1 3,-3 0,-2 -2,-4 -3,-4l-9 0 0 -8z"/>
  <path class="fil1" d="M712 513c0,-2 -2,-3 -3,-3 -2,0 -4,1 -4,3l0 9 -8 0c-2,0 -4,1 -4,3 0,2 2,3 4,3l8 0 0 9c0,2 2,3 4,3 1,0 3,-1 3,-3l0 -9 8 0c2,0 4,-1 4,-3 0,-2 -2,-3 -4,-3l-8 0 0 -9z"/>
  <path class="fil1" d="M1871 493c0,-2 -2,-4 -3,-4 -2,0 -4,2 -4,4l0 8 -8 0c-2,0 -4,1 -4,3 0,2 2,4 4,4l8 0 0 8c0,2 2,4 4,4 1,0 3,-2 3,-4l0 -8 8 0c2,0 4,-2 4,-4 0,-2 -2,-3 -4,-3l-8 0 0 -8z"/>
  <path class="fil1" d="M2037 1165c0,-2 -2,-3 -4,-3 -2,0 -3,1 -3,3l0 9 -8 0c-2,0 -4,1 -4,3 0,2 2,4 4,4l8 0 0 8c0,2 1,3 3,3 2,0 4,-1 4,-3l0 -8 8 0c2,0 4,-2 4,-4 0,-2 -2,-3 -4,-3l-8 0 0 -9z"/>
  <path class="fil2" d="M961 1150l-93 0c-8,0 -16,-8 -17,-17l0 0c0,-8 7,-16 16,-16l92 0c9,0 16,8 17,16l0 0c0,9 -6,17 -15,17z"/>
  <g id="_2798794508384">
   <path class="fil3" d="M1701 186l-249 0c-18,0 -32,14 -32,32l0 153c0,18 14,32 32,32l112 0 -18 66 18 0 71 -66 66 0c18,0 33,-14 33,-32l0 -153c0,-18 -15,-32 -33,-32z"/>
   <path class="fil2" d="M1683 186l-248 0c-18,0 -33,14 -33,32l0 153c0,18 15,32 33,32l111 0 0 66 71 -66 66 0c18,0 33,-14 33,-32l0 -153c0,-18 -15,-32 -33,-32z"/>
   <path class="fil4" d="M1488 274c-4,0 -8,2 -11,6 -2,4 -3,9 -3,15 0,14 5,21 15,21 3,0 6,-1 9,-2 3,0 6,-2 9,-3l0 16c-6,3 -12,4 -20,4 -11,0 -19,-3 -24,-9 -6,-6 -9,-15 -9,-27 0,-7 1,-14 4,-19 3,-6 7,-10 12,-13 5,-3 11,-4 18,-4 8,0 15,1 22,5l-6 15c-2,-2 -5,-3 -7,-3 -3,-1 -6,-2 -9,-2z"/>
   <path class="fil4" d="M1552 330l-15 -51 0 0c0,9 1,16 1,21l0 30 -17 0 0 -70 25 0 15 50 0 0 15 -50 25 0 0 70 -17 0 0 -31c0,-1 0,-3 0,-5 0,-2 0,-7 1,-14l-1 0 -14 50 -18 0z"/>
   <path class="fil4" d="M1663 309c0,4 -1,8 -3,12 -3,3 -6,6 -10,8 -4,1 -9,2 -15,2 -4,0 -8,0 -12,-1 -3,0 -6,-1 -10,-3l0 -17c4,2 8,3 12,4 4,1 7,2 11,2 2,0 5,-1 6,-2 1,-1 2,-2 2,-3 0,-1 0,-2 -1,-3 0,-1 -1,-1 -3,-2 -1,-1 -4,-2 -9,-5 -5,-2 -8,-4 -10,-6 -3,-2 -4,-4 -5,-7 -2,-2 -2,-5 -2,-9 0,-6 2,-11 7,-15 5,-4 11,-5 20,-5 7,0 14,1 22,5l-6 14c-6,-3 -12,-4 -17,-4 -3,0 -4,0 -5,1 -2,1 -2,2 -2,3 0,2 1,3 2,4 1,1 5,3 12,6 6,3 10,6 12,9 3,3 4,7 4,12z"/>
  </g>
  <g id="_2798794509312">
   <path class="fil3" d="M598 796l-220 0c-16,0 -28,13 -28,28l0 135c0,16 11,28 26,29l-15 54 15 0 58 -54 164 0c16,0 29,-13 29,-29l0 -135c0,-15 -13,-28 -29,-28z"/>
   <path class="fil2" d="M583 796l-221 0c-15,0 -28,13 -28,28l0 135c0,16 12,28 27,29l0 54 58 -54 164 0c15,0 28,-13 28,-29l0 -135c0,-15 -13,-28 -28,-28z"/>
   <path class="fil4" d="M418 860c-6,0 -10,3 -13,7 -3,5 -5,11 -5,19 0,17 7,25 19,25 4,0 8,0 12,-1 3,-1 7,-3 11,-4l0 20c-8,3 -16,5 -25,5 -13,0 -24,-4 -31,-12 -7,-7 -10,-18 -10,-33 0,-9 2,-17 5,-24 3,-7 8,-12 15,-16 6,-3 14,-5 22,-5 10,0 19,2 27,6l-7 19c-3,-2 -6,-3 -10,-4 -3,-1 -6,-2 -10,-2z"/>
   <polygon class="fil4" points="476,894 453,894 453,878 476,878 476,856 492,856 492,878 514,878 514,894 492,894 492,916 476,916 "/>
   <polygon class="fil4" points="545,894 523,894 523,878 545,878 545,856 561,856 561,878 583,878 583,894 561,894 561,916 545,916 "/>
  </g>
  <g id="_2798794510912">
   <path class="fil5" d="M1395 602c0,49 40,88 88,88 49,0 89,-39 89,-88 0,-49 -40,-88 -89,-88 -48,0 -88,39 -88,88z"/>
   <path class="fil4" d="M1376 602c0,49 40,88 88,88 49,0 89,-39 89,-88 0,-49 -40,-88 -89,-88 -48,0 -88,39 -88,88z"/>
   <path class="fil2" d="M1422 585c-4,0 -7,2 -9,5 -2,3 -3,7 -3,13 0,11 4,16 13,16 2,0 5,0 7,-1 3,0 5,-1 8,-2l0 13c-5,2 -11,3 -17,3 -9,0 -15,-2 -20,-7 -5,-5 -7,-13 -7,-22 0,-6 1,-12 3,-16 3,-5 6,-8 10,-11 4,-2 9,-3 15,-3 6,0 12,1 18,4l-5 12c-2,-1 -4,-2 -6,-3 -2,0 -5,-1 -7,-1z"/>
   <path class="fil2" d="M1487 614c0,3 -1,7 -3,9 -2,3 -4,5 -8,7 -3,1 -7,2 -12,2 -4,0 -7,0 -10,-1 -2,0 -5,-1 -8,-2l0 -14c3,1 6,2 10,3 3,1 6,2 8,2 3,0 4,-1 6,-2 1,-1 1,-2 1,-3 0,-1 0,-1 0,-2 -1,-1 -2,-1 -3,-2 -1,0 -3,-2 -7,-3 -4,-2 -7,-4 -9,-5 -2,-2 -3,-4 -4,-6 -1,-2 -1,-5 -1,-7 0,-6 2,-10 5,-13 4,-3 10,-4 17,-4 6,0 12,1 18,4l-5 12c-5,-3 -10,-4 -14,-4 -2,0 -3,0 -4,1 -1,1 -2,2 -2,3 0,1 1,2 2,3 1,1 4,2 10,5 5,2 8,4 10,7 2,3 3,6 3,10z"/>
   <path class="fil2" d="M1534 614c0,3 -1,7 -3,9 -2,3 -4,5 -8,7 -3,1 -7,2 -12,2 -4,0 -7,0 -10,-1 -2,0 -5,-1 -8,-2l0 -14c3,1 6,2 9,3 4,1 7,2 9,2 3,0 4,-1 6,-2 1,-1 1,-2 1,-3 0,-1 0,-1 -1,-2 0,-1 -1,-1 -2,-2 -1,0 -3,-2 -7,-3 -4,-2 -7,-4 -9,-5 -2,-2 -3,-4 -4,-6 -1,-2 -1,-5 -1,-7 0,-6 2,-10 5,-13 4,-3 10,-4 16,-4 6,0 13,1 19,4l-5 12c-5,-3 -10,-4 -14,-4 -2,0 -4,0 -4,1 -1,1 -2,2 -2,3 0,1 1,2 2,3 1,1 4,2 9,5 5,2 9,4 11,7 2,3 3,6 3,10z"/>
  </g>
  <g id="_2798794512288">
   <path class="fil5" d="M1368 160c0,-65 -53,-118 -119,-118 -65,0 -119,53 -119,118 0,66 54,119 119,119 16,0 32,-3 46,-9l14 34 20 0 0 -55c24,-22 39,-54 39,-89z"/>
   <path class="fil4" d="M1348 160c0,-65 -53,-118 -119,-118 -65,0 -118,53 -118,118 0,66 53,119 118,119 17,0 32,-3 46,-9l34 34 0 -55c24,-22 39,-54 39,-89z"/>
   <path class="fil2" d="M1187 218c-4,0 -9,-1 -13,-1l0 -20c2,0 3,0 5,1 1,0 3,0 5,0 4,0 7,-1 9,-4 1,-2 2,-7 2,-13l0 -87 26 0 0 85c0,13 -3,23 -8,29 -6,7 -14,10 -26,10z"/>
   <path class="fil2" d="M1296 166c0,8 -3,14 -8,18 -5,4 -13,6 -23,6 -5,0 -10,-1 -14,-1 -4,-1 -8,-2 -12,-3l0 -21c4,2 8,4 13,5 4,1 9,1 12,1 6,0 8,-1 8,-3 0,-2 0,-3 -2,-4 -1,-1 -6,-3 -13,-6 -7,-2 -12,-6 -14,-9 -3,-4 -4,-8 -4,-13 0,-7 2,-12 8,-16 5,-4 12,-6 22,-6 5,0 9,1 13,2 5,1 9,2 14,4l-7 16c-4,-1 -7,-2 -11,-3 -4,-1 -7,-2 -9,-2 -4,0 -6,1 -6,3 0,1 0,2 2,3 1,1 5,3 12,6 5,2 9,4 12,6 2,2 4,4 5,7 2,3 2,6 2,10z"/>
  </g>
  <g id="_2798794514272">
   <path class="fil6" d="M1828 519l-175 0c-14,0 -25,11 -25,24l0 176c0,13 11,25 25,25l103 0 40 48 17 0 0 -48 15 0c14,0 25,-12 25,-25l0 -176c0,-13 -11,-24 -25,-24z"/>
   <path class="fil7" d="M1812 519l-175 0c-14,0 -25,11 -25,24l0 176c0,13 11,25 25,25l103 0 56 48 0 -48 16 0c14,0 25,-12 25,-25l0 -176c0,-13 -11,-24 -25,-24z"/>
   <polygon class="fil2" points="1701,660 1643,634 1643,624 1701,595 1701,612 1665,628 1701,643 "/>
   <polygon class="fil2" points="1757,585 1726,671 1706,671 1737,585 "/>
   <polygon class="fil2" points="1761,643 1797,628 1761,612 1761,595 1820,624 1820,634 1761,660 "/>
  </g>
  <g id="_2798794515136">
   <path class="fil6" d="M1145 307l-155 0c-12,0 -22,9 -22,22l0 92c0,12 10,22 22,22l-9 43 16 0 47 -43 101 0c12,0 21,-10 21,-22l0 -92c0,-13 -9,-22 -21,-22z"/>
   <path class="fil7" d="M1128 307l-154 0c-13,0 -22,9 -22,22l0 92c0,12 9,22 22,22l7 0 0 43 47 -43 100 0c12,0 22,-10 22,-22l0 -92c0,-13 -10,-22 -22,-22z"/>
   <polygon class="fil2" points="1016,399 1009,399 1009,380 990,380 990,399 983,399 983,357 990,357 990,374 1009,374 1009,357 1016,357 "/>
   <polygon class="fil2" points="1042,399 1035,399 1035,363 1023,363 1023,357 1054,357 1054,363 1042,363 "/>
   <path class="fil2" d="M1079 399l-12 -35 -1 0c1,5 1,10 1,15l0 20 -6 0 0 -42 9 0 12 34 0 0 12 -34 10 0 0 42 -7 0 0 -21c0,-2 0,-4 0,-8 0,-3 1,-5 1,-6l-1 0 -12 35 -6 0z"/>
   <polygon class="fil2" points="1115,399 1115,357 1122,357 1122,393 1140,393 1140,399 "/>
  </g>
  <g id="_2798794517152">
   <path class="fil8" d="M430 446c0,33 26,60 59,60 33,0 59,-27 59,-60 0,-32 -26,-59 -59,-59 -33,0 -59,27 -59,59z"/>
   <path class="fil9" d="M419 446c0,33 26,60 59,60 33,0 59,-27 59,-60 0,-32 -26,-59 -59,-59 -33,0 -59,27 -59,59z"/>
   <path class="fil7" d="M461 445c0,-7 1,-14 3,-20 2,-7 5,-12 9,-17l8 0c-3,5 -6,11 -8,17 -2,7 -3,13 -3,20 0,7 1,13 3,19 2,7 4,12 8,17l-8 0c-4,-4 -7,-10 -9,-16 -2,-6 -3,-13 -3,-20z"/>
   <path class="fil7" d="M489 463c0,-2 1,-4 2,-5 1,-1 2,-1 4,-1 2,0 4,0 5,1 1,1 1,3 1,5 0,2 0,3 -1,4 -1,2 -3,2 -5,2 -2,0 -3,0 -4,-1 -1,-2 -2,-3 -2,-5zm0 -35c0,-4 2,-6 6,-6 2,0 4,0 5,1 1,1 1,3 1,5 0,2 0,3 -1,5 -1,1 -3,1 -5,1 -2,0 -3,0 -4,-1 -1,-2 -2,-3 -2,-5z"/>
  </g>
  <g id="_2798794518496">
   <path class="fil8" d="M885 353c0,-52 -43,-94 -95,-94 -52,0 -95,42 -95,94 0,48 36,88 83,94l13 40 14 0 13 -44c39,-12 67,-47 67,-90z"/>
   <path class="fil9" d="M870 353c0,-52 -42,-94 -95,-94 -52,0 -94,42 -94,94 0,48 36,88 82,94l28 40 12 -44c39,-12 67,-47 67,-90z"/>
   <path class="fil7" d="M729 347l2 0c2,0 4,0 5,-2 1,-1 2,-2 2,-4 0,-4 -2,-5 -6,-5l-3 0 0 11zm22 -6c0,5 -1,10 -5,13 -3,3 -7,4 -14,4l-3 0 0 17 -14 0 0 -50 17 0c7,0 11,1 15,4 3,3 4,7 4,12z"/>
   <polygon class="fil7" points="802,375 788,375 788,354 773,354 773,375 759,375 759,325 773,325 773,343 788,343 788,325 802,325 "/>
   <path class="fil7" d="M826 347l2 0c2,0 4,0 5,-2 1,-1 2,-2 2,-4 0,-4 -2,-5 -6,-5l-3 0 0 11zm23 -6c0,5 -2,10 -5,13 -4,3 -8,4 -14,4l-4 0 0 17 -14 0 0 -50 18 0c6,0 11,1 14,4 3,3 4,7 5,12z"/>
  </g>
  <g id="_2798794503584">
   <path class="fil8" d="M506 581l-107 0c-9,0 -15,7 -15,15l0 107c0,9 6,16 15,16l53 0 30 38 15 0 0 -38 9 0c9,0 15,-7 15,-16l0 -107c0,-8 -6,-15 -15,-15z"/>
   <path class="fil9" d="M491 581l-108 0c-8,0 -15,7 -15,15l0 107c0,9 7,16 15,16l54 0 45 38 0 -38 9 0c8,0 15,-7 15,-16l0 -107c0,-8 -7,-15 -15,-15z"/>
   <path class="fil7" d="M486 687c3,3 3,8 0,11 -4,4 -9,4 -12,0l-23 -22c-3,-4 -3,-9 0,-12 3,-3 9,-3 12,0l23 23z"/>
   <path class="fil7" d="M403 616c-9,10 -9,25 0,35 10,10 26,10 35,0 10,-10 10,-25 0,-35 -9,-10 -25,-10 -35,0zm41 40c-13,13 -33,13 -46,0 -12,-12 -12,-33 0,-45 13,-13 33,-13 46,0 12,12 12,33 0,45z"/>
   <polygon class="fil7" points="468,676 463,681 438,656 444,651 "/>
  </g>
  <g id="_2798796168752">
   <path class="fil2" d="M1866 1126c-180,-30 -468,-50 -793,-50 -325,0 -613,20 -792,50l0 53c177,89 456,146 769,146 343,0 645,-68 817,-172l0 -27 -1 0z"/>
   <path class="fil10" d="M1411 1299c-16,-8 -33,-14 -51,-20 258,-26 438,-85 438,-155 0,-3 0,-5 -1,-8 22,3 43,6 63,9 2,0 3,1 5,1 0,0 1,0 1,0l1 0 0 27c-108,65 -268,116 -456,146zm-512 22c-251,-15 -470,-68 -618,-142l0 -53c2,0 4,-1 6,-1 20,-3 41,-6 63,-9 0,2 -1,5 -1,8 0,79 232,145 545,164 1,11 3,22 5,33z"/>
   <polygon class="fil7" points="700,1091 646,1195 648,1211 1442,1218 1442,1197 1386,1089 "/>
   <polygon class="fil11" points="646,1195 648,1211 1442,1218 1442,1197 "/>
   <polygon class="fil11" points="677,562 1435,555 1393,1048 692,1034 665,548 "/>
   <polygon class="fil7" points="666,548 665,548 692,1018 1393,1032 1435,555 "/>
   <polygon class="fil2" points="695,567 1406,573 1367,1013 720,1000 "/>
   <path class="fil2" d="M1345 985l-76 0c-3,-7 -7,-14 -10,-21l64 0 0 -11 -69 0c-2,-4 -4,-7 -6,-11l27 0 0 -11 -32 0 0 -32 19 0 0 -11 -19 0 0 -11 37 0 0 -11 -37 0 0 -11 79 0 0 -11 -79 0 0 -10 11 0 0 -12 -11 0 0 -10 50 0 0 -11 -50 0 0 -54 62 0 0 -12 -62 0 0 -10 21 0 0 -11 -21 0 0 -56 102 0 0 327z"/>
   <path class="fil12" d="M1348 988l-78 0c0,-1 -1,-2 -1,-3l76 0 0 -327 2 0 0 -14 0 0 0 0 0 0 -104 0 0 -2 105 0 0 344 0 2zm-1 -2l0 0 0 -1 0 1zm-508 -39l0 -1 0 0c0,0 0,1 0,1z"/>
   <polygon class="fil12" points="1264,725 1243,725 1243,714 1264,714 "/>
   <polygon class="fil12" points="1305,747 1243,747 1243,735 1305,735 "/>
   <polygon class="fil12" points="1293,812 1243,812 1243,801 1293,801 "/>
   <polygon class="fil12" points="1254,834 1243,834 1243,822 1254,822 "/>
   <polygon class="fil12" points="1322,855 1243,855 1243,844 1322,844 "/>
   <polygon class="fil12" points="1280,877 1243,877 1243,866 1280,866 "/>
   <polygon class="fil12" points="1262,899 1243,899 1243,888 1262,888 "/>
   <path class="fil12" d="M1275 942l-27 0c-2,-3 -3,-6 -5,-9l0 -2 32 0 0 11z"/>
   <path class="fil12" d="M1323 964l-64 0c-2,-4 -4,-7 -5,-11l69 0 0 11z"/>
   <polygon class="fil12" points="1346,658 1243,658 1243,644 1346,644 "/>
   <polygon class="fil12" points="1347,658 1345,658 1243,658 1243,658 1346,658 1346,644 1243,644 1243,644 1347,644 1347,644 1347,644 1347,644 "/>
   <polygon class="fil2" points="736,945 1242,945 1242,602 736,602 "/>
   <path class="fil2" d="M840 943l-103 0 0 -326 199 0c-1,2 -1,4 -2,6 0,0 0,2 -1,6l-37 0 0 11 34 0c-1,3 -2,7 -2,11l-37 0 0 11 34 0c0,3 -1,7 -1,10l-46 0 0 12 44 0c-1,3 -1,7 -1,10l-2 0 0 11 1 0c-1,4 -1,7 -1,11l-8 0 0 11 8 0c0,4 0,7 0,11l-40 0 0 11 41 0c2,24 10,44 27,54l-63 0 0 11 109 0 1 32 -28 0 0 4c-5,0 -9,1 -13,1l0 -5 -105 0 0 12 63 0c-9,1 -17,5 -25,10l-42 0 0 11 30 0c-3,4 -6,7 -9,11l-42 0 0 11 35 0c-6,12 -12,26 -18,42zm-90 -31l0 11 27 0 0 -11 -27 0zm0 -22l0 11 27 0 0 -11 -27 0zm0 -22l0 11 27 0 0 -11 -27 0zm0 -22l0 12 27 0 0 -12 -27 0zm126 -21l0 11 106 0 0 -11 -106 0zm-126 0l0 11 27 0 0 -11 -27 0zm0 -22l0 11 27 0 0 -11 -27 0zm98 -22l0 11 78 0 0 -11 -78 0zm-98 0l0 11 27 0 0 -11 -27 0zm0 -22l0 12 27 0 0 -12 -27 0zm71 -21l0 11 46 0 0 -11 -46 0zm-71 0l0 11 27 0 0 -11 -27 0zm94 -22l0 11 54 0 0 -11 -54 0zm-94 0l0 11 27 0 0 -11 -27 0zm0 -22l0 11 27 0 0 -11 -27 0zm0 -22l0 12 27 0 0 -12 -27 0zm72 -21l0 11 55 0 0 -11 -55 0zm-72 0l0 11 27 0 0 -11 -27 0zm88 -22l0 11 46 0 0 -11 -46 0zm-88 0l0 11 27 0 0 -11 -27 0zm490 299c-11,-20 -23,-37 -34,-48 -12,-12 -29,-20 -49,-26l0 -8 -48 0c-6,0 -11,-1 -17,-1l1 -9 82 0 0 -11 -82 0 0 -11 125 0 0 -11 -124 0 0 -11 55 0 0 -11 -54 0c0,-3 1,-6 2,-10l91 0 0 -12 -90 0c1,-3 1,-6 2,-10l12 0 0 -11 -11 0c1,-4 1,-7 2,-11l27 0 0 -11 -26 0c0,-4 1,-7 1,-11l95 0 0 -11 -93 0c0,-3 1,-7 1,-10l51 0 0 -12 -50 0c1,-3 1,-7 1,-10l22 0 0 -11 -21 0c1,-12 2,-24 3,-34l126 0 0 311z"/>
   <path class="fil12" d="M839 946l-105 0 0 -346 208 0c0,1 0,1 -1,2l-205 0 0 1 -1 0 0 14 1 0 0 328 103 0 0 1zm404 -304l-1 0 0 -25 0 0 0 -14 0 0 0 0 0 0 0 -1 -128 0c0,-1 0,-1 1,-2l128 0 0 42z"/>
   <path class="fil12" d="M1243 931l-1 0c0,0 0,0 0,0l0 -32 1 0 0 32zm0 -43l-1 0 0 -11 1 0 0 11zm0 -22l-1 0 0 -11 1 0 0 11zm0 -22l-1 0 0 -10 1 0 0 10zm0 -22l-1 0 0 -10 1 0 0 10zm0 -21l-1 0 0 -54 1 0 0 54zm0 -66l-1 0 0 -10 1 0 0 10zm0 -21l-1 0 0 -56 1 0 0 56z"/>
   <path class="fil13" d="M839 946l0 0 0 -1 1 0c0,0 0,1 -1,1l0 0zm404 -302l-1 0 0 -2 1 0 0 2z"/>
   <polygon class="fil13" points="1243,725 1242,725 1242,714 1243,714 "/>
   <polygon class="fil13" points="1243,747 1242,747 1242,735 1243,735 "/>
   <polygon class="fil13" points="1243,812 1242,812 1242,801 1243,801 "/>
   <polygon class="fil13" points="1243,834 1242,834 1242,822 1243,822 "/>
   <polygon class="fil13" points="1243,855 1242,855 1242,844 1243,844 "/>
   <polygon class="fil13" points="1243,877 1242,877 1242,866 1243,866 "/>
   <polygon class="fil13" points="1243,899 1242,899 1242,888 1243,888 "/>
   <path class="fil13" d="M1243 933c0,-1 -1,-1 -1,-2l1 0 0 2z"/>
   <polygon class="fil13" points="1243,658 1242,658 1242,644 1243,644 "/>
   <path class="fil13" d="M1243 658l-1 0 0 0 1 0 0 0zm0 -14l-1 0 0 0 1 0 0 0z"/>
   <path class="fil12" d="M840 945l-1 0 -103 0 0 -328 1 0 0 326 103 0c0,1 0,1 0,2l0 0zm402 -14c-1,-1 -1,-2 -2,-3l0 -311 2 0 0 25 0 2 0 0 0 14 0 0 0 56 0 11 0 10 0 12 0 54 0 11 0 10 0 12 0 10 0 11 0 11 0 11 0 11 0 11 0 32zm0 -328l-128 0c0,-1 0,-1 0,-1l128 0 0 1zm-301 0l-205 0 0 -1 205 0c0,0 0,0 0,1z"/>
   <polygon class="fil12" points="777,640 750,640 750,629 777,629 "/>
   <polygon class="fil12" points="777,662 750,662 750,651 777,651 "/>
   <polygon class="fil12" points="777,684 750,684 750,672 777,672 "/>
   <polygon class="fil12" points="777,705 750,705 750,694 777,694 "/>
   <polygon class="fil12" points="777,727 750,727 750,716 777,716 "/>
   <polygon class="fil12" points="777,749 750,749 750,738 777,738 "/>
   <polygon class="fil12" points="777,771 750,771 750,759 777,759 "/>
   <polygon class="fil12" points="777,792 750,792 750,781 777,781 "/>
   <polygon class="fil12" points="777,814 750,814 750,803 777,803 "/>
   <polygon class="fil12" points="777,836 750,836 750,825 777,825 "/>
   <polygon class="fil12" points="777,858 750,858 750,846 777,846 "/>
   <polygon class="fil12" points="777,879 750,879 750,868 777,868 "/>
   <polygon class="fil12" points="777,901 750,901 750,890 777,890 "/>
   <polygon class="fil12" points="777,923 750,923 750,912 777,912 "/>
   <polygon class="fil14" points="884,640 838,640 838,629 884,629 "/>
   <path class="fil12" d="M930 640l-34 0 0 -11 37 0c-1,3 -2,7 -3,11z"/>
   <polygon class="fil14" points="877,662 822,662 822,651 877,651 "/>
   <path class="fil12" d="M1132 662l-22 0c1,-4 1,-8 1,-11l21 0 0 11zm-207 0l-34 0 0 -11 37 0c-1,3 -2,7 -3,11z"/>
   <path class="fil14" d="M922 684l-44 0 0 -12 46 0c-1,4 -2,8 -2,12z"/>
   <path class="fil12" d="M1159 684l-51 0c0,-4 1,-8 1,-12l50 0 0 12z"/>
   <path class="fil14" d="M920 705l-1 0 0 -11 2 0c-1,4 -1,8 -1,11z"/>
   <path class="fil12" d="M1200 705l-95 0c1,-3 1,-7 2,-11l93 0 0 11z"/>
   <polygon class="fil14" points="898,727 844,727 844,716 898,716 "/>
   <path class="fil12" d="M1130 727l-27 0c0,-4 1,-7 1,-11l26 0 0 11zm-211 0l-8 0 0 -11 8 0c0,4 0,7 0,11z"/>
   <polygon class="fil14" points="867,749 821,749 821,738 867,738 "/>
   <path class="fil12" d="M1112 749l-12 0c0,-4 1,-8 1,-11l11 0 0 11zm-192 0l-41 0 0 -11 40 0c0,3 0,7 1,11z"/>
   <path class="fil12" d="M1188 771l-91 0c0,-4 1,-8 1,-12l90 0 0 12z"/>
   <polygon class="fil14" points="926,792 848,792 848,781 926,781 "/>
   <path class="fil12" d="M1149 792l-55 0 0 -6c0,0 1,-2 1,-5l54 0 0 11z"/>
   <path class="fil14" d="M993 814l-109 0 0 -11 63 0c7,4 15,6 25,6 0,0 1,0 1,0 0,0 1,0 1,0 6,0 12,-1 18,-3l1 8z"/>
   <polygon class="fil12" points="1218,814 1093,814 1094,803 1218,803 "/>
   <polygon class="fil14" points="982,836 876,836 876,825 982,825 "/>
   <polygon class="fil12" points="1175,836 1093,836 1093,825 1175,825 "/>
   <path class="fil14" d="M911 858l-63 0 0 -12 105 0 0 5c-16,2 -29,4 -41,6 -1,0 -1,1 -1,1z"/>
   <path class="fil12" d="M1157 854c-15,-3 -31,-6 -48,-8l48 0 0 8zm-191 -4l0 -4 28 0 0 1c-10,1 -19,2 -28,3z"/>
   <path class="fil14" d="M874 879l-30 0 0 -11 42 0c-4,3 -8,7 -12,11z"/>
   <path class="fil14" d="M858 901l-35 0 0 -11 42 0c-2,3 -5,7 -7,11z"/>
   <path class="fil12" d="M1241 616l-127 0c0,-4 0,-9 0,-13l127 0 0 13zm-305 0l-200 0 0 -13 205 0c-2,4 -3,9 -5,13z"/>
   <path class="fil12" d="M1242 617l0 0 0 -14 0 0 0 0 0 0 0 14zm-506 0l-1 0 0 -14 1 0 0 14z"/>
   <path class="fil12" d="M1242 617l-2 0 -126 0c0,0 0,-1 0,-1l127 0 0 -13 -127 0c0,0 0,0 0,0l128 0 0 14zm-306 0l-199 0 -1 0 0 -14 205 0c0,0 0,0 0,0l-205 0 0 13 200 0c0,0 0,1 0,1z"/>
   <path class="fil15" d="M934 623c0,0 -61,212 58,183l7 70 92 9 3 -99c0,0 32,-204 16,-223 -16,-20 -147,-55 -176,60z"/>
   <path class="fil16" d="M950 623c0,0 -65,212 42,183l3 75 95 4 3 -99c0,0 29,-204 14,-223 -14,-20 -132,-55 -157,60z"/>
   <path class="fil17" d="M1142 566c-14,-18 -32,-23 -44,-23 -2,-35 -52,-37 -92,-29 -53,10 -99,-34 -99,-34 -13,47 14,70 14,70 -13,-2 -30,-26 -30,-26 -6,51 45,84 45,84 -4,26 15,44 15,44l3 59 10 0c0,0 -2,-18 6,-40 7,-21 28,-2 24,33 -3,36 -22,21 -22,21 3,27 38,67 38,67l83 0c83,-135 70,-198 49,-226z"/>
   <path class="fil18" d="M945 644c8,-32 25,-63 50,-84 27,-22 61,-38 96,-35 -16,-17 -54,-17 -85,-11 -53,10 -99,-34 -99,-34 -13,47 14,70 14,70 -13,-2 -30,-26 -30,-26 -6,51 45,84 45,84 -3,16 4,28 9,36z"/>
   <path class="fil16" d="M989 680c-1,-1 -3,-2 -4,-3 0,0 -1,-1 -2,-1 0,-1 -1,-1 -1,-1 -1,0 -1,0 -2,0l0 0 0 1c-1,0 -1,0 -1,1l0 0 -1 2 0 0c0,4 0,9 -1,13 0,5 -1,9 -2,14l-2 -3c1,0 2,0 3,1 1,0 2,1 2,1 1,1 2,1 3,2 0,1 0,1 1,1 0,1 0,1 0,2 0,1 1,1 1,2 -1,0 -1,1 -1,1 0,1 0,1 -1,2l-1 1c0,0 0,0 -1,1 0,0 0,0 -1,0 -1,1 -1,1 -2,1 1,-1 2,-2 3,-4l0 -1c0,0 0,0 0,0 1,-1 0,-1 0,-1l0 -1 0 0 -1 -1c-1,0 -1,-1 -2,-1 -1,0 -1,0 -2,-1 -1,0 -1,0 -2,0l-2 -1 0 -2c0,-4 1,-9 1,-13 1,-5 1,-9 2,-14l0 0 0 0c1,-1 1,-2 2,-3 0,-1 1,-1 1,-2 1,-1 1,-1 2,-1 0,0 1,-1 2,-1 0,0 1,0 1,0 1,1 2,1 2,1 1,0 1,1 2,2 1,0 1,1 2,2 0,1 1,3 2,4z"/>
   <path class="fil7" d="M1448 1119c0,0 -6,18 3,23 9,6 65,5 67,-11 2,-17 -12,-35 -29,-39 -16,-5 -41,27 -41,27z"/>
   <path class="fil11" d="M1509 1104c0,3 1,7 0,10 -2,15 -47,17 -63,13 0,6 0,12 5,15 9,6 65,5 67,-11 1,-10 -3,-20 -9,-27z"/>
   <path class="fil15" d="M1413 1093c0,0 44,-27 50,-25 6,2 13,4 13,4 0,0 8,-5 14,-2 6,2 31,12 27,18 -5,7 -19,2 -19,2 0,0 18,4 21,8 0,0 1,8 -7,8 -8,0 -26,-7 -26,-7 0,0 -25,32 -43,32 -19,0 -30,-38 -30,-38z"/>
   <path class="fil15" d="M783 1089c0,0 -38,-27 -44,-25 -5,2 -11,4 -11,4 0,0 -7,-5 -12,-2 -5,2 -27,12 -23,18 4,7 16,2 16,2 0,0 -16,4 -18,8 0,0 -1,8 6,8 7,0 23,-7 23,-7 0,0 21,31 37,31 16,0 26,-37 26,-37z"/>
   <path class="fil19" d="M1417 1077c-17,0 -99,30 -99,30 0,0 -61,-176 -112,-227 -51,-51 -216,-36 -294,-23 -50,9 -83,75 -98,233 -33,-17 -48,-24 -62,-20 -37,9 -28,54 -28,54 0,0 61,46 85,53 15,4 52,53 79,-123 -2,42 -21,126 -3,218l333 31c0,0 -12,-122 -16,-216 27,29 57,106 87,108 25,1 123,-29 147,-43 24,-13 -2,-75 -19,-75z"/>
   <path class="fil20" d="M1291 1195c-1,0 -1,0 -2,0 -29,-2 -58,-75 -85,-105l0 0c27,30 56,103 85,105 1,0 1,0 2,0l0 0z"/>
   <path class="fil10" d="M1422 1159l0 0c6,-3 11,-5 14,-7 0,0 0,0 0,0 0,0 0,0 0,0 -3,2 -8,4 -14,7z"/>
   <path class="fil20" d="M1319 1191c32,-7 78,-22 103,-32l0 0c-25,10 -71,25 -103,32z"/>
   <path class="fil10" d="M1436 1152c0,0 0,0 0,0 0,0 0,0 0,0zm0 0c0,0 0,0 0,0 0,0 0,0 0,0l0 0zm0 0c0,0 0,0 0,0 0,0 0,0 0,0l0 0zm0 0c0,0 0,0 0,0 0,0 0,0 0,0zm0 0c0,0 1,0 1,0 0,0 -1,0 -1,0zm1 0c0,0 0,0 0,0 0,0 0,0 0,0zm0 0c0,0 0,0 0,0 0,0 0,0 0,0l0 0zm0 0c0,0 0,0 0,0 0,0 0,0 0,0zm0 0c0,0 0,0 0,0 0,0 0,0 0,0zm0 0c0,0 0,0 0,0 0,0 0,0 0,0l0 0zm0 0c0,0 0,0 0,0 0,0 0,0 0,0zm0 0c0,0 0,0 0,0 0,0 0,0 0,0l0 0zm0 0c0,0 0,0 0,0 0,0 0,0 0,0l0 0zm0 0c0,0 0,0 0,0 0,0 0,0 0,0l0 0zm0 0c0,0 0,0 0,0 0,0 0,0 0,0l0 0zm0 0c0,0 0,0 0,0 0,0 0,0 0,0zm0 0c0,0 0,-1 0,-1 0,0 0,1 0,1zm0 -1c0,0 0,0 0,0 0,0 0,0 0,0zm0 0c0,0 0,0 1,0 -1,0 -1,0 -1,0l0 0zm1 0c0,0 0,0 0,0 0,0 0,0 0,0l0 0zm0 0c0,0 0,0 0,0 0,0 0,0 0,0l0 0zm0 0c3,-2 5,-5 6,-8 -1,3 -3,6 -6,8zm6 -8c0,0 0,0 0,0 0,0 0,0 0,0zm0 0c0,0 0,0 0,0 0,0 0,0 0,0zm0 0c0,0 0,0 0,0 0,0 0,0 0,0l0 0zm0 0c0,0 0,0 0,0 0,0 0,0 0,0z"/>
   <path class="fil20" d="M1318 1107c0,0 0,0 0,0l0 0zm0 0c0,0 0,0 0,0 0,0 0,0 0,0l0 0zm0 0c0,0 0,0 0,0 0,0 0,0 0,0zm0 0l0 0zm0 0c0,0 0,0 0,0z"/>
   <path class="fil21" d="M1044 1279l0 -59 93 0 31 0c18,0 32,-14 32,-32l0 -228c0,-17 -14,-31 -32,-31l-287 0c-8,0 -15,3 -21,7 17,-40 38,-60 64,-64 37,-6 93,-13 148,-13 61,0 119,8 146,35 0,0 1,1 1,1 48,64 98,210 99,212 0,0 0,0 0,0l0 0c0,0 0,0 0,0 0,0 0,0 0,0 0,0 0,0 0,0l0 0 0 0c4,12 6,19 6,19 0,0 89,-34 106,-34 1,0 3,1 5,2 8,14 14,35 9,49 0,0 0,0 0,0 0,0 0,0 0,0 0,0 0,0 0,0 0,0 0,0 0,0 0,0 0,0 0,0 0,0 0,0 0,0 0,0 0,0 0,0 0,0 0,0 0,0 -1,3 -3,6 -6,8l0 0c0,0 0,0 0,0 0,0 0,0 0,0 0,0 0,0 0,0 0,0 0,0 0,0 -1,0 -1,0 -1,0 0,0 0,0 0,0 0,0 0,0 0,0l0 0c0,0 0,1 0,1 0,0 0,0 0,0 0,0 0,0 0,0 0,0 0,0 0,0 0,0 0,0 0,0 0,0 0,0 0,0 0,0 0,0 0,0 0,0 0,0 0,0 0,0 0,0 0,0 0,0 0,0 0,0 0,0 0,0 0,0 0,0 0,0 0,0 0,0 0,0 0,0 0,0 0,0 0,0 0,0 0,0 0,0 0,0 0,0 0,0 0,0 0,0 0,0 0,0 0,0 0,0 0,0 0,0 0,0 0,0 0,0 0,0 0,0 0,0 0,0 0,0 0,0 0,0 0,0 0,0 0,0 0,0 0,0 0,0 0,0 -1,0 -1,0 0,0 0,0 0,0 0,0 0,0 0,0 0,0 0,0 0,0 0,0 0,0 0,0 0,0 0,0 0,0 0,0 0,0 0,0 0,0 0,0 0,0 0,0 0,0 0,0 0,0 0,0 0,0 0,0 0,0 0,0 -3,2 -8,4 -14,7 -25,10 -71,25 -103,32 -12,2 -22,4 -28,4 -1,0 -1,0 -2,0 -29,-2 -58,-75 -85,-105 0,-1 -1,-2 -2,-3l0 0c3,55 8,120 11,164 -33,10 -56,18 -92,22 -25,3 -51,5 -77,6zm-60 0c-21,-1 -42,-2 -63,-3l-36 -4c-1,0 -1,0 -1,0 -3,-18 -5,-35 -6,-52l106 0 0 59zm-151 -93c-10,0 -19,-8 -24,-9 -24,-7 -85,-53 -85,-53 0,0 0,0 0,0 0,0 -8,-41 23,-53 25,8 58,23 79,34 5,-57 13,-102 23,-137l0 211c-5,5 -11,7 -16,7z"/>
   <path class="fil17" d="M1411 1299c-78,-38 -196,-48 -196,-48 -34,10 -58,18 -94,22 -76,9 -152,6 -229,1 2,16 4,32 7,47 49,3 100,4 151,4 128,0 249,-9 361,-26z"/>
   <path class="fil7" d="M1200 1188c0,18 -14,32 -32,32l-287 0c-18,0 -32,-14 -32,-32l0 -228c0,-17 14,-31 32,-31l287 0c18,0 32,14 32,31l0 228z"/>
   <path class="fil22" d="M878 1220l-1 0c-7,0 -13,-3 -18,-7l2 0c4,4 11,6 17,7 0,0 0,0 0,0z"/>
   <path class="fil23" d="M850 1196l0 0c-1,-2 -1,-3 -1,-4l0 -4c0,3 1,5 1,8z"/>
   <path class="fil24" d="M861 1213l-2 0c-5,-5 -9,-11 -9,-17l0 0c2,6 5,12 11,17z"/>
   <path class="fil25" d="M984 1220l-106 0c0,0 0,0 0,0 1,0 2,0 3,0l103 0z"/>
   <path class="fil23" d="M1137 1220l-93 0 0 -102c0,0 0,0 0,0 0,0 0,0 0,0 0,0 0,0 0,0 0,0 0,0 0,0 0,0 0,0 0,0 0,0 0,0 0,0 0,0 0,0 0,0 0,0 0,0 0,0 0,0 0,0 0,0 0,0 0,0 0,0 0,0 0,0 0,0 0,0 0,0 0,0 0,-1 0,-1 0,-1 0,0 0,0 0,0 0,0 0,0 0,0 0,0 0,0 0,0 0,0 0,0 0,0 -1,-16 -14,-29 -30,-29 -16,0 -30,14 -30,30l0 102 -103 0c-1,0 -2,0 -3,0 -6,-1 -13,-3 -17,-7 -6,-5 -9,-11 -11,-17 0,-3 -1,-5 -1,-8l0 -200c0,-15 13,-28 28,-28l260 0c16,0 28,13 28,28l0 204c0,15 -12,28 -28,28z"/>
   <path class="fil26" d="M1044 1325l0 -207c0,-16 -14,-30 -30,-30 -16,0 -30,14 -30,30l0 206c20,1 40,1 60,1z"/>
   <path class="fil27" d="M1044 1220l0 0 0 -102 0 102zm0 -102c0,0 0,0 0,0 0,0 0,0 0,0zm0 0c0,0 0,0 0,0 0,0 0,0 0,0zm0 0c0,0 0,0 0,0 0,0 0,0 0,0zm0 0c0,0 0,0 0,0 0,0 0,0 0,0zm0 0c0,0 0,0 0,0 0,0 0,0 0,0zm0 0c0,0 0,0 0,0 0,0 0,0 0,0zm0 0c0,-1 0,-1 0,-1 0,0 0,0 0,1zm0 -1c0,0 0,0 0,0 0,0 0,0 0,0zm0 0c0,0 0,0 0,0 0,0 0,0 0,0z"/>
   <path class="fil28" d="M1030 1325l0 -221c0,-4 -1,-9 -3,-13 10,5 16,15 17,26 0,0 0,0 0,0 0,0 0,0 0,0 0,0 0,0 0,0 0,0 0,0 0,0 0,0 0,0 0,1 0,0 0,0 0,0 0,0 0,0 0,0 0,0 0,0 0,0 0,0 0,0 0,0 0,0 0,0 0,0 0,0 0,0 0,0 0,0 0,0 0,0 0,0 0,0 0,0 0,0 0,0 0,0 0,0 0,0 0,0 0,0 0,0 0,0 0,0 0,0 0,0l0 0 0 102 0 105c-5,0 -10,0 -14,0z"/>
  </g>
  <g id="_2798799065904">
   <path class="fil29" d="M1589 1120l157 0c8,0 14,-6 14,-14l0 -270c0,-8 -6,-14 -14,-14l-157 0c-8,0 -14,6 -14,14l0 270c0,8 6,14 14,14z"/>
   <path class="fil2" d="M1749 1120l128 0c6,0 12,-5 12,-11l0 -276c0,-6 -6,-11 -12,-11l-128 0c-6,0 -11,5 -11,11l0 276c0,6 5,11 11,11z"/>
   <path class="fil2" d="M1543 935l163 0c0,-29 32,-32 32,-32l-163 0c0,0 -32,3 -32,32z"/>
   <path class="fil30" d="M1575 1072l169 0c5,0 9,4 9,9l0 59c0,5 -4,10 -9,10l-169 0c-5,0 -9,-5 -9,-10l0 -59c0,-5 4,-9 9,-9z"/>
   <path class="fil31" d="M1738 1072l37 0 0 0 0 0 0 0c1,0 10,0 15,12 6,11 5,23 21,23 15,0 -7,0 7,0 15,0 15,-12 20,-23 5,-12 14,-12 15,-12l0 0 0 0 0 0 35 0c5,0 9,4 9,9l0 59c0,5 -4,10 -9,10l-150 0c-5,0 -9,-5 -9,-10l0 -59c0,-5 4,-9 9,-9z"/>
   <path class="fil2" d="M1543 1037l163 0c0,-29 32,-32 32,-32l-163 0c0,0 -32,3 -32,32z"/>
   <path class="fil32" d="M1915 989l-148 0c0,-30 -29,-33 -29,-33l148 0c0,0 29,3 29,33z"/>
   <path class="fil29" d="M1761 854l114 0c3,0 5,2 5,5l0 0c0,3 -2,5 -5,5l-114 0c-2,0 -5,-2 -5,-5l0 0c0,-3 3,-5 5,-5z"/>
   <path class="fil29" d="M1761 909l114 0c3,0 5,3 5,5l0 0c0,3 -2,5 -5,5l-114 0c-2,0 -5,-2 -5,-5l0 0c0,-2 3,-5 5,-5z"/>
   <path class="fil29" d="M1761 1025l114 0c3,0 5,2 5,5l0 0c0,2 -2,5 -5,5l-114 0c-2,0 -5,-3 -5,-5l0 0c0,-3 3,-5 5,-5z"/>
   <path class="fil32" d="M1599 850l110 0c2,0 5,2 5,5l0 0c0,3 -3,5 -5,5l-110 0c-3,0 -5,-2 -5,-5l0 0c0,-3 2,-5 5,-5z"/>
   <path class="fil32" d="M1599 974l110 0c2,0 5,3 5,5l0 0c0,3 -3,6 -5,6l-110 0c-3,0 -5,-3 -5,-6l0 0c0,-2 2,-5 5,-5z"/>
   <path class="fil32" d="M1599 1054l110 0c2,0 5,2 5,5l0 0c0,3 -3,5 -5,5l-110 0c-3,0 -5,-2 -5,-5l0 0c0,-3 2,-5 5,-5z"/>
   <path class="fil29" d="M1508 1132l95 0c5,0 8,-4 8,-9l0 -163c0,-5 -3,-9 -8,-9l-95 0c-5,0 -9,4 -9,9l0 163c0,5 4,9 9,9z"/>
   <path class="fil2" d="M1605 1132l77 0c4,0 7,-3 7,-7l0 -167c0,-4 -3,-7 -7,-7l-77 0c-4,0 -7,3 -7,7l0 167c0,4 3,7 7,7z"/>
   <path class="fil2" d="M1480 1020l99 0c0,-18 19,-20 19,-20l-99 0c0,0 -19,2 -19,20z"/>
   <path class="fil30" d="M1499 1103l103 0c3,0 5,2 5,5l0 36c0,3 -2,6 -5,6l-103 0c-3,0 -5,-3 -5,-6l0 -36c0,-3 2,-5 5,-5z"/>
   <path class="fil31" d="M1598 1103l23 0 0 0 0 0c0,0 6,0 9,7 3,7 3,14 12,14 9,0 -4,0 4,0 10,0 10,-8 13,-14 3,-7 8,-7 9,-7l0 0 0 0 0 0 21 0c3,0 6,2 6,5l0 36c0,3 -3,6 -6,6l-91 0c-3,0 -5,-3 -5,-6l0 -36c0,-3 2,-5 5,-5z"/>
   <path class="fil2" d="M1480 1082l99 0c0,-18 19,-20 19,-20l-99 0c0,0 -19,2 -19,20z"/>
   <path class="fil32" d="M1705 1052l-89 0c0,-18 -18,-20 -18,-20l90 0c0,0 17,2 17,20z"/>
   <path class="fil29" d="M1612 971l69 0c2,0 3,1 3,3l0 0c0,1 -1,3 -3,3l-69 0c-1,0 -3,-2 -3,-3l0 0c0,-2 2,-3 3,-3z"/>
   <path class="fil29" d="M1612 1004l69 0c2,0 3,2 3,3l0 0c0,2 -1,3 -3,3l-69 0c-1,0 -3,-1 -3,-3l0 0c0,-1 2,-3 3,-3z"/>
   <path class="fil29" d="M1612 1074l69 0c2,0 3,1 3,3l0 0c0,2 -1,3 -3,3l-69 0c-1,0 -3,-1 -3,-3l0 0c0,-2 2,-3 3,-3z"/>
   <path class="fil32" d="M1514 968l67 0c1,0 3,2 3,3l0 0c0,2 -2,3 -3,3l-67 0c-2,0 -3,-1 -3,-3l0 0c0,-1 1,-3 3,-3z"/>
   <path class="fil32" d="M1514 1044l67 0c1,0 3,1 3,3l0 0c0,1 -2,3 -3,3l-67 0c-2,0 -3,-2 -3,-3l0 0c0,-2 1,-3 3,-3z"/>
   <path class="fil32" d="M1514 1092l67 0c1,0 3,1 3,3l0 0c0,2 -2,3 -3,3l-67 0c-2,0 -3,-1 -3,-3l0 0c0,-2 1,-3 3,-3z"/>
  </g>
  <g id="_2798799073648">
   <path class="fil33" d="M542 1139c-36,0 -65,-8 -65,-18 0,-10 29,-18 65,-18 35,0 64,8 64,18 0,10 -29,18 -64,18z"/>
   <polygon class="fil19" points="495,996 500,1117 604,1115 612,996 "/>
   <path class="fil34" d="M498 996c0,8 25,14 57,14 32,0 55,-6 55,-14 0,-8 -23,-14 -55,-14 -32,0 -57,6 -57,14z"/>
   <path class="fil19" d="M498 996l-3 0c0,2 0,3 2,5 1,2 4,4 8,5 5,2 12,4 21,5 9,1 18,2 29,2 16,0 30,-2 40,-4 5,-2 9,-3 12,-5 2,-1 3,-2 4,-3 1,-2 2,-3 2,-5 0,-2 -1,-3 -2,-4 -2,-3 -4,-4 -8,-6 -5,-2 -11,-4 -20,-5 -8,-1 -17,-2 -28,-2 -16,0 -31,2 -41,4 -6,2 -10,3 -13,5 -2,1 -3,2 -4,3 -2,2 -2,3 -2,5l3 0 2 0c0,0 0,0 1,-1 1,-1 3,-2 6,-4 5,-1 12,-3 20,-4 8,-1 18,-2 28,-2 16,0 29,1 39,4 4,1 8,3 10,4 1,1 2,1 2,2 1,1 1,1 1,1 0,0 0,1 -1,1 0,1 -2,3 -5,4 -4,2 -11,3 -18,4 -8,2 -18,2 -28,2 -16,0 -30,-1 -40,-4 -5,-1 -9,-2 -12,-4 -1,-1 -2,-1 -2,-2 -1,0 -1,-1 -1,-1l-2 0z"/>
   <path class="fil19" d="M500 1116c0,8 27,17 54,17 27,0 50,-10 50,-18 0,-8 -22,-14 -49,-14 -27,0 -55,8 -55,15z"/>
   <path class="fil19" d="M465 1052l-7 0c0,21 17,38 38,38 21,0 38,-17 38,-38 0,-21 -17,-38 -38,-38 -21,0 -38,17 -38,38l7 0 7 0c0,-7 3,-13 7,-17 4,-5 10,-7 17,-7 7,0 13,2 18,7 4,4 7,10 7,17 0,7 -3,13 -7,17 -5,5 -11,8 -18,8 -7,0 -13,-3 -17,-8 -4,-4 -7,-10 -7,-17l-7 0z"/>
   <path class="fil35" d="M581 1004l0 47c0,1 1,2 2,2 1,0 2,-1 2,-2l0 -47c0,0 -1,-1 -2,-1 -1,0 -2,1 -2,1z"/>
   <polygon class="fil2" points="583,1040 567,1056 570,1080 599,1079 601,1050 "/>
  </g>
 </g>
</svg>
