<?xml version="1.0" encoding="UTF-8"?>
<!DOCTYPE svg PUBLIC "-//W3C//DTD SVG 1.1//EN" "http://www.w3.org/Graphics/SVG/1.1/DTD/svg11.dtd">
<!-- Creator: CorelDRAW X7 -->
<svg xmlns="http://www.w3.org/2000/svg" xml:space="preserve" width="251.332mm" height="137.614mm" version="1.1" style="shape-rendering:geometricPrecision; text-rendering:geometricPrecision; image-rendering:optimizeQuality; fill-rule:evenodd; clip-rule:evenodd"
viewBox="0 0 14543 7963"
 xmlns:xlink="http://www.w3.org/1999/xlink">
 <defs>
  <style type="text/css">
   <![CDATA[
    .fil6 {fill:#FEFEFE}
    .fil12 {fill:#FCD985}
    .fil10 {fill:#FBCE62}
    .fil13 {fill:#FBCD5D}
    .fil40 {fill:#F9C779}
    .fil11 {fill:#F9C038}
    .fil31 {fill:#F7B122}
    .fil7 {fill:#F09094}
    .fil23 {fill:#EF8C7B}
    .fil27 {fill:#F08519}
    .fil20 {fill:#EC7159}
    .fil5 {fill:#E94E45}
    .fil14 {fill:#F3F4F2}
    .fil39 {fill:#EAA855}
    .fil24 {fill:#ECEBEB}
    .fil21 {fill:#E8E8E7}
    .fil26 {fill:#E1C176}
    .fil32 {fill:#DAA327}
    .fil19 {fill:#D8B76C}
    .fil15 {fill:#D8AF52}
    .fil25 {fill:#D8D9D8}
    .fil30 {fill:#C75A45}
    .fil17 {fill:#D1D3D2}
    .fil0 {fill:#CDEAF9}
    .fil22 {fill:#CCCFCC}
    .fil29 {fill:#9C4439}
    .fil28 {fill:#BAE1E3}
    .fil36 {fill:#A0D9F6}
    .fil4 {fill:#90C3DA}
    .fil35 {fill:#79C6B4}
    .fil16 {fill:#61BFED}
    .fil33 {fill:#61BFED}
    .fil34 {fill:#64B9A3}
    .fil38 {fill:#2B869D}
    .fil41 {fill:#3F477F}
    .fil9 {fill:#1E455F}
    .fil18 {fill:#1D3A51}
    .fil42 {fill:#2C3665}
    .fil37 {fill:#006987}
    .fil1 {fill:#00A2E9}
    .fil2 {fill:#00CCFF}
    .fil3 {fill:#91E9FF}
    .fil8 {fill:white}
   ]]>
  </style>
 </defs>
 <g id="Layer_x0020_1">
  <metadata id="CorelCorpID_0Corel-Layer"/>
  <path class="fil0" d="M10968 828c-114,0 -207,-93 -207,-207 0,-114 93,-207 207,-207 114,0 207,93 207,207 0,114 -93,207 -207,207zm-8782 4958l-1077 0 -28 0c-594,0 -1081,487 -1081,1082l0 0c0,594 487,1081 1081,1081l3157 0 544 0 8010 0c963,0 1751,-788 1751,-1751l0 0c0,-963 -788,-1751 -1751,-1751l0 0c-407,0 -3108,117 -3108,-740l0 0c0,-407 333,-740 741,-740l890 0c424,0 770,-347 770,-770l0 0c0,-423 -346,-770 -770,-770l-1126 0c-165,0 -300,-135 -300,-299l0 0c0,-165 135,-300 300,-300l198 0c114,0 207,-93 207,-207l0 0c0,-114 -93,-207 -207,-207l-744 0c0,0 -284,0 -559,0 -274,0 -305,325 -998,325 -1072,0 -926,0 -1998,0 -148,0 -270,121 -270,270l0 0c0,148 122,269 270,269l259 0c216,0 391,176 391,391l0 0c0,215 -175,391 -391,391l-390 0c-1053,0 -1201,276 -1386,823 -184,547 -1142,592 -1142,592l-1310 0c-324,0 -589,265 -589,589l0 0c0,324 265,589 589,589l67 0c312,0 567,255 567,567l0 0c0,311 -255,566 -567,566l0 0z"/>
  <path class="fil1" d="M7652 1193c-15,18 -1,45 23,44 7,-1 14,-4 19,-10 11,-14 22,-27 34,-41 18,-21 -3,-52 -30,-43 -4,2 -8,4 -11,8 -12,13 -24,27 -35,42zm-126 180c-5,10 -4,21 2,30 12,15 35,13 45,-3 9,-15 18,-30 27,-45 7,-10 6,-23 -2,-32 -11,-14 -33,-12 -43,3 -10,15 -20,31 -29,47l0 0zm-89 202c-2,6 -2,12 0,18 9,24 43,23 51,-2 5,-15 11,-34 17,-49 4,-10 1,-22 -7,-30 -14,-12 -37,-7 -43,11 -7,17 -13,35 -18,52l0 0zm-36 220c0,28 36,38 51,14 2,-4 3,-8 3,-13 0,-17 1,-34 3,-52 2,-28 -35,-41 -50,-16 -2,4 -3,7 -4,11 -2,19 -2,37 -3,56l0 0zm25 221c2,9 8,15 17,19 20,7 40,-11 35,-32 -4,-17 -8,-34 -11,-51 -5,-28 -44,-30 -52,-3 -1,4 -1,8 -1,12 4,19 8,37 12,55l0 0zm82 206c5,10 16,15 27,14 19,-3 29,-23 20,-40 -8,-15 -16,-30 -24,-46 -5,-11 -17,-18 -30,-15 -17,3 -26,22 -19,38 8,17 17,33 26,49l0 0zm130 180c18,20 51,3 46,-24 -1,-5 -3,-9 -6,-12 -12,-13 -24,-27 -35,-40 -7,-9 -20,-13 -31,-8 -17,6 -22,28 -11,42 12,14 24,28 37,42zm163 148c21,15 50,-5 42,-31 -2,-5 -5,-9 -9,-13 -14,-10 -28,-21 -42,-32 -18,-15 -46,-1 -44,23 1,8 4,14 10,19 14,11 29,22 43,34l0 0zm186 117c7,4 16,5 24,1 20,-9 21,-38 1,-48 -15,-9 -31,-17 -46,-26 -7,-4 -16,-5 -24,-2 -20,9 -22,37 -3,48 15,10 31,19 48,27l0 0zm198 92c10,4 21,2 29,-6 14,-13 9,-36 -9,-44 -16,-6 -33,-13 -49,-20 -27,-11 -50,21 -31,43 3,3 6,5 9,6 17,8 34,15 51,21l0 0zm206 71c25,8 45,-22 29,-42 -3,-5 -8,-8 -13,-9 -17,-5 -35,-10 -51,-16 -25,-8 -46,21 -30,42 3,4 8,8 13,9 17,6 35,11 52,16l0 0zm211 54c25,6 43,-23 27,-43 -5,-5 -9,-8 -15,-9 -18,-4 -35,-8 -53,-12 -23,-6 -41,19 -29,40 4,6 10,11 17,12 18,5 35,9 53,12l0 0zm214 40c22,4 38,-20 27,-40 -4,-7 -11,-12 -19,-13 -18,-3 -35,-5 -53,-9 -8,-1 -17,2 -23,8 -16,15 -8,41 14,46 18,3 36,5 54,8l0 0zm215 28c28,3 41,-33 18,-49 -4,-2 -8,-4 -12,-4 -18,-2 -36,-4 -54,-6 -10,-1 -19,3 -25,11 -12,17 -1,40 19,42 18,3 36,5 54,6l0 0zm215 20c27,2 40,-31 20,-48 -5,-4 -10,-6 -15,-6 -18,-2 -36,-3 -54,-5 -12,-1 -22,6 -27,17 -7,17 4,36 23,37 17,2 35,3 53,5l0 0zm214 21c12,1 24,-6 28,-17 7,-16 -4,-35 -22,-37 -18,-2 -36,-4 -54,-6 -26,-2 -40,31 -20,48 4,3 9,5 15,6 18,2 35,4 53,6l0 0zm214 26c24,3 39,-24 25,-43 -5,-6 -10,-10 -18,-11 -18,-2 -36,-4 -54,-7 -27,-3 -41,31 -19,49 3,2 8,4 12,5 18,2 36,4 54,7l0 0zm212 32c26,4 42,-28 23,-47 -4,-3 -9,-6 -14,-7 -18,-3 -36,-5 -53,-8 -29,-4 -44,33 -19,49 3,2 7,4 10,4 18,3 36,6 53,9l0 0zm212 38c25,5 42,-25 25,-44 -4,-5 -9,-8 -15,-9 -18,-3 -35,-7 -53,-10 -27,-5 -43,28 -23,47 4,3 8,5 13,6 18,3 35,7 53,10l0 0zm209 46c27,6 45,-28 25,-46 -4,-4 -8,-6 -12,-7 -17,-3 -36,-8 -53,-12 -24,-6 -42,22 -28,42 4,5 10,9 16,11 17,3 36,9 52,12l0 0zm208 54c10,3 21,0 28,-9 12,-15 5,-38 -13,-43 -18,-5 -35,-10 -53,-14 -6,-2 -14,-1 -20,2 -21,12 -17,43 6,50 18,4 35,9 52,14l0 0zm204 64c24,8 45,-18 32,-39 -3,-6 -8,-10 -14,-12l-4 -1c-16,-6 -32,-11 -48,-16 -22,-8 -43,16 -32,38 3,6 9,11 16,13 15,5 31,10 47,16l3 1zm199 78c21,9 43,-10 37,-33 -3,-8 -8,-13 -15,-16l-26 -11 -24 -11c-24,-9 -47,16 -34,39 3,5 7,9 13,11l24 10 25 11zm191 95c12,6 27,3 35,-8 10,-13 5,-32 -9,-40l-5 -2 -23 -13 -20 -10c-23,-12 -48,12 -37,35 3,6 7,10 12,12l20 11 22 12 5 3zm182 111c10,7 22,6 31,-1 15,-11 14,-33 -1,-44l-14 -9 -22 -14 -9 -7c-23,-14 -51,10 -39,35 2,4 5,8 10,11l9 6 21 13 14 10zm170 128c19,15 46,1 44,-23 -1,-8 -4,-14 -9,-18l-9 -7 -19 -16 -15 -12c-8,-6 -18,-7 -27,-3 -19,8 -22,33 -6,46l14 11 19 15 8 7zm157 144c19,19 52,2 46,-25 -2,-5 -4,-9 -8,-13l-7 -7 -17 -17 -14 -14c-20,-19 -51,-1 -45,25 1,6 3,10 7,14l15 13 16 17 7 7zm142 159c18,21 52,6 48,-22 -1,-4 -3,-9 -6,-12l-9 -11 -15 -19 -11 -12c-15,-18 -45,-9 -47,15 -1,8 1,14 6,20l11 12 14 18 9 11zm126 172c5,8 15,13 25,12 20,-2 31,-25 19,-42l-12 -19 -13 -19 -5 -7c-6,-9 -17,-13 -28,-11 -19,4 -27,26 -16,42l5 7 12 18 13 19zm107 184c13,25 51,15 51,-13 0,-4 -1,-8 -3,-12l-5 -10 -11 -20 -10 -18c-14,-25 -51,-15 -51,13 0,5 2,9 4,13l9 17 11 20 5 10zm88 193c4,9 11,15 19,17 22,4 40,-16 31,-37l-9 -23 -9 -21 -2 -6c-10,-21 -38,-22 -49,-2 -4,7 -4,15 -1,23l3 6 8 20 9 23zm69 202c4,11 14,19 25,19 19,1 32,-17 27,-34l-5 -19 -7 -21 -4 -12c-8,-27 -47,-25 -52,3 -1,5 0,9 1,13l4 12 6 21 5 18zm49 207c1,9 7,16 15,20 20,9 42,-8 38,-30l-3 -15 -4 -21 -4 -17c-2,-12 -12,-20 -24,-21 -18,-2 -32,14 -28,32l3 16 4 21 3 15zm28 212c2,24 34,33 48,13 4,-5 6,-12 5,-18l-1 -13 -2 -22 -2 -19c0,-6 -3,-11 -6,-16 -18,-19 -50,-5 -47,21l2 19 2 22 1 13zm6 212c0,30 41,38 52,11 2,-3 2,-7 2,-10l1 -13 0 -21 0 -20c-1,-23 -27,-35 -44,-21 -7,5 -10,13 -10,21l0 19 0 22 -1 12zm-14 213c-1,11 4,21 13,26 17,10 38,-1 40,-20l2 -14 2 -21 2 -19c2,-26 -30,-40 -47,-21 -4,5 -6,10 -6,16l-2 18 -3 21 -1 14zm-37 209c-5,27 28,45 47,25 3,-4 5,-8 6,-13l4 -16 4 -21 4 -16c5,-28 -30,-44 -48,-23 -3,4 -4,8 -5,12l-4 16 -4 21 -4 15zm-58 205c-8,26 22,47 43,29 4,-3 7,-7 8,-12l7 -19 6 -20 4 -13c3,-9 1,-18 -5,-25 -14,-16 -40,-11 -46,9l-4 13 -7 19 -6 19zm-80 197c-5,10 -3,21 4,29 13,15 36,11 45,-6l10 -23 9 -19 4 -8c10,-26 -20,-49 -42,-32 -4,3 -6,7 -8,11l-3 7 -9 19 -10 22zm-102 186c-12,20 4,45 28,41 7,-2 13,-6 18,-12l4 -7 11 -19 13 -21c6,-10 5,-22 -2,-31 -12,-14 -35,-12 -45,4l-12 21 -11 17 -4 7zm-123 173c-6,8 -8,18 -4,27 8,19 33,23 46,7l8 -10 13 -17 13 -16c13,-18 0,-43 -22,-43 -9,0 -16,4 -21,10l-12 16 -13 17 -8 9zm-143 157c-9,9 -11,22 -5,33 9,15 30,18 43,6l10 -11 16 -15 12 -13c6,-6 9,-14 7,-22 -3,-23 -30,-32 -46,-15l-12 12 -14 15 -11 10zm-162 138c-23,19 -4,55 24,48 4,-1 6,-3 9,-5l12 -9 18 -13 13 -12c19,-15 10,-44 -14,-47 -7,-1 -14,1 -20,6l-13 10 -17 13 -12 9zm-176 118c-25,14 -13,52 15,50 5,-1 8,-2 12,-4l8 -5 19 -11 20 -12c24,-15 12,-52 -17,-50 -4,1 -8,2 -12,4l-18 12 -19 11 -8 5zm-190 95c-10,4 -16,13 -16,24 -1,20 20,34 38,25l18 -8 21 -9 10 -5c25,-12 19,-48 -8,-51 -5,-1 -10,0 -15,2l-9 5 -21 9 -18 8zm-200 73c-27,9 -24,48 4,53 4,0 9,0 12,-1l22 -7 23 -8 7 -2c9,-3 15,-10 18,-18 5,-21 -15,-40 -35,-33l-7 2 -22 7 -22 7zm-206 52c-9,1 -16,7 -20,15 -8,20 9,42 30,37l16 -3 25 -5 13 -3c26,-6 28,-41 4,-51 -5,-2 -11,-3 -16,-1l-12 2 -24 5 -16 4zm-211 30c-11,2 -21,10 -24,21 -4,18 11,35 30,33l24 -2 30 -4c24,-3 32,-35 12,-49 -6,-4 -13,-5 -19,-4l-29 3 -24 2zm-213 12c-26,1 -36,33 -16,49 5,3 11,5 17,5l22 0 28 -1 4 0c27,-1 36,-36 13,-50 -4,-3 -10,-4 -15,-4l-31 1 -22 0zm-2441 -6172c20,-18 5,-51 -21,-47 -5,1 -10,3 -14,6 -14,13 -27,25 -41,37 -8,9 -10,21 -5,32 8,16 29,20 42,8 13,-12 26,-24 39,-36l0 0z"/>
  <polygon class="fil1" points="7949,390 8032,869 9113,0 7984,278 "/>
  <path class="fil2" d="M8032 869l417 -335c6,-39 19,-85 19,-85l-350 94 -86 326z"/>
  <polygon class="fil3" points="9113,0 7651,270 7949,390 "/>
  <polygon class="fil3" points="9113,0 8456,873 8118,543 "/>
  <g id="_2798796020608">
   <path class="fil4" d="M5314 659c142,-34 291,-52 443,-52l0 0c212,0 386,-174 386,-386l0 0c0,-19 -1,-37 -4,-55l611 0c92,0 167,76 167,168l0 690 0 51 0 440c0,8 -4,14 -12,17 -7,3 -14,2 -20,-4l-285 -285 -1118 0c-92,0 -168,-75 -168,-168l0 -416z"/>
   <path class="fil5" d="M5418 103l1268 0c92,0 167,75 167,167l0 691 0 51 0 439c0,8 -4,15 -11,18 -7,3 -15,1 -21,-4l-285 -286 -1118 0c-92,0 -168,-75 -168,-167l0 -742c0,-92 76,-167 168,-167z"/>
   <path class="fil6" d="M6438 458l-216 -1c-4,0 -9,-1 -12,-3l-372 -190 -3 677 373 -186c4,-2 8,-4 12,-3l214 0 3 0c39,0 74,-16 99,-42 25,-26 41,-62 42,-101l0 -3c0,-41 -16,-78 -41,-105 -26,-26 -61,-43 -99,-43zm-210 -53l210 1c53,0 102,22 137,59 34,36 56,86 56,141l0 1c0,0 0,1 0,2 -1,54 -23,102 -57,138 -35,36 -84,58 -137,58l-1 0c0,0 -1,0 -2,0l-208 -1 -370 185c-8,5 -16,6 -25,6 -9,-1 -17,-3 -25,-8 -7,-5 -13,-12 -17,-20 -4,-7 -6,-15 -6,-24l2 -680c0,-9 2,-18 6,-25 4,-8 10,-14 18,-19 8,-5 16,-8 25,-8 9,-1 17,1 25,5l2 2 367 187z"/>
   <path class="fil6" d="M6484 772l0 236c0,47 -38,85 -84,85l0 0c-47,0 -85,-38 -85,-85l0 -230 121 1c17,0 33,-3 48,-7z"/>
   <polygon class="fil6" points="6261,778 6300,778 6300,431 6261,431 "/>
   <polygon class="fil6" points="6388,778 6427,778 6427,431 6388,431 "/>
   <path class="fil6" d="M5697 663c15,-2 28,7 31,22 2,14 -7,28 -22,30l-202 35c-15,3 -28,-7 -31,-21 -2,-15 7,-28 22,-31l202 -35zm16 -323c13,7 19,23 13,36 -7,13 -23,18 -36,12l-152 -74c-13,-6 -19,-22 -12,-35 6,-13 22,-19 35,-12l152 73zm-23 478c13,-6 29,-1 36,12 6,13 0,29 -13,35l-133 65c-13,6 -29,1 -35,-13 -7,-13 -1,-28 12,-35l133 -64zm16 -327c15,2 24,16 22,30 -3,15 -16,24 -31,22l-202 -35c-15,-3 -24,-17 -22,-31 3,-14 16,-24 31,-21l202 35z"/>
  </g>
  <g id="_2798796021952">
   <path class="fil4" d="M12529 916l-1319 0c-96,0 -174,79 -174,174l0 719 0 53 0 457c0,8 4,15 12,18 7,3 15,2 21,-4l297 -297 1163 0c96,0 174,-78 174,-174l0 -772c0,-96 -78,-174 -174,-174z"/>
   <path class="fil5" d="M12454 916l-1320 0c-95,0 -174,79 -174,174l0 719 0 53 0 457c0,8 5,15 12,18 8,3 16,2 21,-4l297 -297 1164 0c95,0 174,-78 174,-174l0 -772c0,-96 -79,-174 -174,-174z"/>
   <path class="fil7" d="M11465 1452c69,0 125,-56 125,-125 0,-69 -56,-126 -125,-126 -70,0 -126,57 -126,126 0,69 56,125 126,125z"/>
   <path class="fil7" d="M11465 1492l0 0c97,0 178,80 178,178l0 76 0 47 0 51c0,10 -9,19 -20,19l-316 0c-11,0 -20,-9 -20,-19l0 -51 0 -47 0 -76c0,-98 80,-178 178,-178z"/>
   <path class="fil7" d="M12123 1452c69,0 126,-56 126,-125 0,-69 -57,-126 -126,-126 -69,0 -125,57 -125,126 0,69 56,125 125,125z"/>
   <path class="fil7" d="M12123 1492l0 0c98,0 178,80 178,178l0 76 0 47 0 51c0,10 -9,19 -20,19l-316 0c-11,0 -20,-9 -20,-19l0 -51 0 -47 0 -76c0,-98 80,-178 178,-178z"/>
   <path class="fil6" d="M11794 1369c83,0 151,-68 151,-151 0,-83 -68,-151 -151,-151 -83,0 -151,68 -151,151 0,83 68,151 151,151z"/>
   <path class="fil6" d="M11794 1417l0 0c118,0 214,96 214,214l0 92 0 56 0 61c0,13 -11,23 -24,23l-380 0c-13,0 -24,-10 -24,-23l0 -61 0 -56 0 -92c0,-118 96,-214 214,-214z"/>
  </g>
  <path class="fil1" d="M12782 6752c-39,9 -79,22 -115,41 7,9 15,18 23,26 48,47 106,82 169,101 -18,-23 -32,-49 -44,-74 -14,-30 -24,-62 -33,-94zm498 41c-36,-19 -76,-32 -115,-41 -9,32 -19,64 -33,94 -12,26 -26,51 -44,74 63,-19 121,-54 169,-101 8,-8 16,-17 23,-26l0 0zm-110 -451c42,-10 85,-26 123,-47 -11,-15 -23,-29 -36,-42 -48,-47 -106,-82 -169,-101 18,23 32,49 44,74 17,37 29,76 38,116l0 0zm-516 -47c38,21 81,37 123,47 9,-40 21,-79 38,-116 12,-25 26,-51 44,-74 -63,19 -121,54 -169,101 -13,13 -25,27 -36,42l0 0zm296 69l0 -224c-43,16 -74,69 -91,106 -16,34 -27,70 -35,106 41,7 84,11 126,12l0 0zm0 568l0 -201c-41,1 -81,5 -121,11 8,29 17,57 30,84 17,38 48,91 91,106l0 0zm47 -201l0 201c43,-15 74,-68 91,-106 13,-27 22,-55 30,-84 -40,-6 -80,-10 -121,-11l0 0zm0 -591l0 224c42,-1 85,-5 126,-12 -8,-36 -19,-72 -35,-106 -17,-37 -48,-90 -91,-106l0 0zm193 372l183 0c-4,-62 -22,-123 -53,-177 -43,25 -93,42 -141,54 7,41 10,82 11,123l0 0zm-58 -113c-44,7 -90,12 -135,13l0 100 145 0c-1,-38 -4,-76 -10,-113l0 0zm-317 0c-6,37 -9,75 -10,113l145 0 0 -100c-45,-1 -91,-6 -135,-13l0 0zm-241 113l183 0c1,-41 4,-82 11,-123 -48,-12 -98,-29 -141,-54 -31,54 -49,115 -53,177l0 0zm183 48l-183 0c4,69 26,136 64,194 41,-22 88,-38 134,-49 -9,-47 -14,-96 -15,-145l0 0zm193 0l-145 0c1,45 5,91 14,136 43,-8 87,-12 131,-13l0 -123zm192 0l-145 0 0 123c44,1 88,5 131,13 9,-45 13,-91 14,-136l0 0zm231 0l-183 0c-1,49 -6,98 -15,145 46,11 93,27 134,49 38,-58 60,-125 64,-194l0 0zm-399 -472c119,0 232,47 316,131 85,85 132,198 132,317 0,119 -47,233 -132,317 -84,84 -197,131 -317,131 -119,0 -232,-47 -316,-131 -85,-84 -132,-198 -132,-317 0,-119 47,-232 132,-317 84,-84 197,-131 316,-131l1 0z"/>
  <path class="fil8" d="M4519 3343l-90 0c-1,0 -2,1 -3,2l-1 0c-1,1 -1,3 -1,4l0 284c0,1 0,3 1,4 1,1 3,1 4,1l90 0c2,0 3,0 4,-1l0 0c1,-1 2,-3 2,-4l0 -284c0,-1 -1,-3 -2,-4 -1,-1 -2,-2 -4,-2zm56 240c23,23 61,53 93,53l198 0c28,0 52,-20 57,-48 2,-8 7,-14 13,-17 19,-10 19,-40 17,-56 -2,-10 1,-20 9,-26 24,-17 16,-55 6,-78 -3,-6 -4,-12 -2,-18 2,-9 4,-19 4,-28 0,-8 -1,-17 -7,-24 -5,-5 -12,-8 -19,-10 -7,-2 -15,-3 -23,-3l-108 0c-24,0 -44,-8 -53,-31 -12,-28 -1,-68 7,-95 4,-13 6,-26 6,-40 0,-18 -4,-38 -13,-54 -3,-6 -11,-18 -18,-20l-16 0c-1,32 -3,66 -12,97 -12,42 -34,75 -73,96 -37,20 -60,69 -66,109l0 193zm-22 -279c15,-27 36,-51 64,-67 26,-14 41,-37 49,-65 9,-34 10,-74 10,-110 0,-13 11,-25 25,-25l43 0c4,0 8,1 13,2 19,7 36,26 46,44 14,24 20,52 20,79 1,19 -2,37 -8,55 -4,12 -14,48 -9,60 1,1 5,1 7,1l108 0c12,0 24,1 36,4 17,5 32,13 44,26 14,16 19,36 19,57 0,11 -1,22 -4,32 16,40 19,90 -13,123 2,33 -6,69 -34,89 -15,47 -53,77 -103,77l-198 0c-34,0 -67,-18 -95,-39 -2,10 -7,18 -15,26l-1 0c-10,10 -24,16 -38,16l-90 0c-14,0 -29,-6 -39,-17 -11,-10 -17,-24 -17,-39l0 -284c0,-15 6,-29 17,-40l1 0c10,-10 24,-16 38,-16l90 0c12,0 24,4 34,11l0 0z"/>
  <path class="fil6" d="M6638 2794l0 0c76,-76 201,-76 277,0l18 19 19 -19c76,-76 201,-76 277,0l0 0c76,76 76,201 0,277l-19 19 -277 276 -276 -276 -19 -19c-76,-76 -76,-201 0,-277z"/>
  <path class="fil4" d="M11053 4358c37,0 67,-30 67,-66 0,-37 -30,-67 -67,-67 -37,0 -67,30 -67,67 0,36 30,66 67,66z"/>
  <g id="_2798796026976">
   <path class="fil1" d="M1745 7946c36,0 66,-30 66,-67 0,-37 -30,-66 -66,-66 -37,0 -67,29 -67,66 0,37 30,67 67,67z"/>
   <path class="fil1" d="M3742 3475c37,0 67,-30 67,-67 0,-36 -30,-66 -67,-66 -37,0 -66,30 -66,66 0,37 29,67 66,67z"/>
   <path class="fil1" d="M3580 7299c37,0 67,-30 67,-67 0,-36 -30,-66 -67,-66 -36,0 -66,30 -66,66 0,37 30,67 66,67z"/>
   <path class="fil1" d="M9944 6966c37,0 67,-30 67,-67 0,-36 -30,-66 -67,-66 -36,0 -66,30 -66,66 0,37 30,67 66,67z"/>
   <g>
    <path class="fil1" d="M9091 1960l76 0c18,0 33,-15 33,-33l0 -76c0,-19 -15,-34 -33,-34l-76 0c-19,0 -34,15 -34,34l0 76c0,18 15,33 34,33z"/>
    <path class="fil1" d="M9355 1960l76 0c18,0 33,-15 33,-33l0 -76c0,-19 -15,-34 -33,-34l-76 0c-19,0 -34,15 -34,34l0 76c0,18 15,33 34,33z"/>
    <path class="fil1" d="M9619 1960l76 0c18,0 33,-15 33,-33l0 -76c0,-19 -15,-34 -33,-34l-76 0c-19,0 -34,15 -34,34l0 76c0,18 15,33 34,33z"/>
    <path class="fil1" d="M9883 1960l76 0c18,0 33,-15 33,-33l0 -76c0,-19 -15,-34 -33,-34l-76 0c-19,0 -34,15 -34,34l0 76c0,18 15,33 34,33z"/>
    <path class="fil1" d="M10146 1960l77 0c18,0 33,-15 33,-33l0 -76c0,-19 -15,-34 -33,-34l-77 0c-18,0 -33,15 -33,34l0 76c0,18 15,33 33,33z"/>
    <path class="fil1" d="M10410 1960l77 0c18,0 33,-15 33,-33l0 -76c0,-19 -15,-34 -33,-34l-77 0c-18,0 -33,15 -33,34l0 76c0,18 15,33 33,33z"/>
    <path class="fil1" d="M10674 1960l77 0c18,0 33,-15 33,-33l0 -76c0,-19 -15,-34 -33,-34l-77 0c-18,0 -33,15 -33,34l0 76c0,18 15,33 33,33z"/>
    <path class="fil1" d="M9892 1672l76 0c18,0 33,-15 33,-33l0 -76c0,-19 -15,-34 -33,-34l-76 0c-18,0 -33,15 -33,34l0 76c0,18 15,33 33,33z"/>
    <path class="fil1" d="M10156 1672l76 0c18,0 33,-15 33,-33l0 -76c0,-19 -15,-34 -33,-34l-76 0c-18,0 -33,15 -33,34l0 76c0,18 15,33 33,33z"/>
    <path class="fil1" d="M10420 1672l76 0c18,0 33,-15 33,-33l0 -76c0,-19 -15,-34 -33,-34l-76 0c-18,0 -33,15 -33,34l0 76c0,18 15,33 33,33z"/>
    <path class="fil1" d="M10146 2269l77 0c18,0 33,-15 33,-33l0 -76c0,-19 -15,-34 -33,-34l-77 0c-18,0 -33,15 -33,34l0 76c0,18 15,33 33,33z"/>
    <path class="fil1" d="M10410 2269l77 0c18,0 33,-15 33,-33l0 -76c0,-19 -15,-34 -33,-34l-77 0c-18,0 -33,15 -33,34l0 76c0,18 15,33 33,33z"/>
    <path class="fil1" d="M7072 1886c36,0 66,-30 66,-66 0,-37 -30,-67 -66,-67 -37,0 -67,30 -67,67 0,36 30,66 67,66z"/>
    <path class="fil1" d="M9735 3912c37,0 67,-30 67,-66 0,-37 -30,-67 -67,-67 -37,0 -66,30 -66,67 0,36 29,66 66,66z"/>
    <path class="fil1" d="M8613 4150c36,0 66,-30 66,-66 0,-37 -30,-67 -66,-67 -37,0 -67,30 -67,67 0,36 30,66 67,66z"/>
    <path class="fil1" d="M8070 1686c37,0 67,-29 67,-66 0,-37 -30,-67 -67,-67 -36,0 -66,30 -66,67 0,37 30,66 66,66z"/>
    <path class="fil1" d="M10753 3361c37,0 67,-30 67,-67 0,-37 -30,-67 -67,-67 -37,0 -67,30 -67,67 0,37 30,67 67,67z"/>
   </g>
  </g>
  <path class="fil9" d="M9583 6966l-1899 972c-111,57 -248,13 -306,-99l-2173 -4243c-57,-112 -13,-249 99,-306l119 -61 1781 -740c112,-58 131,-110 188,2l2290 4169c57,111 13,248 -99,306z"/>
  <path class="fil8" d="M9598 6958l-1749 896c-104,53 -231,12 -284,-92l-2188 -4272c-53,-104 -12,-231 92,-284l1749 -896c104,-53 231,-12 284,92l2188 4272c53,104 12,231 -92,284z"/>
  <path class="fil9" d="M6336 3041c-16,5 -33,-1 -41,-16 -8,-16 -2,-35 14,-44l414 -212c16,-8 35,-2 43,14 9,16 2,36 -14,44l-413 212 -3 2z"/>
  <path class="fil9" d="M6102 3171c62,0 62,-97 -1,-97 -62,0 -62,97 1,97z"/>
  <path class="fil10" d="M9408 6412l-1891 968c-16,9 -35,2 -44,-14l-210 -410 -1686 -3293c-8,-16 -2,-36 14,-44l1890 -968c16,-8 36,-2 44,14l1349 2635 548 1069c8,16 2,35 -14,43z"/>
  <path class="fil11" d="M7263 6956l210 410c9,16 28,23 44,14l1891 -968c16,-8 22,-27 14,-43l-548 -1069c0,0 -271,167 -404,711 -181,744 -1207,945 -1207,945z"/>
  <path class="fil6" d="M7486 7404l-13 -38 0 0c1,1 1,1 1,1 6,11 17,17 28,17 0,0 0,0 0,0l0 0c0,0 0,0 0,0 5,0 10,-1 15,-4l378 -193 -409 217zm-1341 -4069l-4 -14 24 -12 6 13 -26 13z"/>
  <path class="fil12" d="M7502 7384l0 0c0,0 0,0 0,0 0,0 0,0 0,0zm0 0c-11,0 -22,-6 -28,-17 6,11 17,17 28,17zm-169 -445l-78 -236 18 -10c16,-8 23,-28 15,-44l-78 -151 63 -32c16,-8 23,-28 15,-44l-351 -685 -792 -2402 26 -13 550 1072c5,12 17,18 29,18 5,0 10,-1 14,-3l486 -249 798 2448c-267,199 -579,296 -715,331z"/>
  <path class="fil13" d="M7502 7384c0,0 0,0 0,0 -11,0 -22,-6 -28,-17 0,0 0,0 -1,-1l0 0 -140 -427c136,-35 448,-132 715,-331l139 424 -292 155 -378 193c-5,3 -10,4 -15,4 0,0 0,0 0,0l0 0z"/>
  <path class="fil12" d="M8290 6377l-817 -2331 323 -165 711 1997c-13,42 -25,86 -37,133 -34,140 -98,261 -180,366z"/>
  <path class="fil13" d="M8470 6892l-180 -515c82,-105 146,-226 180,-366 12,-47 24,-91 37,-133l300 842 -170 87 -167 85z"/>
  <path class="fil14" d="M8793 7130c0,-96 -78,-174 -174,-174 -96,0 -175,78 -175,174 0,96 79,175 175,175 96,0 174,-79 174,-175z"/>
  <polygon class="fil15" points="7250,4160 7186,3965 7405,3853 7473,4046 "/>
  <path class="fil16" d="M8163 3693l-92 -180 521 -267 77 151c8,16 2,35 -14,44l-492 252z"/>
  <polygon class="fil17" points="8074,3738 7982,3558 8071,3513 8163,3693 "/>
  <polygon class="fil15" points="7796,3881 7727,3688 7828,3637 7843,3629 7982,3558 8074,3738 "/>
  <path class="fil16" d="M5978 2945l-225 -441c-8,-16 -2,-35 14,-44l63 -32 166 324c0,1 0,1 0,1l75 145 -93 47z"/>
  <path class="fil17" d="M6165 3309l-71 -138c2,0 5,0 7,0 63,0 63,-97 0,-97 -22,0 -36,12 -42,27l-81 -156 93 -47 67 132 120 233 -93 46z"/>
  <path class="fil18" d="M6102 3171c-3,0 -6,0 -8,0l-35 -70c6,-15 20,-27 42,-27 63,0 63,97 1,97z"/>
  <polygon class="fil17" points="6171,3322 6165,3309 6258,3263 6264,3275 "/>
  <path class="fil19" d="M6750 4412c-12,0 -24,-6 -29,-18l-550 -1072 93 -47 457 892c5,11 17,18 29,18 5,0 10,-1 14,-4l217 -110 10 -6 195 -100 64 195 -486 249c-4,2 -9,3 -14,3z"/>
  <polygon class="fil19" points="7473,4046 7405,3853 7727,3688 7796,3881 "/>
  <path class="fil6" d="M8655 3213l-1891 968c-16,9 -35,2 -43,-14l-968 -1890c-8,-16 -2,-36 14,-44l1890 -968c16,-8 36,-2 44,14l968 1891c8,16 2,35 -14,43z"/>
  <path class="fil20" d="M8366 2650l-1890 968c-16,8 -36,2 -44,-14l-436 -851c-8,-16 -1,-36 15,-44l1890 -968c16,-8 35,-2 44,14l436 851c8,16 1,36 -15,44z"/>
  <path class="fil20" d="M6226 2284c38,69 12,155 -57,193 -68,37 -155,12 -192,-57 -38,-69 -12,-155 57,-192 69,-38 155,-12 192,56z"/>
  <path class="fil6" d="M6128 2340c3,-10 2,-21 -3,-30 -11,-20 -36,-27 -55,-17 -20,11 -28,36 -17,56 5,9 14,16 24,19 -20,19 -30,46 -31,72 31,20 71,23 106,4 34,-19 53,-54 54,-90 -23,-15 -51,-20 -78,-14z"/>
  <path class="fil20" d="M6992 3587c-17,-35 -62,-47 -102,-28 -40,19 -58,62 -42,97 -16,-35 -62,-47 -101,-28 -40,19 -58,62 -42,97 0,0 49,156 246,144 132,-146 41,-282 41,-282z"/>
  <path class="fil21" d="M7481 3572l-53 -39c-1,-22 -7,-44 -17,-65 -40,-79 -136,-111 -215,-71 -79,40 -111,136 -71,215 40,79 136,110 215,71 36,-18 62,-48 76,-82l57 -3c13,-1 18,-18 8,-26z"/>
  <polygon class="fil22" points="7717,3137 7642,3352 7473,3369 "/>
  <polygon class="fil21" points="7717,3137 7642,3352 7764,3470 "/>
  <path class="fil22" d="M6365 2240l-15 -29c-4,-8 -1,-18 7,-22l428 -218c8,-4 18,-1 22,7l15 29c4,8 1,18 -7,22l-429 218c-8,4 -17,1 -21,-7z"/>
  <path class="fil6" d="M6981 4071l-45 -202c5,0 10,0 15,0 132,-146 41,-282 41,-282 -12,-24 -36,-37 -64,-37 -12,0 -25,3 -38,9 -8,4 -14,8 -20,14l-32 -141 474 -242 44 216c-26,-17 -57,-26 -88,-26 -25,0 -49,5 -72,17 -79,40 -111,136 -71,215 28,56 85,88 143,88 24,0 49,-6 72,-17 26,-13 47,-33 61,-55l43 205 -453 232 -10 6z"/>
  <path class="fil6" d="M6609 2403l-54 -242 260 -132c8,-4 11,-14 7,-22l-15 -29c-3,-6 -9,-9 -14,-9 -3,0 -5,1 -8,2l-245 124 -52 -231 191 -98 307 -157 112 543 -489 251z"/>
  <polygon class="fil23" points="6838,3432 6609,2403 7098,2152 7312,3190 "/>
  <path class="fil23" d="M6936 3869l-66 -297c6,-5 12,-9 20,-13 13,-6 26,-9 38,-9 28,0 52,13 64,37 0,0 91,136 -41,282 -5,0 -10,0 -15,0z"/>
  <path class="fil24" d="M7268 3700c-58,0 -115,-32 -143,-88 -40,-79 -8,-175 71,-215 23,-12 47,-17 72,-17 31,0 62,9 88,26l46 222c-15,22 -36,42 -62,55 -23,11 -48,17 -72,17z"/>
  <path class="fil25" d="M6555 2161l-15 -66 245 -124c3,-1 5,-2 8,-2 5,0 11,3 14,9l15 29c4,8 1,18 -7,22l-260 132z"/>
  <polygon class="fil26" points="7828,3637 7843,3629 "/>
  <path class="fil6" d="M7603 3752l-78 -388 117 -12 75 -215 -200 190 -44 -220 236 -120 134 642 -15 8 -225 115zm114 -615l-75 215 122 118 -47 -333zm-453 -1070l-110 -544 227 -116 113 543 -230 117z"/>
  <polygon class="fil23" points="7473,3107 7264,2067 7494,1950 7709,2987 "/>
  <polygon class="fil25" points="7525,3364 7517,3327 7717,3137 7642,3352 "/>
  <polygon class="fil24" points="7764,3470 7642,3352 7717,3137 "/>
  <path class="fil27" d="M9859 2504c0,-227 -184,-411 -411,-411 -227,0 -410,184 -410,411 0,226 183,410 410,410 227,0 411,-184 411,-410z"/>
  <path class="fil8" d="M9485 2612c20,-40 3,-89 -37,-108 -40,-20 -89,-4 -108,37 -20,40 -4,89 37,108 40,20 88,4 108,-37z"/>
  <path class="fil8" d="M9330 2466l-49 -65c66,-50 154,-58 228,-21 74,36 121,110 123,193l-82 1c-1,-52 -30,-98 -77,-121 -47,-23 -102,-18 -143,13z"/>
  <path class="fil8" d="M9251 2360l-49 -65c106,-79 246,-92 365,-34 119,59 194,177 196,310l-81 1c-1,-102 -59,-193 -151,-238 -91,-45 -199,-35 -280,26z"/>
  <path class="fil28" d="M10533 3003l-443 -162c-4,-2 -7,-7 -5,-12l107 -295c2,-5 8,-7 12,-5l222 80 221 81c5,2 8,7 6,12l-108 295c-1,5 -7,8 -12,6z"/>
  <path class="fil6" d="M10648 2708c8,-4 7,-15 -1,-18l-221 -81 -222 -80c-8,-3 -15,5 -11,13l154 265c2,4 7,6 12,4l289 -103z"/>
  <path class="fil27" d="M10360 4314c-29,-137 -164,-224 -301,-194 -137,30 -224,165 -194,302 30,137 165,224 302,194 136,-30 223,-165 193,-302z"/>
  <path class="fil16" d="M10149 4360c-4,-20 -24,-33 -44,-28 -20,4 -33,24 -29,44 5,20 24,33 45,28 20,-4 32,-24 28,-44z"/>
  <path class="fil16" d="M10041 4384c-4,-21 -24,-33 -44,-29 -20,4 -33,24 -29,44 5,20 25,33 45,29 20,-5 33,-24 28,-44z"/>
  <path class="fil16" d="M10257 4337c-5,-20 -24,-33 -45,-29 -20,5 -32,24 -28,44 4,21 24,33 44,29 20,-4 33,-24 29,-44z"/>
  <g id="_2798794853760">
   <path class="fil29" d="M7992 6452l-555 -1033c-39,-72 -12,-161 59,-199 72,-38 161,-12 199,60l594 1106 89 165c38,71 11,160 -60,199 -21,11 -44,17 -67,17 -53,1 -105,-27 -132,-77l-127 -238z"/>
   <path class="fil30" d="M7901 5305c0,0 -131,47 -238,164 -98,108 -196,170 -196,170 -176,90 -423,-40 -551,-290 -128,-250 -72,-498 87,-615 66,-49 173,-56 291,-70 118,-15 230,-94 230,-94 0,0 175,-68 207,-288 32,-220 263,-650 610,-824l925 1851c0,0 -344,209 -750,137 -406,-72 -374,-223 -615,-141z"/>
   <path class="fil14" d="M9421 4067c261,509 181,1071 -178,1255 -359,184 -862,-80 -1122,-589 -261,-510 -182,-1072 178,-1255 359,-184 861,79 1122,589z"/>
   <path class="fil21" d="M9254 4173c218,425 142,898 -168,1058 -311,159 -739,-57 -957,-482 -218,-425 -142,-899 168,-1058 311,-159 740,57 957,482z"/>
   <path class="fil29" d="M8771 4400l-162 -317c0,0 -210,61 -354,317 -56,100 -167,185 -292,208 -114,21 46,158 46,158 0,0 57,183 114,159 121,-53 239,-127 356,-111 290,39 446,-94 446,-94l-154 -320z"/>
   <path class="fil20" d="M8299 3477c-360,184 -439,746 -178,1256 260,509 763,773 1122,589l-173 88c-359,184 -861,-80 -1122,-589 -261,-509 -181,-1071 178,-1255l173 -89z"/>
   <path class="fil20" d="M7502 5046c-93,-182 -80,-379 22,-476 -20,3 -39,10 -57,19 -146,75 -179,304 -73,511 107,208 311,315 457,240 19,-9 35,-21 50,-35 -138,27 -307,-78 -399,-259z"/>
   <path class="fil20" d="M8994 4285c89,175 62,368 -61,431 -123,63 -296,-27 -385,-202 -90,-175 -63,-368 61,-431 123,-63 295,28 385,202z"/>
  </g>
  <path class="fil30" d="M10248 3304c-122,-237 -485,-294 -812,-127 -327,168 -494,496 -372,733 52,103 150,172 271,203l-351 310c0,0 487,-201 784,-340 36,-13 72,-28 108,-46 32,-17 62,-34 91,-54 8,-5 15,-9 19,-13 252,-178 369,-457 262,-666z"/>
  <path class="fil8" d="M9537 4613c-111,0 -212,45 -285,118 0,0 -105,64 -325,7 0,0 149,91 212,338 29,194 196,342 398,342 222,0 402,-180 402,-402 0,-223 -180,-403 -402,-403z"/>
  <path class="fil31" d="M9453 4817l100 85c6,5 14,5 21,1l111 -69c15,-9 33,6 26,23l-49 120c-3,8 -1,16 5,21l100 84c13,12 5,34 -13,33l-130 -10c-8,0 -15,4 -18,11l-50 121c-6,17 -30,15 -34,-2l-31 -127c-2,-8 -9,-13 -17,-14l-130 -9c-18,-1 -23,-25 -8,-34l111 -69c6,-4 9,-12 8,-20l-32 -126c-4,-17 16,-30 30,-19z"/>
  <path class="fil16" d="M9617 7747c-12,0 -23,-7 -29,-18l-311 -607 105 -53 255 498c6,11 17,17 29,17 5,0 10,-1 15,-3l108 -56 0 0 361 -184 845 -433 41 80c8,16 1,35 -14,44l-1390 711c-5,3 -10,4 -15,4z"/>
  <polygon class="fil17" points="9277,7122 9016,6613 9121,6559 9382,7069 "/>
  <path class="fil32" d="M9016 6613l-139 -273c-9,-16 -2,-36 14,-44l75 -39 155 302 -105 54z"/>
  <path class="fil6" d="M11070 6869l-1389 712c-16,8 -36,2 -44,-14l-712 -1390c-8,-16 -2,-35 14,-44l1390 -711c16,-8 36,-2 44,14l711 1390c8,16 2,35 -14,43z"/>
  <path class="fil16" d="M10715 6518l-1112 570c-16,8 -36,1 -44,-14l-220 -431c-8,-16 -2,-36 14,-44l1112 -570c16,-8 36,-1 44,15l220 430c9,16 2,36 -14,44z"/>
  <path class="fil33" d="M9326 6184c28,52 9,118 -44,146 -52,29 -117,9 -146,-43 -28,-52 -9,-118 43,-146 53,-29 118,-10 147,43z"/>
  <path class="fil6" d="M9251 6226c2,-7 1,-16 -2,-23 -9,-15 -27,-21 -42,-12 -16,8 -21,27 -13,42 4,7 11,12 18,14 -15,15 -23,35 -23,56 23,15 54,17 80,2 26,-14 41,-41 41,-68 -17,-11 -38,-15 -59,-11z"/>
  <path class="fil22" d="M9384 6109l-15 -29c-4,-8 -1,-18 7,-22l319 -163c8,-4 18,0 22,7l15 29c4,8 1,18 -7,22l-320 163c-8,4 -17,1 -21,-7z"/>
  <path class="fil22" d="M9437 6223l-7 -14c-5,-8 -1,-18 7,-22l774 -396c8,-4 18,-1 22,7l8 14c4,8 0,18 -8,22l-774 396c-8,4 -18,1 -22,-7z"/>
  <path class="fil22" d="M9482 6315l-7 -15c-4,-8 -1,-17 7,-22l775 -396c8,-4 17,-1 21,7l8 15c4,8 1,18 -7,22l-775 396c-8,4 -18,1 -22,-7z"/>
  <path class="fil21" d="M10464 6840c-11,-24 -42,-33 -69,-21 -28,12 -41,42 -31,65 -10,-23 -41,-33 -69,-20 -27,12 -41,42 -30,65 0,0 31,108 166,103 93,-98 33,-192 33,-192z"/>
  <path class="fil16" d="M9902 7160c-24,-50 -94,-66 -156,-36 -63,29 -93,94 -69,144 24,50 93,67 156,37l28 60c0,0 44,-111 46,-146l0 0c5,-20 3,-40 -5,-59z"/>
  <path class="fil22" d="M10092 7177c-13,6 -28,0 -33,-12l-28 -58 42 41 11 -11 -108 -106 15 150 16 -1 -5 -59 27 58c10,21 31,33 52,33 8,0 17,-2 25,-6l52 -25 -14 -29 -52 25z"/>
  <path class="fil22" d="M10095 6992c12,-6 27,0 33,12l28 58 -42 -41 -12 11 108 106 -15 -150 -16 1 6 59 -28 -58c-6,-14 -18,-24 -32,-29 -15,-5 -30,-5 -44,2l-52 25 14 29 52 -25z"/>
  <polygon class="fil34" points="9789,7525 9789,7525 10150,7341 10150,7341 "/>
  <path class="fil6" d="M9789 7525l-45 -208c8,2 17,3 25,3 21,0 43,-5 64,-15l28 60c0,0 44,-111 46,-146l0 0c5,-20 3,-40 -5,-59 -16,-33 -52,-51 -93,-51 -21,0 -42,5 -63,15 -15,6 -27,15 -38,25l-23 -104 365 -186 23 108 -44 21 14 29 36 -17 35 166 -22 11c-4,1 -7,2 -11,2 -9,0 -18,-5 -22,-14l-28 -58 42 41 11 -11 -108 -106 15 150 16 -1 -5 -59 27 58c10,21 31,33 52,33 8,0 17,-2 25,-6l15 -7 29 142 -361 184zm-223 -1035l-39 -180 370 -189 38 180 -369 189zm-50 -229l-11 -54 371 -190 11 54 -371 190z"/>
  <polygon class="fil35" points="9434,5880 9433,5876 9808,5688 9808,5689 "/>
  <path class="fil6" d="M9494 6158l-17 -79 248 -126c8,-4 11,-14 7,-22l-15 -29c-3,-5 -9,-8 -15,-8 -2,0 -5,0 -7,1l-232 119 -29 -134 374 -191 58 279 -372 190z"/>
  <polygon class="fil36" points="9685,7045 9566,6490 9935,6301 10050,6859 "/>
  <path class="fil25" d="M9477 6079l-14 -65 232 -119c2,-1 5,-1 7,-1 6,0 12,3 15,8l15 29c4,8 1,18 -7,22l-248 126z"/>
  <polygon class="fil25" points="9505,6207 9494,6158 9866,5968 9876,6017 "/>
  <polygon class="fil25" points="9527,6310 9516,6261 9887,6071 9897,6121 "/>
  <path class="fil36" d="M9861 7365l-28 -60c-21,10 -43,15 -64,15 -8,0 -17,-1 -25,-3l-36 -168c11,-10 23,-19 38,-25 21,-10 42,-15 63,-15 41,0 77,18 93,51 8,19 10,39 5,59l0 0c-2,35 -46,146 -46,146z"/>
  <path class="fil25" d="M10081 7212c-21,0 -42,-12 -52,-33l-27 -58 5 59 -16 1 -15 -150 108 106 -11 11 -42 -41 28 58c4,9 13,14 22,14 4,0 7,-1 11,-2l22 -11 7 33 -15 7c-8,4 -17,6 -25,6z"/>
  <polygon class="fil25" points="10043,7017 10029,6988 10073,6967 10079,7000 "/>
  <path class="fil6" d="M10287 7270l-93 -485 176 -90 23 125c-26,13 -39,41 -29,64 -7,-16 -24,-26 -44,-26 -8,0 -16,2 -25,6 -27,12 -41,42 -30,65 0,0 30,103 157,103 3,0 6,0 9,0 0,0 1,-1 1,-1l28 151 -173 88zm-200 -1047l-35 -181 180 -92 33 182 -178 91zm-45 -231l-10 -55 180 -92 10 55 -180 92z"/>
  <polygon class="fil35" points="9968,5607 9968,5602 10150,5509 10151,5513 "/>
  <polygon class="fil6" points="10022,5887 9968,5607 10151,5513 10203,5795 "/>
  <polygon class="fil36" points="10194,6785 10087,6223 10265,6132 10370,6695 "/>
  <polygon class="fil25" points="10032,5937 10022,5887 10203,5795 10212,5845 "/>
  <polygon class="fil25" points="10052,6042 10042,5992 10222,5900 10232,5950 "/>
  <path class="fil24" d="M10422 7032c-127,0 -157,-103 -157,-103 -11,-23 3,-53 30,-65 9,-4 17,-6 25,-6 20,0 37,10 44,26 -10,-23 3,-51 29,-64l39 211c0,0 -1,1 -1,1 -3,0 -6,0 -9,0z"/>
  <path class="fil16" d="M5536 7579c-12,0 -23,-7 -29,-18l-1112 -2171c-8,-16 -2,-35 14,-43l64 -33 306 599 464 906c0,0 0,0 0,0l264 515c6,11 17,18 29,18 5,0 10,-2 15,-4l129 -66 517 -262 0 -3 140 -72 245 -125 217 -112 93 181 -1341 686c-5,3 -10,4 -15,4z"/>
  <polygon class="fil18" points="6892,6889 6799,6708 6978,6617 7070,6797 "/>
  <polygon class="fil17" points="7070,6797 6978,6617 7066,6572 7159,6752 "/>
  <polygon class="fil15" points="7159,6752 7066,6572 7191,6508 7255,6703 "/>
  <path class="fil19" d="M7255 6703l-64 -195 19 -10 78 151c8,16 1,36 -15,44l-18 10z"/>
  <path class="fil6" d="M7273 6466l-1722 882c-16,8 -36,2 -44,-14l-1112 -2171c-8,-16 -2,-35 14,-44l1723 -882c16,-8 36,-2 44,14l1112 2171c8,16 1,36 -15,44z"/>
  <path class="fil37" d="M7010 5951l-1723 882c-16,8 -36,2 -44,-14l-618 -1208c-9,-16 -2,-36 14,-44l1723 -882c16,-8 35,-2 43,14l619 1208c8,16 2,35 -14,44z"/>
  <path class="fil37" d="M4881 5169c34,64 11,144 -53,178 -64,35 -143,11 -178,-52 -35,-64 -11,-144 53,-178 63,-35 143,-12 178,52z"/>
  <path class="fil6" d="M4790 5221c2,-10 2,-20 -3,-28 -10,-19 -33,-25 -51,-16 -19,10 -25,33 -15,52 4,8 12,15 21,17 -18,18 -28,43 -28,68 29,18 66,20 98,3 31,-17 50,-50 50,-84 -21,-13 -47,-18 -72,-12z"/>
  <path class="fil22" d="M4976 5043l-15 -29c-4,-8 0,-18 8,-22l394 -201c8,-4 18,0 22,8l14 29c5,8 1,17 -7,21l-394 201c-8,4 -18,1 -22,-7z"/>
  <path class="fil22" d="M5038 5168l-7 -14c-4,-8 -1,-18 7,-22l584 -298c8,-5 18,-1 22,7l7 14c4,8 1,18 -7,22l-584 298c-8,4 -18,1 -22,-7z"/>
  <path class="fil37" d="M5665 7089l-81 39c-8,4 -18,1 -22,-7l-91 -189c-4,-8 0,-17 8,-21l81 -39c8,-4 18,-1 22,7l91 189c3,8 0,17 -8,21z"/>
  <path class="fil22" d="M5668 7057l137 -66c5,-2 9,-6 11,-10 7,-11 15,-31 4,-55l-32 -67c-4,-8 -12,-15 -21,-19 -12,-5 -30,-10 -41,-5 -19,9 -48,23 -48,23 0,0 5,-62 -12,-90 -17,-28 -38,-7 -38,18 1,26 17,86 -37,112l77 159z"/>
  <path class="fil21" d="M6061 6611l-176 89c-11,6 -16,21 -10,33l64 124c6,12 20,17 32,11l17 -9 16 59 33 -84 110 -56c12,-6 16,-20 10,-32l-64 -125c-6,-12 -20,-16 -32,-10z"/>
  <path class="fil22" d="M6289 6786c0,0 -75,-157 44,-218l-33 -65 152 40 -63 134 -28 -49c0,0 -58,27 -72,158z"/>
  <polygon class="fil34" points="5680,7282 6197,7017 6197,7020 "/>
  <path class="fil6" d="M5680 7282l-36 -182 21 -11c8,-4 11,-13 8,-21l-60 -124 0 0 55 113 137 -66c5,-2 9,-6 11,-10 7,-11 15,-31 4,-55l-32 -67c-4,-8 -12,-15 -21,-19 -8,-3 -20,-7 -30,-7 -4,0 -8,1 -11,2 -19,9 -48,23 -48,23 0,0 5,-62 -12,-90 -6,-10 -12,-13 -18,-13 -11,0 -20,14 -20,31 1,24 14,77 -25,105l-40 -200 513 -262 54 264 -37 -72c-4,-8 -12,-13 -21,-13 -4,0 -8,1 -11,3l-176 89c-11,6 -16,21 -10,33l64 124c4,9 12,14 21,14 4,0 8,-1 11,-3l17 -9 16 59 33 -84 110 -56c0,0 0,0 1,0l49 239 -517 265 0 0zm-403 -2042l-31 -160 398 -203c8,-4 11,-14 7,-22l-7 -14c-3,-6 -9,-9 -15,-9 -2,0 -5,0 -7,2l-386 197 -18 -93 174 -89c8,-4 12,-13 7,-21l-14 -29c-3,-6 -9,-9 -15,-9 -2,0 -5,0 -7,1l-158 81 -12 -59 498 -255 88 425 -502 257z"/>
  <polygon class="fil38" points="5563,6691 5277,5240 5779,4983 6076,6429 "/>
  <path class="fil25" d="M5218 4938l-13 -66 158 -81c2,-1 5,-1 7,-1 6,0 12,3 15,9l14 29c5,8 1,17 -7,21l-174 89z"/>
  <path class="fil25" d="M5246 5080l-10 -49 386 -197c2,-2 5,-2 7,-2 6,0 12,3 15,9l7 14c4,8 1,18 -7,22l-398 203z"/>
  <path class="fil38" d="M5644 7100l-31 -156 60 124c3,8 0,17 -8,21l-21 11z"/>
  <path class="fil25" d="M5668 7057l-55 -113 -10 -53c39,-28 26,-81 25,-105 0,-17 9,-31 20,-31 6,0 12,3 18,13 17,28 12,90 12,90 0,0 29,-14 48,-23 3,-1 7,-2 11,-2 10,0 22,4 30,7 9,4 17,11 21,19l32 67c11,24 3,44 -4,55 -2,4 -6,8 -11,10l-137 66z"/>
  <path class="fil24" d="M6004 6918l-16 -59 -17 9c-3,2 -7,3 -11,3 -9,0 -17,-5 -21,-14l-64 -124c-6,-12 -1,-27 10,-33l176 -89c3,-2 7,-3 11,-3 9,0 17,5 21,13l37 72 18 85c-1,0 -1,0 -1,0l-110 56 -33 84z"/>
  <polygon class="fil34" points="6337,6945 6337,6945 6582,6820 6582,6820 "/>
  <path class="fil6" d="M6337 6945l-40 -207c21,-90 64,-110 64,-110l28 49 63 -134 -152 -40 33 65c-30,15 -48,37 -58,61l-53 -275 241 -124 119 590 -245 125zm-395 -2045l-83 -428 226 -116 86 426 -229 118z"/>
  <polygon class="fil38" points="6222,6354 5942,4900 6171,4782 6463,6230 "/>
  <path class="fil25" d="M6297 6738l-22 -109c10,-24 28,-46 58,-61l-33 -65 152 40 -63 134 -28 -49c0,0 -43,20 -64,110z"/>
  <g id="_2798793924864">
   <path class="fil39" d="M2808 4887l-689 0c-54,0 -98,44 -98,98l0 689c0,54 44,98 98,98l344 0 188 249 100 0 0 -249 57 0c54,0 98,-44 98,-98l0 -689c0,-54 -44,-98 -98,-98z"/>
   <path class="fil40" d="M2709 4887l-690 0c-54,0 -97,44 -97,98l0 689c0,54 43,98 97,98l345 0 287 249 0 -249 58 0c54,0 97,-44 97,-98l0 -689c0,-54 -43,-98 -97,-98z"/>
   <path class="fil41" d="M2676 5568c21,20 21,54 0,74 -20,21 -54,21 -74,0l-147 -146c-20,-21 -20,-54 0,-75 21,-21 54,-21 75,0l146 147z"/>
   <path class="fil41" d="M2148 5113c-63,63 -63,164 0,226 62,62 163,62 225,0 62,-62 62,-163 0,-226 -62,-62 -163,-62 -225,0zm258 259c-80,80 -211,80 -291,0 -81,-81 -81,-211 0,-292 80,-80 211,-80 291,0 80,81 80,211 0,292z"/>
   <polygon class="fil41" points="2566,5499 2533,5532 2373,5372 2406,5339 "/>
  </g>
  <g id="_2798793923872">
   <path class="fil42" d="M3896 2537l-1124 0c-88,0 -160,71 -160,159l0 1125c0,88 72,159 160,159l661 0 259 312 104 0 0 -312 100 0c88,0 160,-71 160,-159l0 -1125c0,-88 -72,-159 -160,-159z"/>
   <path class="fil41" d="M3792 2537l-1124 0c-88,0 -160,71 -160,159l0 1125c0,88 72,159 160,159l661 0 363 312 0 -312 100 0c88,0 160,-71 160,-159l0 -1125c0,-88 -72,-159 -160,-159z"/>
   <polygon class="fil6" points="3079,3441 2706,3275 2706,3212 3079,3025 3079,3135 2850,3239 3079,3332 "/>
   <polygon class="fil6" points="3440,2959 3239,3514 3111,3514 3312,2959 "/>
   <polygon class="fil6" points="3468,3332 3697,3239 3468,3135 3468,3025 3841,3212 3841,3275 3468,3441 "/>
  </g>
  <g id="_2798793910656">
   <path class="fil39" d="M3635 6671c0,211 170,381 380,381 210,0 381,-170 381,-381 0,-210 -171,-380 -381,-380 -210,0 -380,170 -380,380z"/>
   <path class="fil40" d="M3564 6671c0,211 170,381 380,381 210,0 380,-170 380,-381 0,-210 -170,-380 -380,-380 -210,0 -380,170 -380,380z"/>
   <path class="fil41" d="M3832 6663c0,-46 6,-90 20,-130 13,-41 33,-76 59,-107l53 0c-24,33 -43,70 -55,111 -13,41 -20,83 -20,125 0,43 7,85 20,125 12,40 31,76 55,108l-53 0c-26,-29 -46,-64 -59,-104 -14,-40 -20,-82 -20,-128z"/>
   <path class="fil41" d="M4015 6778c0,-13 4,-23 10,-30 7,-7 17,-10 29,-10 13,0 23,3 29,10 7,8 10,17 10,30 0,12 -3,22 -10,29 -6,7 -16,11 -29,11 -12,0 -22,-4 -29,-11 -6,-7 -10,-17 -10,-29zm0 -225c0,-26 13,-39 39,-39 13,0 23,3 30,10 6,7 9,17 9,29 0,13 -3,22 -10,30 -6,7 -16,11 -29,11 -12,0 -22,-4 -29,-11 -6,-7 -10,-17 -10,-30z"/>
  </g>
  <path class="fil8" d="M2349 6750c-19,5 -36,12 -52,21 -16,10 -31,21 -44,34 -3,3 -7,3 -10,1l-61 -35 0 0c-3,-2 -7,-2 -11,-1 -4,1 -7,3 -9,7l0 0 -43 74c-2,4 -3,8 -1,11 0,4 3,8 6,10l1 0 60 35c3,1 5,5 4,8l0 0c-2,9 -4,19 -5,28 -1,9 -2,19 -2,28 0,10 1,19 2,28 1,10 3,19 5,28 1,3 -1,7 -4,9l-61 35 0 0c-3,2 -6,5 -6,9 -2,3 -1,8 1,11l43 74c2,4 5,6 9,7 4,1 8,1 11,-1l1 0 60 -35c3,-2 7,-1 10,1 13,13 28,24 44,34 16,9 34,16 52,22 3,1 6,4 6,7l0 70c0,4 1,8 4,11 3,3 7,4 11,4l85 0c5,0 8,-1 11,-4 3,-3 4,-7 4,-11l0 -70c0,-3 3,-7 7,-7 18,-6 35,-13 51,-22 16,-10 31,-21 45,-34 2,-3 7,-3 10,-1l60 35c3,2 7,2 11,1 4,-1 7,-3 9,-7l1 0 42 -74c2,-4 3,-8 2,-11 -1,-4 -4,-7 -7,-9l-61 -35c-3,-2 -4,-6 -4,-9l0 0c3,-9 4,-18 5,-28 2,-9 2,-18 2,-28 0,-9 0,-19 -2,-28 -1,-9 -2,-19 -5,-28 -1,-3 1,-7 5,-9l60 -34c3,-2 6,-6 7,-10 1,-3 0,-7 -2,-11l0 0 -43 -74 0 0c-2,-4 -5,-6 -9,-7 -4,-1 -8,-1 -11,1l0 0 -61 35c-3,2 -7,2 -10,-1 -13,-13 -28,-24 -44,-34 -16,-9 -33,-16 -52,-22 -3,-1 -6,-4 -6,-7l0 -70c0,-4 -1,-8 -4,-11 -3,-2 -6,-4 -11,-4l-85 0c-4,0 -8,2 -11,4 -3,3 -4,7 -4,11l0 70c0,4 -3,7 -6,8zm-29 129c24,-24 57,-38 93,-38 36,0 68,14 92,38 23,23 38,56 38,92 0,36 -15,69 -38,92 -24,24 -56,39 -92,39 -36,0 -69,-15 -93,-39 -23,-23 -38,-56 -38,-92 0,-36 15,-69 38,-92l0 0zm-67 258l0 0z"/>
 </g>
</svg>
